<svg xmlns="http://www.w3.org/2000/svg" width="512" height="512">
    <linearGradient id="a" x1="41.66" x2="553.66" y1="92.04" y2="92.04" gradientTransform="matrix(1 0 0 -1 -41.66 348.04)" gradientUnits="userSpaceOnUse">
        <stop offset="0" stop-color="#f9aa4c"/>
        <stop offset="1" stop-color="#f7941f"/>
    </linearGradient>
    <circle cx="256" cy="256" r="256" fill="url(#a)"/>
    <path fill="#FFF" d="M367.781 228.248c4.725-29.85-19.322-45.896-52.204-56.601l10.666-40.437-26.042-6.134-10.383 39.371c-6.848-1.613-13.878-3.134-20.867-4.642l10.459-39.629-26.028-6.135-10.673 40.422c-5.666-1.22-11.229-2.425-16.629-3.694l.029-.127-35.915-8.475-6.927 26.29s19.322 4.185 18.913 4.445c10.548 2.488 12.453 9.086 12.134 14.315l-12.15 46.066c.729.174 1.669.426 2.707.819-.868-.202-1.794-.426-2.751-.645l-17.031 64.531c-1.289 3.029-4.562 7.571-11.933 5.847.258.357-18.929-4.465-18.929-4.465l-12.93 28.175 33.891 7.986c6.304 1.492 12.484 3.056 18.566 4.528l-10.778 40.9 26.013 6.133 10.673-40.464a1032.764 1032.764 0 0 0 20.755 5.088l-10.637 40.276 26.042 6.133 10.778-40.822c44.406 7.944 77.801 4.74 91.856-33.221 11.326-30.566-.564-48.198-23.928-59.695 17.016-3.709 29.834-14.288 33.253-36.139zm-59.503 78.86c-8.046 30.565-62.5 14.041-80.152 9.898l14.302-54.183c17.652 4.165 74.262 12.409 65.85 44.285zm8.056-79.301c-7.343 27.803-52.665 13.677-67.366 10.214l12.966-49.142c14.702 3.462 62.047 9.925 54.4 38.928z"/>
</svg>