<svg xmlns="http://www.w3.org/2000/svg" xmlns:xlink="http://www.w3.org/1999/xlink" viewBox="0 0 224.17 174.73">
  <defs>
    <mask id="mask" x="0.06" y="0" width="224.11" height="172.65" maskUnits="userSpaceOnUse">
      <g id="mask-2">
        <polygon id="path-1" points="0.06 0 224.17 0 224.17 172.65 0.06 172.65 0.06 0" style="fill: #fff;fill-rule: evenodd"/>
      </g>
    </mask>
    <mask id="mask-2-2" x="0" y="0" width="224.17" height="172.65" maskUnits="userSpaceOnUse">
      <g id="mask-2-3" data-name="mask-2">
        <polygon id="path-1-2" data-name="path-1" points="0.06 0 224.17 0 224.17 172.65 0.06 172.65 0.06 0" style="fill: #fff;fill-rule: evenodd"/>
      </g>
    </mask>
    <mask id="mask-6" x="96.99" y="88.73" width="10.7" height="16.68" maskUnits="userSpaceOnUse">
      <g id="mask-8">
        <polygon id="path-7" points="96.99 88.73 107.69 88.73 107.69 105.42 96.99 105.42 96.99 88.73" style="fill: #fff;fill-rule: evenodd"/>
      </g>
    </mask>
    <mask id="mask-7" x="94" y="91.72" width="16.68" height="10.71" maskUnits="userSpaceOnUse">
      <g id="mask-10">
        <polygon id="path-9" points="94 91.72 110.68 91.72 110.68 102.43 94 102.43 94 91.72" style="fill: #fff;fill-rule: evenodd"/>
      </g>
    </mask>
  </defs>
  <title>Asset 1</title>
  <g id="Layer_2" data-name="Layer 2">
    <g id="Layer_1-2" data-name="Layer 1">
      <g id="Group-2">
        <g id="Group">
          <g id="Group-7">
            <g style="mask: url(#mask)">
              <path id="Fill-1" d="M188.43,135.46c-1.94,1.56-4,.61-5.54-1.33s-2-4.15-.08-5.7a4.5,4.5,0,1,1,5.62,7" style="fill: #eef4f2;fill-rule: evenodd"/>
            </g>
            <g style="mask: url(#mask-2-2)">
              <path id="Fill-3" d="M2.72,80.13C-23.17,168.09,143.34,194,177,155,202.67,125.4,116.26,123,117.2,97.42c1.25-33.45,117.61-.55,106.18-39.19-8.75-29.59-192-75.37-220.66,21.9" style="fill: #edf3f4;fill-rule: evenodd"/>
            </g>
            <g style="mask: url(#mask)">
              <path id="Fill-4" d="M30,81a15,15,0,1,1-8.75-19.33A15,15,0,0,1,30,81" style="fill: #c1d4d9;fill-rule: evenodd"/>
            </g>
            <g style="mask: url(#mask)">
              <path id="Fill-5" d="M16,88a12.22,12.22,0,1,1,0-24.44,12.32,12.32,0,0,1,8,3l-.26.77A11.47,11.47,0,1,0,20.7,86.18a9.86,9.86,0,0,0,1.07-.56c0,.28.05.55.08.82q-.41.23-.84.42A12.16,12.16,0,0,1,16,88" style="fill: #d5e4e2;fill-rule: evenodd"/>
            </g>
            <g style="mask: url(#mask)">
              <path id="Fill-6" d="M48.3,114.35s-28-3.95-26.66-34.83c1.87-42.19,47.86-33.65,55-58C87.73-16.77,129,5.9,130.6,15c7.53,42.7-30.72,114-82.3,99.39" style="fill: #0a0b09;fill-rule: evenodd"/>
            </g>
          </g>
          <path id="Fill-8" d="M110,56.09s-1.75,9.06,8.27,5.91l5.53,8.48-9.38,18L90.09,83,85.94,58.47s7.55,3.89,9.23-.15c2.52-6.09-1-14.06-1-14.06L110,56.09" style="fill: #fffffe;fill-rule: evenodd"/>
          <path id="Fill-9" d="M125.38,19.34c5.41,10.64-2.8,48.33-23.15,35.7-9.37-5.82-9.82-16.52-9.06-26a10.26,10.26,0,0,1,2.28.48c2.13.49,5.17,1,6.5-.38,3.31-3.4,5.82-2,8.63-2.88,12.19-3.9,15.37-5,14.8-6.95" style="fill: #fffffe;fill-rule: evenodd"/>
          <path id="Fill-10" d="M187,41a15,15,0,1,1-8.75-19.33A15,15,0,0,1,187,41" style="fill: #c1d4d9;fill-rule: evenodd"/>
          <path id="Fill-11" d="M169.43,47.42c-.26-.08-.51-.16-.76-.26A12.22,12.22,0,0,1,173,23.51a12,12,0,0,1,4.29.79A12.22,12.22,0,0,1,184.42,40a7.17,7.17,0,0,0-.69.3l-.31.15c.1-.22.2-.45.28-.68a11.46,11.46,0,1,0-14.77,6.69,11.9,11.9,0,0,0,1.51.46l-1,.5" style="fill: #d5e4e2;fill-rule: evenodd"/>
          <path id="Fill-12" d="M81,48.54C97.48,46.29,97.83,31,97.83,31L85.06,22.89,70.75,39.08,81,48.54" style="fill: #0a0b09;fill-rule: evenodd"/>
          <path id="Fill-13" d="M99.1,30.05a12.63,12.63,0,0,1-2-.18c1.94-.58,4.24-1.33,6.91-2.3a8.3,8.3,0,0,0-2,1.6,3.92,3.92,0,0,1-2.85.88m6.66-3.14Q109,25.7,112.91,24c14.53-6.19,17.33-6.57,17.8-6.57h.08A53.78,53.78,0,0,1,126.33,22a12.52,12.52,0,0,0-1-2.68c.57,1.91-2.61,3.05-14.8,7-1.64.53-3.17.27-4.82.62" style="fill: #0a0b09;fill-rule: evenodd"/>
          <path id="Fill-14" d="M99.85,34.41a23.77,23.77,0,0,1-2.52-.13,16.82,16.82,0,0,0,.5-3.25l-1.48-1,.73-.21a12.63,12.63,0,0,0,2,.18,3.92,3.92,0,0,0,2.85-.88,8.3,8.3,0,0,1,2-1.6l1.77-.66c1.65-.35,3.18-.09,4.82-.62,12.19-3.9,15.37-5,14.8-6.95a12.52,12.52,0,0,1,1,2.68c-5.47,5-15.4,12.39-26.48,12.39" style="fill-rule: evenodd;opacity: 0.20346599817276;isolation: isolate"/>
          <path id="Fill-15" d="M97.33,34.28a24.28,24.28,0,0,1-8.46-2.5,46.87,46.87,0,0,0,7.48-1.7l1.48,1a16.82,16.82,0,0,1-.5,3.25" style="fill: #0a0b09;fill-rule: evenodd"/>
          <path id="Fill-16" d="M88,28.81c25.71,9.29,42.82-11.34,42.82-11.34s-1.28-.58-18.29,5.3-24.53,6-24.53,6" style="fill: #0a0b09;fill-rule: evenodd"/>
          <path id="Fill-17" d="M118.31,62S117.74,78.6,104,80.78c-7,1.11-8.56-5.57-10.58-12.25S89,55.06,80.3,56.3C66,58.33,58.17,60,51.65,85c-4.34,16.66-3.09,28.84-1.6,35.78,1.06,5,5.17,8.52,10,10.15l-6.68,17.11s10,25.16,52.56,20.74c0,0,31.59-19.88,32.24-92,.11-11.61-9.67-18.47-19.82-14.79" style="fill: #78eacc;fill-rule: evenodd"/>
          <path id="Fill-18" d="M214.16,101.42l-85.94,42.79a7,7,0,0,1-9.39-3.14L94.64,92.48a7,7,0,0,1,3.15-9.39L183.73,40.3a7,7,0,0,1,9.38,3.15L217.3,92a7,7,0,0,1-3.14,9.38" style="fill: #0a0b09;fill-rule: evenodd"/>
          <path id="Fill-327" d="M198.65,95l1.59,6.19-1.45.72L197.2,95.7Zm7.88.58-.28-2.48L207.73,95Zm2.61,1.18,1.33-.67-3.95-5-1.23.61a.75.75,0,0,0-.42.72l.41,6.26,1.52-.75-.11-1,1.86-.92Zm-4.69.05c-.73-1.48-2.82-.54-3.13-1.21-.1-.2,0-.51.38-.77a3,3,0,0,1,1.55-.46L202.91,93a4.26,4.26,0,0,0-1.47.42c-1.43.71-2.06,2-1.53,3.07a2.06,2.06,0,0,0,2,.89c.7,0,1,.08,1.09.32s-.18.77-.59,1a3.42,3.42,0,0,1-1.66.39l.35,1.35a4.92,4.92,0,0,0,1.75-.5C204.4,99.2,205,98,204.45,96.79ZM196.58,96l.44,6.76-1.53.76-3.37-3.89a.69.69,0,0,0-.59-.32,6.59,6.59,0,0,0-1.66.23l-.05-.18,2.46-1.22a.74.74,0,0,1,.95.24l2.22,2.93-.39-4.56Z" style="fill: #fffffe;fill-rule: evenodd"/>
          <path id="Fill-328" d="M188.39,57.37c-.6,0-.7-.43-.69-1a10.22,10.22,0,0,0-4.44-8.89c-.47-.35-.61-.7-.24-1.19a.89.89,0,0,1,1.23.05,12.63,12.63,0,0,1,3.73,4.3,11.73,11.73,0,0,1,1.24,5.21c0,.43-.22,1.54-.83,1.51" style="fill: #fffffe;fill-rule: evenodd"/>
          <path id="Fill-329" d="M178.24,52.93c.25-.55.62-.61,1.22-.21a3.76,3.76,0,0,1,1.79,3.49c0,.76-.27,1-.89.93-.09,0-.56-.17-.56-.62a3.44,3.44,0,0,0-.11-1.74,4.53,4.53,0,0,0-1.33-1.14.55.55,0,0,1-.12-.71" style="fill: #fffffe;fill-rule: evenodd"/>
          <path id="Fill-330" d="M185.57,52.22a8.89,8.89,0,0,1,.83,4.11c0,.49-.13.91-.68.91s-.67-.41-.66-.91a7.67,7.67,0,0,0-3.3-6.67c-.4-.29-.71-.61-.38-1.07s.76-.31,1.18,0a9.53,9.53,0,0,1,3,3.64" style="fill: #fffffe;fill-rule: evenodd"/>
          <path id="Fill-331" d="M183.09,53.15a6.73,6.73,0,0,1,.66,3.28c0,.46-.24.78-.7.78s-.67-.35-.64-.81a5.08,5.08,0,0,0-2.33-4.69c-.38-.26-.55-.6-.26-1s.65-.36,1-.1a6.72,6.72,0,0,1,2.23,2.53" style="fill: #fffffe;fill-rule: evenodd"/>
          <path id="Fill-332" d="M159.06,116.12s9.73-2.32,13.11-5.73a.7.7,0,0,1,1.22.41c.15,2-1.87,5.27-7.11,7.08,0,0,2.87.7,7,1.25a17.79,17.79,0,0,0,5.72-.31.17.17,0,0,1,.16.22,17.25,17.25,0,0,1-20.71,12.1l-5.76-1.41,6.41-13.61" style="fill: #fffffe;fill-rule: evenodd"/>
          <path id="Fill-333" d="M96.07,53a28.57,28.57,0,0,1-3.89-2.59C94,48.07,94,44.26,94,44.26a21,21,0,0,0,1.27,3.19A23.14,23.14,0,0,1,96.07,53" style="fill: #0a0b09;fill-rule: evenodd"/>
          <path id="Fill-334" d="M106.71,57.2l-.25-.05A41.18,41.18,0,0,1,96.07,53a23.14,23.14,0,0,0-.84-5.53,18.63,18.63,0,0,0,7,7.79c1.34.84,4.71,2,4.48,2" style="fill-rule: evenodd;opacity: 0.2025340050458908;isolation: isolate"/>
          <path id="Fill-335" d="M76.08,80.05s-.17,31.43-7.11,35.78-18.92,5-18.92,5c4.24,23.89,93.08,13.36,101.41,11.95,5.57-.95,9.48-13.42,9.8-16.29.13-1.2,0-2.54-1.17-2.63L76.9,107.46c2.66-17.36-.82-27.41-.82-27.41" style="fill: #78eacc;fill-rule: evenodd"/>
          <path id="Fill-336" d="M103.1,109.47l-26.2-2c2.32-6.6,1.43-15.63.43-21.5a34.9,34.9,0,0,0-1.25-5.91s4.86,7.62,4.6,23.94c0,0,7.91,2.7,20.59,2.7h.45l1.38,2.78" style="fill-rule: evenodd;opacity: 0.2028850018978119;isolation: isolate"/>
          <polyline id="Fill-337" points="103.1 109.47 103.1 109.47 101.72 106.69 103.1 109.47" style="fill: #0a0b09;fill-rule: evenodd"/>
          <path id="Fill-338" d="M103.13,109.53,76.9,107.46l26.2,2h0l0,.06M77.33,86c-.61-3.53-1.25-5.91-1.25-5.91A34.9,34.9,0,0,1,77.33,86" style="fill-rule: evenodd;opacity: 0.20311099290847778;isolation: isolate"/>
          <path id="Fill-339" d="M141,13.78a3,3,0,0,1,2.13,3.67c-.42,1.6-1.8,1.59-3.41,1.17s-2.81-1.1-2.38-2.7A3,3,0,0,1,141,13.78" style="fill: #eef4f2;fill-rule: evenodd"/>
          <path id="Fill-340" d="M103.26,138.72c-.64-.62-1.28-1.23-1.91-1.82,4.62-.08,9.61-.37,15-.93l.66,1.32h0a84.89,84.89,0,0,1-13.7,1.43M84,138.32a221.22,221.22,0,0,1-25.46-3.47L60,131s7.28,3.18,20.91,4.9c0,.15.07.31.11.47h0v0h0v0l2.9,1.92" style="fill-rule: evenodd;opacity: 0.20311099290847778;isolation: isolate"/>
          <path id="Fill-341" d="M117,137.29,116.3,136l.66-.08h0v1.4" style="fill: #0a0b09;fill-rule: evenodd"/>
          <path id="Fill-342" d="M117,135.89h0" style="fill: #3cb395;fill-rule: evenodd"/>
          <path id="Fill-344" d="M125,171.58c-.26-.16-25.48-16.38-44-47.12l.85-.52c18.38,30.53,43.41,46.64,43.66,46.8l-.53.84" style="fill: #a5c3c2;fill-rule: evenodd"/>
          <g id="Group-350">
            <path id="Combined-Shape" d="M79.59,126.67c3.73,2.31,7.24,4.73,10.58,7.27L88,140.29l10.34.41c2.12,1.88,4.17,3.82,6.17,5.8l-.13,2.12,1.21-1a264.5,264.5,0,0,1,20.85,24.32c.1.23.2.45.29.69,0,0-34.54-3-44.57-32.3l3.93-.53-5.07-3.36A53.85,53.85,0,0,1,79.59,126.67Z" style="fill-rule: evenodd;opacity: 0.19699400663375854;isolation: isolate"/>
            <path id="Fill-347" d="M85.23,143.81l1.57-6.51a140.39,140.39,0,0,0-35.73-15.94l-1.25,8.09-5-9.83a228.76,228.76,0,0,0-28.37-5.28,151.63,151.63,0,0,0,8.41,13.13l7.93-2.14-4.2,7.09a119.83,119.83,0,0,0,15.2,16.09l.13-8.42,3.74,11.66a101.4,101.4,0,0,0,36.95,18.83l-2.13-6.32L90.52,172c20.88,4.32,36.44.7,36.44.7-10.2-11.05-20-20.93-31.39-29.37l-10.34.49" style="fill: #c1d4d9;fill-rule: evenodd"/>
            <path id="Fill-348" d="M122.68,171c-.58-.31-59.1-30.92-102.92-54.19l.47-.88C64,139.2,122.56,169.8,123.14,170.11l-.46.89" style="fill: #a5c3c2;fill-rule: evenodd"/>
            <path id="Fill-349" d="M160,154.5a15,15,0,1,1-19.29-8.83A15,15,0,0,1,160,154.5" style="fill: #c1d4d9;fill-rule: evenodd"/>
            <path d="M156.28,155.89a11,11,0,1,1-14.15-6.47,11,11,0,0,1,14.15,6.47" style="fill: none;stroke: #d5e4e2;stroke-width: 0.699999988079071px"/>
          </g>
        </g>
        <g>
          <g id="Group-3">
            <g style="mask: url(#mask-6)">
              <path d="M106.29,105.16A2.49,2.49,0,0,1,103,104L97.24,92.33a2.5,2.5,0,0,1,4.5-2.19l5.7,11.68a2.49,2.49,0,0,1-1.15,3.34" style="fill: #c1d4d9;fill-rule: evenodd"/>
            </g>
          </g>
          <g id="Group-6">
            <g style="mask: url(#mask-7)">
              <path d="M94.25,101a2.5,2.5,0,0,1,1.15-3.34L107.09,92a2.5,2.5,0,1,1,2.19,4.49l-11.68,5.7A2.51,2.51,0,0,1,94.25,101" style="fill: #edf3f4;fill-rule: evenodd"/>
            </g>
          </g>
        </g>
      </g>
    </g>
  </g>
</svg>
