<?xml version="1.0" encoding="UTF-8"?>
<svg width="185px" height="120px" viewBox="0 0 185 120" version="1.1" xmlns="http://www.w3.org/2000/svg" xmlns:xlink="http://www.w3.org/1999/xlink">
    <!-- Generator: Sketch 52.3 (67297) - http://www.bohemiancoding.com/sketch -->
    <title>Confirmation@3x</title>
    <desc>Created with Sketch.</desc>
    <g id="Confirmation" stroke="none" stroke-width="1" fill="none" fill-rule="evenodd">
        <g id="Group-7">
            <g transform="translate(11.000000, 6.000000)">
                <path d="M29.6,22.8 C75.3,-33 132.5,37.5 144.5,18.5 C156.5,-0.5 168.4,14.7 160.5,39.5 C122.8,158.3 -34.2,100.7 29.6,22.8 Z" id="Path" fill="#EDF3F4"></path>
                <path d="M104.9,65.4 C100,76.6 88,82.8 76.1,80.3 C64.2,77.8 55.6,67.3 55.6,55.1 C55.6,42.9 64.1,32.4 76.1,29.9 C88,27.4 100.1,33.6 104.9,44.8 L125.5,38.7 C117.6,17.3 95.5,4.7 73.1,8.7 C50.7,12.7 34.4,32.3 34.4,55.1 C34.4,77.9 50.7,97.5 73.1,101.5 C95.5,105.5 117.6,92.9 125.5,71.5 L104.9,65.4 Z" id="Path" fill="#78EACC"></path>
                <g id="Group" transform="translate(64.000000, 38.000000)">
                    <circle id="Oval" fill="#FFFFFF" cx="17.4" cy="17.6" r="16.5"></circle>
                    <path d="M17.4,34.6 C8,34.6 0.4,27 0.4,17.6 C0.4,8.2 8,0.6 17.4,0.6 C26.8,0.6 34.4,8.2 34.4,17.6 C34.4,27 26.7,34.6 17.4,34.6 Z M17.4,1.6 C8.6,1.6 1.4,8.8 1.4,17.6 C1.4,26.4 8.6,33.6 17.4,33.6 C26.2,33.6 33.4,26.4 33.4,17.6 C33.4,8.8 26.2,1.6 17.4,1.6 Z" id="Shape" fill="#C1D4D9" fill-rule="nonzero"></path>
                </g>
                <path d="M80,59.9 C79.5,59.9 79.1,59.7 78.7,59.5 L76.3,57.6 C75.9,57.3 75.8,56.6 76.1,56.2 C76.4,55.8 77.1,55.7 77.5,56 L79.9,57.9 L84.8,51.8 C85.1,51.4 85.8,51.3 86.2,51.6 C86.6,51.9 86.7,52.6 86.4,53 L81.5,59.1 C81.2,59.5 80.7,59.8 80.2,59.8 C80.2,59.9 80.1,59.9 80,59.9 Z" id="Path" fill="#78EACC"></path>
                <path d="M36.4,92.8 C36.4,92.8 55.4,55 29.5,27.8 C29.6,27.8 42.1,54.6 36.4,92.8 Z" id="Path" fill="#C1D4D9"></path>
                <g id="Group" opacity="0.14" transform="translate(36.000000, 62.000000)" fill="#000000">
                    <path d="M1.5,0.6 C2.1,8.8 2.1,18.2 0.7,28.5 C0.7,29 0.7,29.6 0.7,30.1 C1.1,29.3 1.7,27.8 2.5,25.7 C3.9,19.1 5,9 1.5,0.6 Z" id="Path"></path>
                </g>
                <path d="M36.7,94.8 C36.7,94.8 45.9,58.8 21.1,51.5 C21.1,51.5 35.6,69.9 36.7,94.8 Z" id="Path" fill="#C1D4D9"></path>
                <path d="M36.4,90.8 C36.4,90.8 36.3,90.8 36.4,90.8 C36.3,90.8 36.3,90.7 36.3,90.6 C36.3,90.5 39.6,82.5 40.6,71.4 C41.6,61.1 40.8,45.9 31.7,32 C31.7,31.9 31.7,31.9 31.7,31.8 C31.8,31.8 31.8,31.8 31.9,31.8 C41,45.8 41.8,61.1 40.8,71.4 C39.7,82.6 36.5,90.6 36.4,90.7 C36.5,90.7 36.4,90.8 36.4,90.8 Z" id="Path" fill="#AEC8CE"></path>
                <g id="Group" opacity="0.14" transform="translate(38.000000, 53.000000)" fill="#000000">
                    <path d="M2.8,44.8 C2.8,44.8 -8.3,9.4 16.1,0.7 C16,0.7 2.6,19.9 2.8,44.8 Z" id="Path"></path>
                </g>
                <path d="M40.8,97.8 C40.8,97.8 31.6,61.8 56.4,54.5 C56.4,54.5 41.9,72.9 40.8,97.8 Z" id="Path" fill="#C1D4D9"></path>
                <path d="M36.7,94.5 C36.7,94.5 36.7,94.5 36.7,94.5 C36.6,94.5 36.6,94.4 36.6,94.4 C36.6,94.3 37.9,87.2 36.8,78.6 C35.8,70.7 32.7,59.8 23,53.1 C22.9,53.1 22.9,53 23,52.9 C23,52.8 23.1,52.8 23.2,52.9 C28.6,56.6 35.3,64.1 37.1,78.6 C38.1,87.2 36.9,94.4 36.9,94.4 C36.8,94.4 36.8,94.5 36.7,94.5 Z" id="Path" fill="#AEC8CE"></path>
                <path d="M40.8,97.5 C40.7,97.5 40.7,97.5 40.7,97.4 C40.7,97.3 39.4,90.2 40.5,81.6 C41.5,73.6 44.7,62.7 54.4,55.9 C54.5,55.9 54.5,55.9 54.6,55.9 C54.6,56 54.6,56 54.6,56.1 C45,62.8 41.8,73.7 40.8,81.6 C39.8,90.2 41,97.3 41,97.4 C40.9,97.4 40.9,97.5 40.8,97.5 C40.8,97.5 40.8,97.5 40.8,97.5 Z" id="Path" fill="#AEC8CE"></path>
                <path d="M40.1,84.8 C40.1,84.8 40.1,84.8 40.1,84.8 C40,84.8 40,84.7 40,84.7 C40,84.6 41.1,74.9 48.9,69.6 C49,69.6 49,69.6 49.1,69.6 C49.1,69.7 49.1,69.7 49.1,69.8 C41.4,75 40.3,84.6 40.3,84.7 C40.3,84.7 40.2,84.8 40.1,84.8 Z" id="Path" fill="#AEC8CE"></path>
                <path d="M39.1,86.3 C39.1,86.3 39.1,86.3 39.1,86.3 C39,86.3 39,86.2 39,86.2 C39,86 41.2,63.7 31,51.1 C31,51 31,51 31,50.9 C31.1,50.9 31.1,50.9 31.2,50.9 C41.5,63.6 39.3,86 39.3,86.2 C39.2,86.3 39.2,86.3 39.1,86.3 Z" id="Path" fill="#AEC8CE"></path>
                <path d="M36.7,84.8 C36.7,84.8 36.7,84.8 36.7,84.8 C36.6,84.8 36.6,84.7 36.6,84.7 C36.6,84.7 36.9,82.3 35.9,79.3 C34.9,76.6 32.6,72.8 27,70.2 C26.9,70.2 26.9,70.1 26.9,70 C26.9,69.9 27,69.9 27.1,69.9 C32.8,72.5 35.2,76.4 36.2,79.2 C37.3,82.2 37,84.6 37,84.7 C36.9,84.7 36.8,84.8 36.7,84.8 Z" id="Path" fill="#AEC8CE"></path>
                <path d="M41.1,84.8 C41.1,84.8 41.1,84.8 41.1,84.8 C41,84.8 41,84.7 41,84.7 C41,84.6 42.2,78.8 47.3,77.4 C47.4,77.4 47.4,77.4 47.5,77.5 C47.5,77.6 47.5,77.6 47.4,77.7 C42.5,79 41.3,84.8 41.3,84.8 C41.2,84.7 41.1,84.8 41.1,84.8 Z" id="Path" fill="#AEC8CE"></path>
                <path d="M50,102.2 L29.4,102.2 C28.9,102.2 28.5,101.8 28.4,101.3 L25.7,81.7 C25.6,81.1 26.1,80.6 26.7,80.6 L52.7,80.6 C53.3,80.6 53.8,81.1 53.7,81.7 L51,101.3 C50.9,101.9 50.5,102.2 50,102.2 Z" id="Path" fill="#000000"></path>
                <path d="M55.5,91.8 C58.2,91.1 67.4,88.2 67.7,97.4 C67.9,102.4 59.6,104.6 53.6,103.9 C38.8,102 45.6,94.5 55.5,91.8 Z" id="Path" fill="#FFFFFF"></path>
                <path d="M137.5,15.1 C135.7,17.5 132.8,17.2 130.4,15.4 C128,13.6 126.9,10.9 128.7,8.5 C130.5,6.1 134,5.6 136.4,7.4 C138.9,9.2 139.4,12.7 137.5,15.1 Z" id="Path" fill="#EDF3F4"></path>
                <circle id="Oval" fill="#EDF3F4" cx="13.5" cy="30.1" r="3.5"></circle>
                <circle id="Oval" fill="#EDF3F4" cx="7.5" cy="45.1" r="2.5"></circle>
                <circle id="Oval" fill="#EDF3F4" cx="1.5" cy="35.1" r="1.5"></circle>
                <circle id="Oval" fill="#EDF3F4" cx="10.5" cy="59.1" r="1.5"></circle>
            </g>
        </g>
    </g>
</svg>