<svg xmlns="http://www.w3.org/2000/svg" width="26" height="26" viewBox="0 0 26 26">
    <g fill="none" fill-rule="evenodd">
        <g fill="#000" fill-rule="nonzero">
            <path d="M12.561 8.423a3.835 3.835 0 0 0-3.83 3.831 3.836 3.836 0 0 0 3.83 3.831 3.835 3.835 0 0 0 3.831-3.83 3.835 3.835 0 0 0-3.83-3.832zm2.275 3.11l-2.745 2.744a.588.588 0 0 1-.834 0l-1.049-1.049a.59.59 0 1 1 .834-.834l.632.632 2.328-2.328a.59.59 0 1 1 .834.835z"/>
            <path d="M21.103 7.656V7.64a20.959 20.959 0 0 1-.019-.625 2.131 2.131 0 0 0-2.007-2.088c-2.311-.129-4.1-.882-5.628-2.372l-.013-.012a1.287 1.287 0 0 0-1.749 0l-.013.012c-1.528 1.49-3.316 2.243-5.628 2.373a2.131 2.131 0 0 0-2.007 2.087c-.003.226-.01.43-.018.625v.036c-.046 2.358-.102 5.292.88 7.955a10.126 10.126 0 0 0 2.429 3.784c1.221 1.191 2.82 2.137 4.754 2.812a1.47 1.47 0 0 0 .76.053c.067-.014.133-.032.196-.054 1.931-.675 3.529-1.622 4.749-2.813a10.14 10.14 0 0 0 2.43-3.785c.984-2.67.929-5.61.884-7.972zm-8.542 9.61a5.017 5.017 0 0 1-5.01-5.012 5.017 5.017 0 0 1 5.01-5.01 5.017 5.017 0 0 1 5.011 5.01 5.017 5.017 0 0 1-5.01 5.011z"/>
        </g>
        <path d="M1 .4h24v24H1z" opacity=".493"/>
    </g>
</svg>
