<?xml version="1.0" encoding="UTF-8"?>
<svg width="185px" height="120px" viewBox="0 0 185 120" version="1.1" xmlns="http://www.w3.org/2000/svg" xmlns:xlink="http://www.w3.org/1999/xlink">
    <!-- Generator: Sketch 52.3 (67297) - http://www.bohemiancoding.com/sketch -->
    <title>Withdraw saving@3x</title>
    <desc>Created with Sketch.</desc>
    <g id="Withdraw-saving" stroke="none" stroke-width="1" fill="none" fill-rule="evenodd">
        <g id="Group-10">
            <g transform="translate(16.000000, 8.000000)">
                <path d="M42,6 C82.5,-10.6 104,14 91.5,45.5 C78.3,78.7 180.8,38.6 144,89 C108.8,137.3 -69.5,51.6 42,6 Z" id="Path" fill="#EDF3F4"></path>
                <path d="M63.4,101.7 L60,101.7 C58.7,101.7 57.7,100.7 57.7,99.4 L57.7,96 C57.7,94.7 58.7,93.7 60,93.7 L63.4,93.7 C64.7,93.7 65.7,94.7 65.7,96 L65.7,99.4 C65.7,100.7 64.6,101.7 63.4,101.7 Z" id="Path" fill="#000000"></path>
                <path d="M23.4,101.7 L20,101.7 C18.7,101.7 17.7,100.7 17.7,99.4 L17.7,96 C17.7,94.7 18.7,93.7 20,93.7 L23.4,93.7 C24.7,93.7 25.7,94.7 25.7,96 L25.7,99.4 C25.7,100.7 24.6,101.7 23.4,101.7 Z" id="Path" fill="#000000"></path>
                <path d="M74.7,99.4 L8.7,99.4 C4.3,99.4 0.7,95.8 0.7,91.4 L0.7,25.4 C0.7,21 4.3,17.4 8.7,17.4 L74.7,17.4 C79.1,17.4 82.7,21 82.7,25.4 L82.7,91.4 C82.7,95.9 79.1,99.4 74.7,99.4 Z" id="Path" fill="#78EACC"></path>
                <path d="M66.8,87.9 L16.6,87.9 C13.3,87.9 10.7,85.3 10.7,82 L10.7,34.8 C10.7,31.5 13.3,28.9 16.6,28.9 L66.8,28.9 C70.1,28.9 72.7,31.5 72.7,34.8 L72.7,82 C72.7,85.3 70,87.9 66.8,87.9 Z" id="Path" fill="#000000"></path>
                <g id="Group" opacity="0.4" transform="translate(14.000000, 59.000000)" fill="#FFFFFF">
                    <rect id="Rectangle" x="0.6" y="0.8" width="58" height="1"></rect>
                </g>
                <path d="M45.7,95.3 L16.5,90.4 C13.1,89.8 10.7,86.9 10.7,83.5 L10.7,33.4 C10.7,30 13.2,27.1 16.5,26.5 L45.7,21.6 C49.4,21 52.7,23.8 52.7,27.5 L52.7,89.3 C52.7,93.1 49.3,95.9 45.7,95.3 Z" id="Path" fill="#EDF3F4"></path>
                <path d="M10.7,49.6 C9.6,49.6 8.7,48.7 8.7,47.6 L8.7,40.6 C8.7,39.5 9.6,38.6 10.7,38.6 C11.8,38.6 12.7,39.5 12.7,40.6 L12.7,47.6 C12.7,48.7 11.8,49.6 10.7,49.6 Z" id="Path" fill="#FFFFFF"></path>
                <path d="M10.7,78.3 C9.6,78.3 8.7,77.4 8.7,76.3 L8.7,69.3 C8.7,68.2 9.6,67.3 10.7,67.3 C11.8,67.3 12.7,68.2 12.7,69.3 L12.7,76.3 C12.7,77.4 11.8,78.3 10.7,78.3 Z" id="Path" fill="#FFFFFF"></path>
                <path d="M52.7,28.9 L55.7,30.1 C56.8,30.6 57.6,31.7 57.6,32.9 L57.6,83.9 C57.6,85.1 56.9,86.2 55.7,86.7 L52.7,87.9 L52.7,28.9 Z" id="Path" fill="#C1D4D9"></path>
                <circle id="Oval" fill="#000000" cx="57" cy="42.4" r="2.5"></circle>
                <circle id="Oval" fill="#EDF3F4" cx="58" cy="42.4" r="2.5"></circle>
                <circle id="Oval" fill="#000000" cx="57" cy="74.4" r="2.5"></circle>
                <circle id="Oval" fill="#EDF3F4" cx="58" cy="74.4" r="2.5"></circle>
                <ellipse id="Oval" fill="#C1D4D9" cx="31.7" cy="58.4" rx="4.5" ry="7.5"></ellipse>
                <ellipse id="Oval" fill="#000000" cx="31.7" cy="58.4" rx="3" ry="5"></ellipse>
                <ellipse id="Oval" fill="#78EACC" cx="30.7" cy="58.4" rx="3" ry="5"></ellipse>
                <g id="Add_funds" transform="translate(110.000000, 70.000000)">
                    <path d="M37.8,32.7 L1.9,32.7 C1,32.7 0.3,32 0.3,31.1 L0.3,5.6 L37.8,5.6 C38.7,5.6 39.4,6.3 39.4,7.2 L39.4,31.1 C39.4,32 38.7,32.7 37.8,32.7 Z" id="Path" fill="#C1D4D9"></path>
                    <path d="M39.5,23.7 L26.3,23.7 C25.4,23.7 24.7,23 24.7,22.1 L24.7,16.3 C24.7,15.4 25.4,14.7 26.3,14.7 L39.5,14.7 C39.9,14.7 40.3,15.1 40.3,15.5 L40.3,22.9 C40.3,23.4 40,23.7 39.5,23.7 Z" id="Path" fill="#EDF3F4"></path>
                    <path d="M35.7,5.6 L0.3,5.6 L0.3,2 C0.3,1.1 1,0.4 1.9,0.4 L34.1,0.4 C35,0.4 35.7,1.1 35.7,2 L35.7,5.6 Z" id="Path" fill="#000000"></path>
                    <circle id="Oval" fill="#000000" cx="29.1" cy="19.2" r="1.7"></circle>
                </g>
                <ellipse id="Oval" fill="#78EACC" cx="29.7" cy="58.4" rx="3" ry="5"></ellipse>
                <ellipse id="Oval" fill="#78EACC" cx="28.7" cy="58.4" rx="3" ry="5"></ellipse>
                <path d="M119.2,76.1 C119.1,76.1 119.1,76.1 119,76.1 L67.9,58.4 C67.6,58.3 67.5,58 67.6,57.8 C67.7,57.5 68,57.4 68.2,57.5 L119.3,75.2 C119.6,75.3 119.7,75.6 119.6,75.8 C119.7,75.9 119.5,76.1 119.2,76.1 Z" id="Path" fill="#C1D4D9"></path>
                <path d="M124,89.7 C123.8,88.2 122.5,87.7 120.9,87.6 L120.9,85.5 L119.6,85.5 L119.6,87.5 C119.3,87.5 118.9,87.5 118.6,87.5 L118.6,85.5 L117.3,85.5 L117.3,87.6 C117,87.6 116.8,87.6 116.5,87.6 L114.8,87.6 L114.8,89 C114.8,89 115.7,89 115.7,89 C116.2,89 116.4,89.3 116.4,89.5 L116.4,91.9 C116.4,91.9 116.5,91.9 116.5,91.9 C116.5,91.9 116.4,91.9 116.4,91.9 L116.4,95.2 C116.4,95.4 116.3,95.6 115.9,95.6 C115.9,95.6 115,95.6 115,95.6 L114.8,97.1 L116.4,97.1 C116.7,97.1 117,97.1 117.3,97.1 L117.3,99.2 L118.6,99.2 L118.6,97.1 C118.9,97.1 119.3,97.1 119.6,97.1 L119.6,99.2 L120.9,99.2 L120.9,97.1 C123,96.9 124.5,96.4 124.7,94.4 C124.8,92.8 124.1,92.1 122.8,91.8 C123.7,91.4 124.1,90.8 124,89.7 Z M122.3,94.2 C122.3,95.8 119.6,95.6 118.8,95.6 L118.8,92.8 C119.6,92.8 122.3,92.5 122.3,94.2 Z M121.7,90.3 C121.7,91.7 119.5,91.6 118.8,91.6 L118.8,89.1 C119.4,89 121.7,88.8 121.7,90.3 Z" id="Shape" fill="#FFFFFF" fill-rule="nonzero"></path>
                <g id="Group" transform="translate(70.000000, 48.000000)">
                    <circle id="Oval" fill="#C1D4D9" cx="7.1" cy="6.3" r="6"></circle>
                    <path d="M7.1,12.5 C3.7,12.5 0.9,9.7 0.9,6.3 C0.9,2.9 3.7,0.1 7.1,0.1 C10.5,0.1 13.3,2.9 13.3,6.3 C13.3,9.7 10.6,12.5 7.1,12.5 Z M7.1,0.5 C3.9,0.5 1.3,3.1 1.3,6.3 C1.3,9.5 3.9,12.1 7.1,12.1 C10.3,12.1 12.9,9.5 12.9,6.3 C12.9,3.1 10.3,0.5 7.1,0.5 Z" id="Shape" fill="#FFFFFF" fill-rule="nonzero"></path>
                </g>
                <g id="Group" transform="translate(91.000000, 55.000000)">
                    <circle id="Oval" fill="#C1D4D9" cx="7.1" cy="6.7" r="6"></circle>
                    <path d="M7.1,13 C3.7,13 0.9,10.2 0.9,6.8 C0.9,3.4 3.7,0.6 7.1,0.6 C10.5,0.6 13.3,3.4 13.3,6.8 C13.3,10.2 10.6,13 7.1,13 Z M7.1,1 C3.9,1 1.3,3.6 1.3,6.8 C1.3,10 3.9,12.6 7.1,12.6 C10.3,12.6 12.9,10 12.9,6.8 C12.9,3.6 10.3,1 7.1,1 Z" id="Shape" fill="#FFFFFF" fill-rule="nonzero"></path>
                </g>
                <path d="M138.6,26.6 C142.9,34.1 138.5,40.6 131,44.9 C123.5,49.2 115.6,49.5 111.4,42 C107.1,34.5 109.8,24.9 117.3,20.7 C124.8,16.4 134.4,19.1 138.6,26.6 Z" id="Path" fill="#EDF3F4"></path>
                <path d="M80.7,103.3 L104.2,103.3 C104.2,103.3 100.6,99.8 104.2,94.7 C104.2,94.7 99.6,96.2 98.6,99.3 C98.6,99.3 99.8,93.1 96.7,90.7 C96.7,90.7 97.7,98.2 94.9,100.8 C94.9,100.8 96.2,95.5 92.4,93.9 C92.4,93.9 93.4,99.2 90.2,101 C90.2,101 87.7,99.6 88,96.9 C88,96.9 85.6,98.7 85.8,101 C85.8,101 85.9,94.8 80.2,92.4 C80.1,92.4 83.3,100 80.7,103.3 Z" id="Path" fill="#FFFFFF"></path>
            </g>
        </g>
    </g>
</svg>