<svg width="24px" height="24px" viewBox="0 0 24 24" version="1.1" xmlns="http://www.w3.org/2000/svg" xmlns:xlink="http://www.w3.org/1999/xlink">
    <!-- Generator: Sketch 51.2 (57519) - http://www.bohemiancoding.com/sketch -->
    <desc>Created with Sketch.</desc>
    <defs></defs>
    <g id="Verification,-buy-&amp;-convert" stroke="none" stroke-width="1" fill="none" fill-rule="evenodd">
        <g id="Artboard-3">
            <g id="Eur">
                <circle id="Oval-4" fill="#1D539B" cx="12" cy="12" r="12"></circle>
                <g id="if_euro_1608680" stroke-width="1" transform="translate(6.000000, 6.000000)" fill="#FFFFFF">
                    <path d="M9.64426877,10.8856534 L9.99011858,12.3536932 C10.0098814,12.4275568 10,12.496804 9.96047431,12.5614347 C9.92094862,12.6260653 9.86495389,12.6706913 9.79249012,12.6953125 L9.743083,12.7045455 C9.71673254,12.7168561 9.68214756,12.7276278 9.63932806,12.7368608 C9.59650856,12.7460937 9.54380764,12.7599432 9.4812253,12.7784091 C9.41864295,12.796875 9.34782609,12.8138021 9.2687747,12.8291903 C9.18972332,12.8445786 9.10573123,12.8599669 9.01679842,12.8753551 C8.92786561,12.8907434 8.82905138,12.9061316 8.72035573,12.9215199 C8.61166008,12.9369081 8.50131752,12.9507576 8.38932806,12.9630682 C8.2773386,12.9753788 8.15711462,12.9846117 8.02865613,12.990767 C7.90019763,12.9969223 7.77338603,13 7.64822134,13 C6.10671937,13 4.75955204,12.5983665 3.60671937,11.7950994 C2.45388669,10.9918324 1.66996047,9.91003788 1.25494071,8.54971591 L0.316205534,8.54971591 C0.230566535,8.54971591 0.156455863,8.52047822 0.0938735178,8.46200284 C0.0312911726,8.40352746 0,8.3342803 0,8.25426136 L0,7.2109375 C0,7.13091856 0.0312911726,7.0616714 0.0938735178,7.00319602 C0.156455863,6.94472064 0.230566535,6.91548295 0.316205534,6.91548295 L0.968379447,6.91548295 C0.955204216,6.56463068 0.958498024,6.24147727 0.97826087,5.94602273 L0.316205534,5.94602273 C0.22397892,5.94602273 0.148221344,5.91832386 0.0889328063,5.86292614 C0.0296442688,5.80752841 0,5.73674242 0,5.65056818 L0,4.59801136 C0,4.51183712 0.0296442688,4.44105114 0.0889328063,4.38565341 C0.148221344,4.33025568 0.22397892,4.30255682 0.316205534,4.30255682 L1.28458498,4.30255682 C1.7259552,3.00994318 2.52799736,1.96969697 3.69071146,1.18181818 C4.85342556,0.393939394 6.17259552,0 7.64822134,0 C8.3201581,0 8.95915679,0.0707859848 9.56521739,0.212357955 C9.63768116,0.230823864 9.70355731,0.276988636 9.76284585,0.350852273 C9.80237154,0.418560606 9.81225296,0.492424242 9.79249012,0.572443182 L9.36758893,2.04048295 C9.34782609,2.12050189 9.30171278,2.1805161 9.22924901,2.22052557 C9.15678524,2.26053504 9.07773386,2.26822917 8.99209486,2.24360795 L8.95256917,2.234375 C8.92621871,2.2282197 8.88833992,2.22052557 8.83893281,2.21129261 L8.66600791,2.17897727 L8.44367589,2.14666193 L8.18675889,2.11896307 L7.90019763,2.09588068 L7.60869565,2.08664773 C6.77865613,2.08664773 6.0342556,2.28361742 5.37549407,2.67755682 C4.71673254,3.07149621 4.2226614,3.61316288 3.89328063,4.30255682 L8.51778656,4.30255682 C8.62318841,4.30255682 8.7055336,4.33948864 8.76482213,4.41335227 C8.83069829,4.48721591 8.85375494,4.56723485 8.83399209,4.65340909 L8.59683794,5.70596591 C8.56389987,5.86600379 8.45849802,5.94602273 8.28063241,5.94602273 L3.45849802,5.94602273 C3.43873518,6.17376894 3.43873518,6.49692235 3.45849802,6.91548295 L7.99407115,6.91548295 C8.09288538,6.91548295 8.17523057,6.95241477 8.24110672,7.02627841 C8.30039526,7.10014205 8.3201581,7.18323864 8.30039526,7.27556818 L8.06324111,8.30965909 C8.05006588,8.37736742 8.01383399,8.43430398 7.95454545,8.48046875 C7.89525692,8.52663352 7.82938076,8.54971591 7.756917,8.54971591 L3.93280632,8.54971591 C4.24901186,9.26988636 4.7414361,9.84079072 5.41007905,10.262429 C6.078722,10.6840672 6.83135705,10.8948864 7.66798419,10.8948864 C7.78656126,10.8948864 7.90513834,10.8902699 8.02371542,10.8810369 C8.14229249,10.871804 8.25263505,10.8610322 8.35474308,10.8487216 C8.45685112,10.836411 8.55401845,10.8225616 8.64624506,10.8071733 C8.73847167,10.791785 8.81916996,10.7763968 8.88833992,10.7610085 C8.95750988,10.7456203 9.01844532,10.7317708 9.07114625,10.7194602 L9.18972332,10.6917614 L9.23913043,10.6732955 C9.32476943,10.6425189 9.41040843,10.6486742 9.49604743,10.6917614 C9.57509881,10.7348485 9.62450593,10.7994792 9.64426877,10.8856534 Z" id="Shape" fill-rule="nonzero"></path>
                </g>
            </g>
        </g>
    </g>
</svg>