<?xml version="1.0" encoding="UTF-8"?>
<svg width="285px" height="215px" viewBox="0 0 285 215" version="1.1" xmlns="http://www.w3.org/2000/svg" xmlns:xlink="http://www.w3.org/1999/xlink">
    <!-- Generator: Sketch 52.3 (67297) - http://www.bohemiancoding.com/sketch -->
    <title>Buy and trade cryptocurrencies@3x</title>
    <desc>Created with Sketch.</desc>
    <g id="Buy-and-trade-cryptocurrencies" stroke="none" stroke-width="1" fill="none" fill-rule="evenodd">
        <g>
            <g id="Group-5" transform="translate(28.000000, 31.000000)">
                <path d="M199.3,85.5 C242.9,84.5 247.2,135 218.3,151.8 C183.5,172 91.3,163.7 57.8,142.7 C-6.9,102.1 23.6,-5.3 106.8,31.4 C154.6,52.4 138.9,86.9 199.3,85.5 Z" id="Path" fill="#EDF3F4"></path>
                <path d="M0.2,87.9 C0.2,87.9 41.7,102.9 57.2,143 C57.2,143 20.8,128.8 0.2,87.9 Z" id="Path" fill="#C1D4D9"></path>
                <path d="M54.1,136 C43.5,114.6 25.7,101.4 13.5,94.3 C21.6,109.3 33.5,126.7 49.5,139.2 C52.9,141.1 55.3,142.2 56.5,142.7 C56,141.2 55.2,138.9 54.1,136 Z" id="Path" fill="#000000" opacity="0.201653"></path>
                <path d="M3.2,59.1 C3.2,59.1 18.5,116.4 57.2,143 C57.2,143 40,76.1 3.2,59.1 Z" id="Path" fill="#C1D4D9"></path>
                <path d="M55.8,138.1 C56.1,139.5 56.3,141 56.6,142.6 C56.6,142.6 56.7,142.7 56.7,142.7 C56.7,142.1 56.6,141.5 56.6,140.9 C56.4,140.1 56.1,139.2 55.8,138.1 Z" id="Path" fill="#000000"></path>
                <path d="M24.1,80.6 C25.5,80.7 26.9,80.7 28.2,80.7 C25.2,76.7 21.9,73 18.4,69.7 C13.9,72 15.8,80 24.1,80.6 Z" id="Path" fill="#000000" opacity="0.201653"></path>
                <path d="M34.1,98.9 C36,98.2 37.8,98 39.3,98.1 C38,95.6 36.5,93.2 35,90.7 C31.9,89.9 28.1,88.6 24.8,91.1 C19.5,95.1 24.4,102.3 34.1,98.9 Z" id="Path" fill="#000000" opacity="0.201653"></path>
                <path d="M51.2,124.6 C49.5,120.1 47.5,115.1 45.1,109.9 C43.3,110 40.7,109.4 37.5,108.4 C26.1,104.7 26.4,119.2 38.4,118.8 C44.6,118.6 48.5,120.6 51.2,124.6 Z" id="Path" fill="#000000" opacity="0.201653"></path>
                <path d="M57.2,143 C57.2,143 54.1,127.2 61.6,115.4 C69.1,103.6 72.5,99.6 70.1,93.1 C68.2,88 60.5,90 61.8,96 C62.9,101.1 57.2,104.5 53.6,101.1 C48.3,96 52.1,83.8 60.5,82.2 C72.1,79.9 70.1,68.4 62.2,68.9 C55.9,69.3 52.4,80.9 48.2,80.8 C41.8,80.6 46.6,68.3 50.9,64.1 C60.5,54.9 53.2,48.1 46.1,53.9 C42.3,57 37.8,68.5 34.3,53.6 C31.6,42.1 23,34.7 18,41 C13,47.4 18.8,56.2 26.2,59.5 C33.6,62.8 34.7,68 23.2,65.9 C13.5,64.1 13.8,76.5 24.3,77.2 C34.8,77.9 41.7,75.1 40.5,85.2 C39.7,91.9 31.3,83.1 25,87.8 C19.8,91.7 24.6,99 34.3,95.5 C42.2,92.7 46.5,97.9 47.6,102.2 C49,107.7 44.7,107.3 37.8,105.1 C26.4,101.4 26.7,115.9 38.7,115.5 C51.8,114.8 54.4,124.4 57.2,143 Z" id="Path" fill="#C1D4D9"></path>
                <path d="M139.6,162.8 C126.9,137.6 101.1,118.9 101.1,118.9 C86.8,120.1 66,132.3 56.1,138.6 L55.3,140.4 C62.1,144.5 69.2,148.1 76.5,151.3 C94,157.3 116.8,161.4 139.6,162.8 Z" id="Path" fill="#78EACC"></path>
                <path d="M57.2,143.5 C56.9,143.5 56.7,143.3 56.7,143 C56.7,142.4 52.3,79.7 24.5,49.7 C24.3,49.5 24.3,49.2 24.5,49 C24.7,48.8 25,48.8 25.2,49 C53.3,79.2 57.6,142.3 57.7,142.9 C57.7,143.2 57.5,143.5 57.2,143.5 C57.2,143.5 57.2,143.5 57.2,143.5 Z" id="Path" fill="#AEC8CE"></path>
                <path d="M121.4,68.5 C121.4,68.5 131.8,85.7 128.3,106.7 C127.8,109.6 125.6,112 122.7,112.5 C119.5,113.1 114.7,113.4 108.5,111.9 C108.5,111.9 108.7,121.2 103.6,132.7 C103.6,132.7 95.5,132.5 90.6,122.2 C90.6,122.2 92.3,120.3 91.7,116.8 L78.9,88.7 L77.6,72.3 L95,65.3 L114,62.9 L121.4,68.5" id="Path" fill="#FFFFFF"></path>
                <path d="M106.4,76.6 C115.4,74.1 131.1,66.9 126.4,47.9 C126.4,47.9 118.1,55 98.5,52.3 C71.2,48.5 56.5,90.6 91.7,116.9 C91.7,116.9 98.5,96 93.6,94.2 C83.6,90.5 85.1,81.1 91.4,81.7 C97.3,82.2 99,94.3 99,94.3 L100.6,93.7 C102.1,93.1 103.1,91.6 102.8,89.9 L101.7,84.1 C101.1,80.8 103.1,77.5 106.4,76.6 Z" id="Path" fill="#000000"></path>
                <path d="M108.5,112 C108.5,112 102,109.7 99.1,105.4 C99.1,105.4 102.5,112.5 108.4,114.2 L108.5,112 Z" id="Path" fill="#000000" opacity="0.201653"></path>
                <circle id="Oval" fill="#C1D4D9" transform="translate(164.872020, 16.500560) rotate(-66.434269) translate(-164.872020, -16.500560) " cx="164.87202" cy="16.50056" r="12.4999725"></circle>
                <path d="M168.6,14 C168.5,12.6 167.3,12.1 165.8,12 L165.8,10.1 L164.6,10.1 L164.6,12 C164.3,12 164,12 163.7,12 L163.7,10.1 L162.5,10.1 L162.5,12 C162.2,12 162,12 161.8,12 L160.2,12 L160.2,13.3 C160.2,13.3 161.1,13.3 161.1,13.3 C161.6,13.3 161.7,13.6 161.8,13.8 L161.8,16 C161.8,16 161.9,16 161.9,16 C161.9,16 161.8,16 161.8,16 L161.8,19.1 C161.8,19.2 161.7,19.5 161.4,19.5 C161.4,19.5 160.5,19.5 160.5,19.5 L160.3,20.9 L161.8,20.9 C162.1,20.9 162.4,20.9 162.6,20.9 L162.6,22.9 L163.8,22.9 L163.8,21 C164.1,21 164.4,21 164.7,21 L164.7,22.9 L165.9,22.9 L165.9,20.9 C167.9,20.8 169.3,20.3 169.5,18.5 C169.7,17 169,16.3 167.8,16 C168.2,15.6 168.7,15 168.6,14 Z M166.9,18.2 C166.9,19.7 164.4,19.5 163.6,19.5 L163.6,16.9 C164.4,16.8 166.9,16.6 166.9,18.2 Z M166.4,14.5 C166.4,15.8 164.3,15.7 163.6,15.6 L163.6,13.2 C164.3,13.3 166.4,13.1 166.4,14.5 Z" id="Shape" fill="#FFFFFF" fill-rule="nonzero"></path>
                <circle id="Oval" fill="#C1D4D9" transform="translate(202.649460, 16.466580) rotate(-66.434269) translate(-202.649460, -16.466580) " cx="202.64946" cy="16.46658" r="12.4999725"></circle>
                <polygon id="Path" fill="#FFFFFF" points="198.3 16.5 202.7 9.7 206.9 16.6 202.5 19"></polygon>
                <polygon id="Path" fill="#FFFFFF" points="202.7 9.7 206.9 16.6 202.5 19"></polygon>
                <polygon id="Path" fill="#FFFFFF" points="198.3 17.4 202.6 19.9 207 17.5 202.6 23.3"></polygon>
                <polygon id="Path" fill="#FFFFFF" points="202.6 19.9 207 17.5 202.6 23.3"></polygon>
                <circle id="Oval" fill="#C1D4D9" transform="translate(164.924200, 59.766100) rotate(-66.434269) translate(-164.924200, -59.766100) " cx="164.9242" cy="59.7661" r="12.4999725"></circle>
                <path d="M168.8,64.3 C168.8,64.3 168.8,64.3 168.8,64.3 C168.5,64 168.3,63.8 168.1,63.6 C167.9,63.4 167.8,63.3 167.6,63.1 C167.4,62.9 167.3,62.8 167.1,62.6 C166.9,62.4 166.8,62.3 166.6,62.1 C166.5,62 166.3,61.8 166.2,61.7 C165.9,61.5 165.5,61.3 165.2,61.3 C164.8,61.3 164.5,61.3 164.2,61.5 C164,61.6 163.9,61.7 163.7,61.8 C163.5,62 163.2,62.3 163,62.5 C162.8,62.7 162.7,62.8 162.5,63 C162.3,63.2 162.2,63.3 162,63.5 C161.8,63.7 161.7,63.8 161.5,64 C161.4,64.1 161.3,64.2 161.3,64.2 C161.3,64.2 161.3,64.2 161.3,64.2 C160.8,64.2 160.3,64.2 159.7,64.2 C159.7,64.2 159.7,64.2 159.7,64.2 C159.7,64.2 159.7,64.2 159.7,64.2 C159.8,64.1 160,63.9 160.1,63.8 C160.3,63.6 160.5,63.4 160.6,63.3 C160.8,63.1 160.9,63 161.1,62.8 C161.3,62.6 161.4,62.5 161.6,62.3 C161.8,62.1 161.9,62 162.1,61.8 C162.3,61.6 162.4,61.5 162.6,61.3 C162.8,61.1 163,60.9 163.2,60.8 C163.6,60.5 164,60.3 164.5,60.2 C164.7,60.2 165,60.1 165.2,60.1 C165.9,60.1 166.5,60.4 167.1,60.9 C167.2,60.9 167.2,61 167.3,61 C167.5,61.2 167.8,61.5 168,61.7 C168.2,61.9 168.3,62 168.5,62.2 C168.7,62.4 168.8,62.5 169,62.7 C169.2,62.9 169.3,63 169.5,63.2 C169.7,63.4 169.8,63.5 170,63.7 C170.2,63.9 170.3,64 170.5,64.2 C170.5,64.2 170.5,64.2 170.5,64.2 C170.5,64.2 170.5,64.2 170.5,64.2 C169.8,64.3 169.3,64.3 168.8,64.3 Z" id="Path" fill="#FFFFFF"></path>
                <path d="M161,55.2 C161.1,55.3 161.2,55.4 161.3,55.5 C161.4,55.6 161.6,55.8 161.7,55.9 C161.9,56.1 162.1,56.3 162.3,56.5 C162.5,56.7 162.6,56.8 162.8,57 C163,57.2 163.1,57.3 163.3,57.5 C163.5,57.6 163.6,57.8 163.8,57.9 C164.1,58.1 164.3,58.2 164.7,58.2 C165.1,58.2 165.5,58.2 165.8,58 C166,57.9 166.1,57.8 166.3,57.7 C166.5,57.5 166.8,57.2 167,57 C167.2,56.8 167.3,56.7 167.5,56.5 C167.7,56.3 167.8,56.2 168,56 C168.2,55.8 168.3,55.7 168.5,55.5 C168.6,55.4 168.7,55.3 168.8,55.3 C168.8,55.3 168.8,55.3 168.8,55.3 C169.3,55.3 169.9,55.3 170.4,55.3 C170.2,55.5 170.1,55.6 169.9,55.8 C169.7,56 169.6,56.1 169.4,56.3 C169.2,56.5 169.1,56.6 168.9,56.8 C168.7,57 168.6,57.1 168.4,57.3 C168.2,57.5 168.1,57.6 167.9,57.8 C167.7,58 167.6,58.1 167.4,58.3 C167.2,58.5 167,58.7 166.8,58.8 C166.4,59.1 165.9,59.3 165.4,59.4 C164.8,59.5 164.3,59.4 163.7,59.2 C163.4,59.1 163.1,58.9 162.8,58.6 C162.7,58.5 162.6,58.4 162.5,58.3 C162.2,58 161.9,57.7 161.7,57.5 C161.5,57.3 161.3,57.1 161,56.8 C160.8,56.6 160.7,56.5 160.5,56.3 C160.3,56.1 160.1,56 160,55.8 C159.8,55.6 159.7,55.5 159.5,55.3 C159.5,55.3 159.5,55.3 159.4,55.2 C159.9,55.2 160.5,55.2 161,55.2 Z" id="Path" fill="#FFFFFF"></path>
                <circle id="Oval" fill="#C1D4D9" transform="translate(202.701640, 59.732120) rotate(-66.434269) translate(-202.701640, -59.732120) " cx="202.70164" cy="59.73212" r="12.4999725"></circle>
                <polyline id="Path" fill="#FFFFFF" points="201.6 62.5 202.3 59.8 204 59.2 204.4 57.6 204.4 57.6 202.7 58.2 203.9 53.7 200.5 53.7 198.9 59.6 197.6 60.1 197.2 61.7 198.5 61.2 197.6 64.7 206.6 64.7 207.2 62.5 201.6 62.5"></polyline>
                <path d="M56.8,130.6 C65.4,131 84.6,136.1 74.9,149.9 C70.1,156.6 60.7,155.7 54.4,151.7 C41.6,143.4 45.6,130.1 56.8,130.6 Z" id="Path" fill="#FFFFFF"></path>
                <path d="M91.7,8 C87.4,7.5 83.5,10.6 83,14.9 C82.5,19.2 85.8,21.5 90.1,22 C94.4,22.5 98.1,20.9 98.6,16.7 C99.1,12.4 96,8.5 91.7,8 Z" id="Path" fill="#EDF3F4"></path>
                <path d="M113.5,19.6 C110.2,19.2 107.2,21.6 106.9,24.9 C106.5,28.2 109,30 112.3,30.3 C115.6,30.7 118.4,29.5 118.8,26.2 C119.2,23 116.8,20 113.5,19.6 Z" id="Path" fill="#EDF3F4"></path>
                <circle id="Oval" fill="#C1D4D9" transform="translate(164.884620, 102.991560) rotate(-66.434269) translate(-164.884620, -102.991560) " cx="164.88462" cy="102.99156" r="12.4999725"></circle>
                <path d="M171.2,100.4 C171.2,100.2 171.1,100 171,99.8 C170.9,99.6 170.8,99.5 170.5,99.4 C170.3,99.3 170.1,99.3 169.8,99.3 L161,99.3 L160.4,101.2 L168.4,101.2 L167.1,105.1 L166.5,105.1 L161.9,105.1 L159.1,105.1 L158.5,107 L167.4,107 C167.6,107 167.9,106.9 168.2,106.9 C168.4,106.8 168.7,106.6 169,106.4 C169.2,106.2 169.4,106 169.6,105.8 C169.8,105.6 169.9,105.3 170,105.1 L171.2,101.4 C171.2,101 171.3,100.7 171.2,100.4 Z" id="Path" fill="#FFFFFF"></path>
                <polygon id="Path" fill="#FFFFFF" points="163 103.9 163.6 102.2 158.9 102.2 158.2 103.9"></polygon>
                <circle id="Oval" fill="#C1D4D9" transform="translate(202.663960, 102.960480) rotate(-66.434269) translate(-202.663960, -102.960480) " cx="202.66396" cy="102.96048" r="12.4999725"></circle>
                <path d="M203.9,103.6 C203.8,103.6 203.5,103.6 202.7,103.6 C202.1,103.6 201.6,103.6 201.5,103.6 C199.1,103.5 197.3,103.1 197.3,102.6 C197.3,102.1 199.1,101.7 201.5,101.6 L201.5,103.2 C201.7,103.2 202.1,103.2 202.7,103.2 C203.5,103.2 203.8,103.2 203.9,103.2 L203.9,101.6 C206.3,101.7 208.1,102.1 208.1,102.6 C208.1,103.1 206.3,103.5 203.9,103.6 M203.9,101.4 L203.9,99.9 L207.3,99.9 L207.3,97.7 L198.1,97.7 L198.1,99.9 L201.5,99.9 L201.5,101.4 C198.8,101.5 196.7,102.1 196.7,102.7 C196.7,103.3 198.8,103.9 201.5,104 L201.5,108.7 L203.9,108.7 L203.9,104 C206.6,103.9 208.7,103.3 208.7,102.7 C208.7,102.1 206.6,101.5 203.9,101.4" id="Shape" fill="#FFFFFF" fill-rule="nonzero"></path>
            </g>
            <g id="Group" opacity="0.14" transform="translate(41.000000, 125.000000)"></g>
            <g id="Group" opacity="0.14" transform="translate(44.000000, 100.000000)">
                <g transform="translate(39.000000, 69.000000)"></g>
                <g></g>
                <g transform="translate(6.000000, 20.000000)"></g>
                <g transform="translate(13.000000, 38.000000)"></g>
            </g>
            <g id="Group" opacity="0.2" transform="translate(127.000000, 136.000000)"></g>
            <g id="Group" transform="translate(176.000000, 31.000000)"></g>
            <g id="Group" transform="translate(214.000000, 31.000000)" opacity="0.6">
                <g id="surface1" transform="translate(12.000000, 9.000000)">
                    <g id="Group"></g>
                    <g id="Group" transform="translate(0.000000, 8.000000)"></g>
                </g>
            </g>
            <g id="Group" transform="translate(176.000000, 74.000000)">
                <g transform="translate(11.000000, 12.000000)"></g>
            </g>
            <g id="Group" transform="translate(214.000000, 74.000000)"></g>
            <g id="Group" transform="translate(176.000000, 117.000000)">
                <g id="D_4_" transform="translate(10.000000, 13.000000)"></g>
                <g id="_x2D__4_" transform="translate(10.000000, 16.000000)"></g>
            </g>
            <g id="Group" transform="translate(214.000000, 117.000000)"></g>
        </g>
    </g>
</svg>