<?xml version="1.0" encoding="UTF-8"?>
<svg width="285px" height="215px" viewBox="0 0 285 215" version="1.1" xmlns="http://www.w3.org/2000/svg" xmlns:xlink="http://www.w3.org/1999/xlink">
    <!-- Generator: Sketch 52.3 (67297) - http://www.bohemiancoding.com/sketch -->
    <title>Customer support: dedicated support@3x</title>
    <desc>Created with Sketch.</desc>
    <g id="Customer-support:-dedicated-support" stroke="none" stroke-width="1" fill="none" fill-rule="evenodd">
        <g>
            <g id="Group-8" transform="translate(5.000000, 30.000000)">
                <path d="M91.9,23.1 C10.2,-14.8 -57.1,108.9 75.1,128.9 C187.9,146 165.6,156.5 165.6,156.5 C165.6,156.5 245.9,166.8 263.4,104.8 C275.5,62 259.6,20.2 207.5,18.3 C139.3,15.8 158.7,54.1 91.9,23.1 Z" id="Path" fill="#EDF3F4"></path>
                <path d="M173.2,74.5 L167.9,81.8 L172.4,103.3 L195.6,92.8 L192.3,71.1 C182.7,44.6 180.7,16.2 180.7,16.2 L140.7,22.5 C138,41.6 147.5,55.2 153.1,61.3 C155.4,63.8 158.8,64.9 162.1,64 C164.4,63.4 166.4,62.6 168.3,61.7 L173.2,74.5 Z" id="Path" fill="#FFFFFF"></path>
                <path d="M188.7,32.6 C188.7,32.6 195.9,12.7 180.7,7.3 C167.9,2.7 160.3,10.7 150.2,4.4 C139,-2.6 121.2,10.1 129.4,24.1 C135.8,35 151.3,28 160.4,24.2 C162.9,23.2 165.7,25 165.6,27.7 C165.6,30.7 166,34.4 167.8,37.8 L188.7,32.6 Z" id="Path" fill="#000000"></path>
                <path d="M25.2,135.1 C38.9,135.1 34.5,139.7 37.9,141.5 C55.5,150.8 98.2,152.5 151.7,154.8 C189.4,156.5 174.3,178.3 134.7,180.6 C60.3,185 -10.1,135.2 25.2,135.1 Z" id="Path" fill="#EDF3F4"></path>
                <path d="M189.5,62.2 C189.5,62.2 176.9,75.8 169.9,65.8 C169.9,65.8 165.9,71.1 159.7,72.6 C131.1,79.4 126.8,93.5 117.3,128.9 C117.3,128.9 150.3,180 241.8,143.7 C241.8,143.7 243.4,100.5 225,83.6 C204.4,64.6 192.9,72.7 189.5,62.2 Z" id="Path" fill="#78EACC"></path>
                <circle id="Oval" fill="#C1D4D9" cx="176.3" cy="35.2" r="13.1"></circle>
                <path d="M58.1,79.8 L50.3,43 C49.9,41 51.1,39.5 53,39.5 C62.5,39.5 91.7,43.7 116.1,53.2 C118,53.9 119.4,55.8 119.7,57.7 L123.2,78.2 C123.5,79.8 122.2,80.9 120.6,80.3 C111.9,77.4 87,69.5 70.9,66.7 C70.6,66.7 70.4,66.6 70.1,66.6 C65.1,66 61,68.9 59.8,73.4 L58.1,79.8 Z" id="Path" fill="#C1D4D9"></path>
                <path d="M138.8,176.1 L175.1,150.1 C176.9,148.6 176.3,145.6 173.9,145.1 L43.9,115.1 L131.2,169.8 L138.8,176.1 Z" id="Path" fill="#000000"></path>
                <path d="M23.5,72.7 C40.1,74.6 86.5,81.1 128.8,97 C131.4,98 133.3,100.3 133.7,103.1 L143.2,172.5 C143.4,174.3 142.1,176 140.2,176.1 C127.3,176.9 79.8,177.7 35.2,153.6 C33.6,152.8 32.5,151.2 32.2,149.5 L18.4,78.2 C17.8,75.1 20.4,72.3 23.5,72.7 Z" id="Path" fill="#FFFFFF"></path>
                <path d="M150.3,4.3 C152.9,2.1 155.8,0.9 158.8,0.9 C169.1,0.9 177.6,14.8 178.4,32.4 C178.5,33.9 177.2,35 175.7,34.8 C174.6,34.6 173.7,33.7 173.7,32.6 C173.1,17.9 166.1,6.2 157.5,6.2 C156.7,6.2 156.2,6.2 155.4,6.4 C155.4,6.4 153.5,5.8 153,5.6 C152.2,5.4 150.3,4.3 150.3,4.3 Z" id="Path" fill="#78EACC"></path>
                <path d="M174.3,39.6 C173,46.4 168.1,52 161.7,54.3 C161.1,54.5 160.7,55.2 160.9,55.9 C161.1,56.6 161.9,57 162.6,56.8 C169.9,54.2 175.4,47.9 176.9,40.2 C177.1,39.4 176.4,38.6 175.5,38.7 C174.9,38.6 174.4,39 174.3,39.6 Z" id="Path" fill="#78EACC"></path>
                <path d="M102.3,61.9 C102.6,63.4 101.6,64.7 100.2,64.7 C98.7,64.7 97.3,63.5 97,62 C96.7,60.5 97.7,59.2 99.1,59.2 C100.7,59.1 102.1,60.3 102.3,61.9 Z" id="Path" fill="#EDF3F4"></path>
                <path d="M89.4,59 C89.7,60.5 88.7,61.8 87.3,61.8 C85.8,61.8 84.4,60.6 84.1,59.1 C83.8,57.6 84.8,56.3 86.2,56.3 C87.7,56.3 89.1,57.5 89.4,59 Z" id="Path" fill="#EDF3F4"></path>
                <path d="M76.4,56.2 C76.7,57.7 75.7,59 74.3,59 C72.8,59 71.4,57.8 71.1,56.3 C70.8,54.8 71.8,53.5 73.2,53.5 C74.7,53.4 76.1,54.6 76.4,56.2 Z" id="Path" fill="#EDF3F4"></path>
                <circle id="Oval" fill="#EDF3F4" cx="176.3" cy="35.7" r="5.4"></circle>
                <path d="M174.3,56.2 L168.3,61.8 L169.4,64.8 C169.5,64.8 172,63.2 174.3,56.2 Z" id="Path" fill="#000000" opacity="0.196024"></path>
                <path d="M83.2,122.2 C83.9,125.8 81.6,128.7 78.1,128.7 C74.6,128.7 71.2,125.8 70.5,122.2 C69.8,118.6 72.1,115.7 75.6,115.7 C79.1,115.7 82.5,118.6 83.2,122.2 Z" id="Path" fill="#EDF3F4"></path>
                <path d="M208.4,160.5 C210.6,137.2 217.3,119 224.9,106.6 L233.5,109.3 L230,99.4 C232.1,96.8 234.2,94.6 236.2,92.8 C238.3,91 240.8,89.7 243.4,89.1 L248.1,97.7 L248.5,88.7 C251,88.9 253.5,89.7 255.7,91.1 C265.5,97.1 270.4,108.5 272.8,116.3 C273.6,118.9 273.7,121.6 273.3,124.2 L261.3,124.3 L271.7,128.9 C270.9,130.5 269.8,131.9 268.5,133.1 C263.9,137.5 257.6,141.4 250.8,144.9 L239.6,144.2 L240.6,149.7 C224.2,156.5 208.4,160.5 208.4,160.5 Z" id="Path" fill="#C1D4D9"></path>
                <path d="M208.4,161 C208.3,161 208.2,161 208.1,160.9 C207.9,160.8 207.8,160.4 207.9,160.2 C208.1,159.9 228,128.4 262.6,106 C262.8,105.9 263.1,105.9 263.3,106.1 C263.4,106.3 263.4,106.6 263.2,106.8 C228.8,129.1 209,160.3 208.8,160.6 C208.7,160.9 208.5,161 208.4,161 Z" id="Path" fill="#AEC8CE"></path>
                <path d="M216,121.5 L213.5,113.6 C214.2,111.7 215,110 215.8,108.6 C218.2,104.5 223.1,102.3 227.7,103.4 C235.1,105.1 240.6,111.2 243.7,115.5 C246.1,118.9 246.5,123.3 244.5,127 C242.8,130.3 240.1,133.7 237,137 L228.5,137.8 L232.5,141.3 C223.1,150 212.5,156.9 212.5,156.9 C209,141.9 209.3,129.2 211.4,119.9 L216,121.5 Z" id="Path" fill="#000000" opacity="0.196024"></path>
                <path d="M210,121.4 L206.2,114 C206.6,112 207.1,110.2 207.7,108.6 C209.4,104.1 213.8,101.2 218.6,101.5 C226.2,101.9 232.6,107 236.4,110.8 C239.3,113.7 240.4,118 239.1,122 C237.9,125.6 235.9,129.3 233.4,133.1 L225.2,135.3 L229.8,138.1 C222,148.3 212.7,156.8 212.7,156.8 C206.7,142.6 204.9,130 205.5,120.5 L210,121.4 Z" id="Path" fill="#C1D4D9"></path>
                <path d="M212.7,157.3 C212.7,157.3 212.6,157.3 212.7,157.3 C212.4,157.3 212.2,157 212.2,156.8 C212.2,156.6 214,132 227.1,108.2 C227.2,108 227.5,107.9 227.8,108 C228,108.1 228.1,108.4 228,108.7 C215,132.4 213.2,156.7 213.2,156.9 C213.1,157.1 212.9,157.3 212.7,157.3 Z" id="Path" fill="#AEC8CE"></path>
                <path d="M201.7,167.4 C210.1,169.1 230.1,168.8 223.9,153.1 C220.9,145.4 211.9,145.5 204.9,147.9 C190.5,152.8 190.8,165.2 201.7,167.4 Z" id="Path" fill="#EDF3F4"></path>
            </g>
            <g id="Group" opacity="0.2" transform="translate(173.000000, 86.000000)"></g>
            <g id="Group" transform="translate(212.000000, 118.000000)"></g>
            <g id="Group" transform="translate(210.000000, 131.000000)" opacity="0.14">
                <g transform="translate(4.000000, 2.000000)"></g>
            </g>
        </g>
    </g>
</svg>