<?xml version="1.0" encoding="UTF-8"?>
<svg width="285px" height="215px" viewBox="0 0 285 215" version="1.1" xmlns="http://www.w3.org/2000/svg" xmlns:xlink="http://www.w3.org/1999/xlink">
    <!-- Generator: Sketch 52.3 (67297) - http://www.bohemiancoding.com/sketch -->
    <title>Error-can only round up by Bitcoin@3x</title>
    <desc>Created with Sketch.</desc>
    <g id="Error-can-only-round-up-by-Bitcoin" stroke="none" stroke-width="1" fill="none" fill-rule="evenodd">
        <g id="Group-4">
            <g transform="translate(33.000000, 22.000000)">
                <path d="M157.8,28 C202.6,-7.7 245.6,87 199.5,100 C150.7,113.8 170.6,162.3 156.3,168.8 C121,184.7 119.1,115.2 98.2,119.6 C70.3,125.5 44,122.4 28,107.2 C6.2,86.5 -4.3,26.8 47.9,14.1 C99.7,1.5 102.8,71.9 157.8,28 Z" id="Path" fill="#EDF3F4"></path>
                <circle id="Oval" fill="#EDF3F4" cx="98" cy="7.3" r="6.7"></circle>
                <circle id="Oval" fill="#EDF3F4" cx="146" cy="24.9" r="3"></circle>
                <path d="M86.8,124.7 C108.1,121.7 113.7,141.5 114.3,149.5 C114.9,156.8 86.3,152.8 79.4,152.4 C29.6,149.2 6.3,120 10.1,85.3 C10.8,78.7 24.9,133.4 86.8,124.7 Z" id="Path" fill="#EDF3F4"></path>
                <path d="M149.5,154.8 C149.5,154.8 144.7,46.5 151.8,33.7 C160.2,18.3 169.7,15.2 169.7,15.2 C169.7,15.2 155.4,31.4 154,37.9 C152.1,47.2 155.2,154.8 155.2,154.8 L149.5,154.8 Z" id="Path" fill="#C1D4D9"></path>
                <path d="M146.9,163.8 C146.9,163.8 154.6,69.7 175,59.4 C193.4,50.1 205,93.5 205,93.5 C205,93.5 190.8,60.1 178.6,64.7 C165.8,69.6 155.7,160.9 155.7,160.9 L146.9,163.8 Z" id="Path" fill="#C1D4D9"></path>
                <g id="Group" transform="translate(0.000000, 5.000000)">
                    <path d="M82.9,29 C82.9,29 90,59.9 80,77.7 L49.4,68.1 L74.9,28.7 L82.9,29 Z" id="Path" fill="#000000"></path>
                    <g opacity="0.15" transform="translate(40.000000, 28.000000)" fill="#000000" id="Path">
                        <path d="M42.3,2.4 C42.3,2.4 41.9,34.1 28,49 L0.5,32.4 L34.6,0.1 L42.3,2.4 Z"></path>
                    </g>
                    <path d="M63.6,60.8 C63.6,60.8 78.5,63.8 82.5,69.5 C86.5,75.2 95.2,94.4 97.4,114.6 C97.4,114.6 35.3,132.7 13,80 L63.6,60.8 Z" id="Path" fill="#78EACC"></path>
                    <g opacity="0.2" transform="translate(60.000000, 60.000000)" fill="#000000" id="Path">
                        <path d="M2.1,8.2 L8.3,2 C8.3,2 6.2,1.4 3.6,0.8 C1,0.2 0.4,8.6 0.4,8.6 L2.1,8.2 Z"></path>
                    </g>
                    <path d="M65.3,56.4 L60.7,67.5 C60.5,67.9 60.9,68.3 61.3,68.3 L62.1,68.2 C62.8,68.1 63.4,68.9 63,69.5 L57.1,80.3 C57.1,80.3 48.7,77.7 42.8,67.3 L55.2,50.2 C55.2,50.2 58.5,54.7 65.3,56.4 Z" id="Path" fill="#FFFFFF"></path>
                    <g opacity="0.15" transform="translate(55.000000, 51.000000)" fill="#000000" id="Path">
                        <path d="M0.7,5.7 C0.7,5.7 6.3,6.4 10.3,5.4 C10.3,5.4 5.4,4.2 2.1,0.8 L0.7,5.7 Z"></path>
                    </g>
                    <path d="M82.2,21.7 C82.2,21.7 85.2,36.4 78.9,53.5 C78.3,55.3 76.7,56.5 74.9,56.8 C70.1,57.5 60.3,57.5 51.6,48 L58.7,12.3 L76.3,10.1 L82.2,21.7 Z" id="Path" fill="#FFFFFF"></path>
                    <g opacity="0.1" transform="translate(8.000000, 2.000000)" fill="#000000" id="Path">
                        <path d="M73.3,9.4 L74.2,7.6 C71.5,4.8 67.7,2.4 62.2,1.4 C43.4,-2.2 30.1,3.1 23.3,20.6 C18.6,32.8 16.7,40.1 6.7,48.7 C3.8,51.2 1.7,54.2 0.4,57.5 L26.7,90.6 C27.3,90.6 27.9,90.5 28.5,90.5 C44.3,89.2 58.8,59.2 61.3,29.6 C61.3,29.6 57.9,26.6 56.5,18.6 C56.4,18.3 56.8,18.2 56.9,18.5 C58,21.7 59,24.5 62.8,27.9 L67.6,27.2 C67.6,27.2 66.3,22.5 67,17 C67,16.6 67.6,16.6 67.7,17 C67.9,19.6 68.5,23.5 70.4,26.5 C70.4,26.5 72.4,26.8 75,26.3 C75,22.8 74.9,16.4 73.3,9.4 Z"></path>
                    </g>
                    <path d="M63.5,18.3 C64.6,21.5 65.6,24.3 69.4,27.7 L74.2,27 C74.2,27 72.9,22.3 73.6,16.8 C73.6,16.4 74.2,16.4 74.3,16.8 C74.5,19.4 75.1,23.3 77,26.3 C77,26.3 82.6,27.2 87,23.7 C87,23.7 87.7,4.9 68.9,1.3 C50.1,-2.3 36.8,3 30,20.5 C25.3,32.7 22.8,39.4 13.4,48.6 C-13.2,74.6 6.8,98.8 35.2,90.4 C55.9,84.2 65.5,59.1 68,29.5 C68,29.5 64.6,26.5 63.2,18.5 C63,18.1 63.4,18 63.5,18.3 Z" id="Path" fill="#000000"></path>
                    <g opacity="0.2" transform="translate(75.000000, 74.000000)" fill="#000000" id="Path">
                        <path d="M0,41 C5.1,19.3 3,0.5 3,0.5 C3,0.5 4.9,13 2.8,40.9"></path>
                    </g>
                    <g opacity="0.2" transform="translate(69.000000, 88.000000)" fill="#000000" id="Path">
                        <path d="M22.3,0.5 C13.5,10.9 0.2,29.4 0.2,29.4 C11.3,30.5 25.7,27.1 25.7,27.1 C27.1,25.6 28.7,23.4 30.2,21 L22.3,0.5 Z"></path>
                    </g>
                    <path d="M73.1,117.6 C73.1,117.6 89.6,91.8 97.8,82.6 C106.5,72.9 108.3,65.5 111.9,58.7 C114.5,53.8 127.7,53.7 130.2,51.1 C132.7,48.5 134.3,42.6 136.2,43.9 C138,45.2 135.5,55.5 132,60 C128.5,64.5 118.9,64.8 117.1,71.1 C115.4,77.4 105.7,105.4 98.1,114.6 C98.2,114.6 84.6,118.5 73.1,117.6 Z" id="Path" fill="#FFFFFF"></path>
                    <path d="M111.6,85.9 C110.8,85.9 109.9,85.8 108.9,85.7 C103.6,85 99.5,82.1 98.5,79.7 C98.2,78.9 98.2,78.3 98.6,77.8 C99.1,77.1 100.2,76.9 101.8,77.1 L101.6,78.1 C100.5,77.9 99.7,78 99.4,78.4 C99.2,78.7 99.3,79.1 99.4,79.3 C100.1,81 103.7,84 109,84.7 C113.1,85.2 113.7,84.5 113.8,84.3 C114,83.8 113.3,82.8 112.7,82.3 L113.4,81.6 C113.6,81.8 115.4,83.4 114.8,84.8 C114.4,85.5 113.4,85.9 111.6,85.9 Z" id="Path" fill="#78EACC"></path>
                    <path d="M118.6,54.6 C118.6,54.6 125.1,48.5 126.4,49.2 C127.7,49.9 125.3,53 125.3,53 L118.6,54.6 Z" id="Path" fill="#C1D4D9"></path>
                </g>
                <g id="Group" transform="translate(95.000000, 8.000000)">
                    <g>
                        <circle id="Oval" fill="#78EACC" transform="translate(23.616360, 23.669920) rotate(-12.867501) translate(-23.616360, -23.669920) " cx="23.61636" cy="23.66992" r="19.0002403"></circle>
                        <g opacity="0.6" transform="translate(8.000000, 8.000000)" fill="#FFFFFF" fill-rule="nonzero" id="Shape">
                            <path d="M15.5,30.9 C12.6,30.9 9.8,30.1 7.4,28.5 C3.9,26.3 1.5,22.9 0.6,18.9 C-1.3,10.6 3.9,2.4 12.2,0.5 C16.2,-0.4 20.3,0.3 23.8,2.5 C27.3,4.7 29.7,8.1 30.6,12.1 C32.5,20.4 27.3,28.6 19,30.5 C17.9,30.8 16.7,30.9 15.5,30.9 Z M15.6,0.9 C14.5,0.9 13.4,1 12.3,1.3 C4.4,3.1 -0.5,11 1.3,18.8 C2.2,22.6 4.5,25.8 7.8,27.9 C11.1,30 15,30.6 18.8,29.8 C26.7,28 31.6,20.1 29.8,12.3 C28.9,8.5 26.6,5.3 23.3,3.2 C21,1.7 18.3,0.9 15.6,0.9 Z"></path>
                        </g>
                    </g>
                    <g opacity="0.7" transform="translate(17.000000, 15.000000)" fill="#FFFFFF" fill-rule="nonzero" id="Shape">
                        <path d="M11.5,5.1 C11.3,3.3 9.8,2.8 7.8,2.6 L7.8,0.2 L6.3,0.2 L6.3,2.6 C5.9,2.6 5.5,2.6 5.1,2.6 L5.1,0.2 L3.6,0.2 L3.6,2.6 C3.3,2.6 3,2.6 2.7,2.6 L0.6,2.6 L0.6,4.2 C0.6,4.2 1.7,4.2 1.7,4.2 C2.3,4.2 2.5,4.5 2.6,4.8 L2.7,7.6 C2.7,7.6 2.8,7.6 2.9,7.6 C2.9,7.6 2.8,7.6 2.7,7.6 L2.8,11.5 C2.8,11.7 2.7,12 2.2,12 C2.2,12 1.1,12 1.1,12 L0.8,13.8 L2.7,13.8 C3.1,13.8 3.4,13.8 3.8,13.8 L3.8,16.3 L5.3,16.3 L5.3,13.8 C5.7,13.8 6.1,13.8 6.5,13.8 L6.5,16.2 L8,16.2 L8,13.7 C10.5,13.5 12.2,12.8 12.4,10.5 C12.5,8.6 11.6,7.8 10.2,7.5 C11.2,7.1 11.7,6.3 11.5,5.1 Z M9.6,10.4 C9.6,12.3 6.5,12.1 5.5,12.1 L5.4,8.8 C6.4,8.8 9.5,8.5 9.6,10.4 Z M8.8,5.8 C8.8,7.5 6.2,7.3 5.3,7.4 L5.2,4.4 C6.1,4.3 8.7,4 8.8,5.8 Z"></path>
                    </g>
                </g>
                <path d="M151,160.3 C151,160.3 151.4,108.6 131,108.5 C111.6,108.4 112.7,139.3 112.7,139.3 C112.7,139.3 116,107.9 131.8,111.4 C141.5,113.5 143,162 143,162 L151,160.3 Z" id="Path" fill="#C1D4D9"></path>
                <g id="Group" opacity="0.14" transform="translate(149.000000, 135.000000)" fill="#000000">
                    <polygon id="Path" points="1 0.9 0.5 4.8 1.8 15.8 5.1 17.7"></polygon>
                </g>
                <path d="M139.4,145.5 C148,145.9 167.2,151 157.5,164.8 C152.7,171.5 143.3,170.6 137,166.6 C124.2,158.3 128.2,145 139.4,145.5 Z" id="Path" fill="#FFFFFF"></path>
                <g id="Group" opacity="0.07" transform="translate(165.000000, 62.000000)" fill="#000000">
                    <path d="M16.1,2.3 C16.1,2.3 8,-3.3 3.6,3.7 C1.4,7.1 -2,23.8 2.1,29.5 C2.1,29.5 7.5,0.6 16.1,2.3 Z" id="Path"></path>
                </g>
                <g id="Group" opacity="0.07" transform="translate(133.000000, 111.000000)" fill="#000000">
                    <path d="M0,0.9 C0,0.9 7.6,2.6 10.1,10.2 C11.8,15.4 7.5,21.9 7.5,21.9 C7.5,21.9 5.5,5.2 0,0.9 Z" id="Path"></path>
                </g>
                <g id="Group" opacity="0.07" transform="translate(151.000000, 36.000000)" fill="#000000">
                    <path d="M3.4,0.7 C3.4,0.7 1.5,2 0.8,4.4 C0.1,6.8 2.5,17.6 2.5,17.6 C2.5,17.6 2.6,6.2 3.4,0.7 Z" id="Path"></path>
                </g>
                <g id="Group" opacity="0.14" transform="translate(148.000000, 104.000000)" fill="#000000">
                    <polygon id="Path" points="6 0.8 6.2 6.7 1.5 35.8 0.4 29.1 0 19.2"></polygon>
                </g>
                <path d="M135.6,170.8 C130,172 116.6,171.9 120.6,161.3 C122.6,156.1 128.9,155.1 133.7,156.7 C143.4,159.9 143,169.3 135.6,170.8 Z" id="Path" fill="#C1D4D9"></path>
            </g>
        </g>
    </g>
</svg>