<?xml version="1.0" encoding="UTF-8"?>
<svg width="285px" height="215px" viewBox="0 0 285 215" version="1.1" xmlns="http://www.w3.org/2000/svg" xmlns:xlink="http://www.w3.org/1999/xlink">
    <!-- Generator: Sketch 52.3 (67297) - http://www.bohemiancoding.com/sketch -->
    <title>Security: your funds are secure@3x</title>
    <desc>Created with Sketch.</desc>
    <g id="Security:-your-funds-are-secure" stroke="none" stroke-width="1" fill="none" fill-rule="evenodd">
        <g>
            <g id="Group-6" transform="translate(14.000000, 5.000000)">
                <path d="M128.6,64.8 C148,62 187.2,52 205.8,69.5 C219.2,82.2 233,113.8 218.8,142 C204.4,170.6 161.7,195.6 110.1,193.6 C7.8,189.7 -1.2,48 49.3,29.3 C97.9,11.3 93.5,69.8 128.6,64.8 Z" id="Path" fill="#EDF3F4"></path>
                <path d="M84.8,48.9 C84.8,49.3 84.8,49.7 84.8,50.1 C84.8,78.6 71.3,103.8 50.7,118.7 C30.1,103.7 16.6,78.6 16.6,50.1 C16.6,49.7 16.6,49.3 16.6,48.9 C27.4,45.6 38.8,43.8 50.7,43.8 C62.6,43.8 74,45.6 84.8,48.9 Z" id="Path" fill="#78EACC"></path>
                <path d="M111.4,95.7 C111.4,95.7 97.4,105.1 97.9,142.8 C97.9,142.8 123.1,149.4 130.4,136 C130.4,136 126.6,127.1 126.9,122.6 C127.2,118.1 131.7,105.3 131.7,105.3 L111.4,95.7 Z" id="Path" fill="#FFFFFF"></path>
                <polygon id="Path" fill="#FFFFFF" points="119.8 144.7 120.7 157.9 114.8 161.5 114.8 169.8 126.2 178.3 144.6 171.1 147.2 160.4 140.6 157.4 140.9 146.2 149.1 116.9 134 107.8 128.3 110.1 124.6 128.8"></polygon>
                <path d="M124.5,106.1 C118.9,105.7 103.8,103.3 104.1,89.4 C104.1,89.4 106.7,90.9 112.3,91.7 C112.3,91.7 106.6,89.1 107,80.2 C107,80.2 109.9,85.4 121.5,84.9 C133.1,84.4 139.8,86.3 144.8,90 C149.9,93.8 152.5,98.2 157.7,97.1 C157.7,97.1 166.7,121.4 140.9,146.3 C140.9,146.3 138.3,143.4 135.9,139.1 C133.3,134.4 134.5,128.7 138.4,125.1 C140.7,123 142.5,120 141,116.5 C137.8,108.9 131.4,113.6 129.8,119.4 C128.3,124.7 129.4,128.4 129.7,131.3 C130.3,136.6 127.5,141.8 122.7,144 C117.8,146.2 110.1,147 98,142.9 C98,142.9 96.3,133.7 99.8,120.6 C99.8,120.6 105.1,119.8 110.6,128.7 C116.5,138.3 128.1,119.4 127.2,108.7 C126.9,107.3 125.8,106.2 124.5,106.1 Z" id="Path" fill="#000000"></path>
                <path d="M114.8,161.5 C114.8,161.5 125.6,183.3 147.2,160.4 C147.2,160.4 160.3,165.3 173.5,175.4 C160.1,187.2 140.1,194.7 111.7,193.6 C97.3,193.1 84.8,189.4 74,183.5 C83.9,175.3 98.3,165.6 114.8,161.5 Z" id="Path" fill="#78EACC"></path>
                <path d="M171,133.7 L175.1,125.3 C174.5,109.7 171.3,98.7 171.3,98.7 C163.3,112.8 159.6,129.9 158.2,145.2 L161.8,152.4 L157.8,149.9 C156.4,170.1 158.5,186.2 158.5,186.2 C171.8,168.3 175.2,147.2 175.2,130.3 L171,133.7 Z" id="Path" fill="#C1D4D9"></path>
                <path d="M175.2,131.3 C164.7,161.1 158.5,186.2 158.5,186.2 C159.5,184.7 160.5,183.3 161.5,181.8 C172,165.3 175.1,146.7 175.2,131.3 Z" id="Path" fill="#000000" opacity="0.200758"></path>
                <path d="M199.1,110.4 L207.3,102.9 C217.5,77.7 221.2,60.1 221.2,60.1 C216.7,65.4 212.2,71.5 207.9,78.1 L207.9,86.3 L205.6,81.8 C199.1,92.3 193,103.8 187.4,115.4 L187.4,125.1 L185,120.5 C169.1,154.4 158.6,186.3 158.6,186.3 C180.4,159.9 195.3,131.7 205,108.7 L199.1,110.4 Z" id="Path" fill="#C1D4D9"></path>
                <path d="M205.5,104.6 L207.3,102.9 C207.4,102.6 207.6,102.2 207.7,101.9 C206.9,102.8 206.2,103.7 205.5,104.6 Z" id="Path" fill="#000000"></path>
                <path d="M201.6,109.6 C195.7,117.7 189.7,127.1 184.2,136.5 L184.9,144.7 L182.1,140.2 C168.7,163.7 158.5,186.1 158.5,186.1 C180.3,159.7 195.2,131.5 204.9,108.5 L201.6,109.6 Z" id="Path" fill="#000000" opacity="0.200758"></path>
                <path d="M180,162.7 L186.3,160.9 C199.4,146.9 209.1,133.2 216,121.9 L212,121 L218.4,117.8 C226.4,104 229.8,94.7 229.8,94.7 C217.7,100.1 201.9,119.4 188.3,138.9 L188.3,147.1 L185.9,142.4 C170.6,164.7 158.6,186.2 158.6,186.2 C168.1,178.9 176.5,171.3 183.9,163.6 L180,162.7 Z" id="Path" fill="#C1D4D9"></path>
                <path d="M184.8,177.8 C208.8,187.6 155.5,195 153.9,189 C153,185.7 163.8,169.2 184.8,177.8 Z" id="Path" fill="#EDF3F4"></path>
                <path d="M59.4,79.3 C57.7,83.2 53.6,85.3 49.4,84.5 C45.2,83.7 42.3,80 42.3,75.8 C42.3,71.6 45.3,67.9 49.4,67.1 C53.5,66.2 57.7,68.4 59.4,72.3 L66.5,70.2 C63.8,62.8 56.1,58.4 48.4,59.8 C40.7,61.2 35,67.9 35,75.8 C35,83.7 40.6,90.4 48.4,91.8 C56.1,93.2 63.8,88.8 66.5,81.4 L59.4,79.3 Z" id="Path" fill="#FFFFFF"></path>
                <path d="M84.5,57.1 C62.6,51.2 38.9,51.2 17,57.1 L16.8,56.4 C38.8,50.4 62.6,50.4 84.6,56.4 L84.5,57.1 Z" id="Path" fill="#FFFFFF"></path>
                <path d="M126.5,141.1 C126.5,141.1 125,147.1 120.2,150 L119.6,143.5 L126.5,141.1 Z" id="Path" fill="#000000"></path>
                <path d="M26.3,183.8 C30.6,189.2 38.5,190.1 43.9,185.8 C49.3,181.5 48.2,175.2 43.9,169.8 C39.6,164.4 33.7,162 28.3,166.3 C22.9,170.6 22,178.4 26.3,183.8 Z" id="Path" fill="#EDF3F4"></path>
                <path d="M20.5,142.8 C16.2,142.3 12.3,145.4 11.8,149.7 C11.3,154 14.6,156.3 18.9,156.8 C23.2,157.3 26.9,155.7 27.4,151.5 C27.9,147.1 24.8,143.2 20.5,142.8 Z" id="Path" fill="#EDF3F4"></path>
                <path d="M125.1,38.1 C125.1,38.2 125.1,38.3 125.1,38.4 C125.1,45.8 121.6,52.3 116.3,56.2 C111,52.3 107.5,45.8 107.5,38.4 C107.5,38.3 107.5,38.2 107.5,38.1 C110.3,37.2 113.3,36.8 116.3,36.8 C119.3,36.8 122.3,37.3 125.1,38.1 Z" id="Path" fill="#EDF3F4"></path>
                <path d="M37,16.1 C37,16.2 37,16.3 37,16.4 C37,22.3 34.2,27.5 30,30.5 C25.8,27.4 23,22.2 23,16.4 C23,16.3 23,16.2 23,16.1 C25.2,15.4 27.6,15 30,15 C32.4,15.1 34.8,15.4 37,16.1 Z" id="Path" fill="#EDF3F4"></path>
                <path d="M55.3,0.2 C56.9,0.2 58.4,0.4 59.8,0.9 C59.9,4.7 58.1,8.1 55.3,10.1 C52.5,8.1 50.7,4.7 50.8,0.9 C52.2,0.4 53.7,0.2 55.3,0.2 Z" id="Path" fill="#EDF3F4"></path>
                <path d="M5.3,70.2 C6.9,70.2 8.4,70.4 9.8,70.9 C9.9,74.7 8.1,78.1 5.3,80.1 C2.5,78.1 0.7,74.7 0.8,70.9 C2.2,70.4 3.7,70.2 5.3,70.2 Z" id="Path" fill="#EDF3F4"></path>
                <path d="M50.8,123.8 L50.6,123.6 C27.6,106.5 13.8,78.4 13.8,48.3 C13.8,48 13.8,47.7 13.8,47.4 L13.8,46.7 L14.1,46.6 C26,42.9 38.3,41 50.8,41 C63.3,41 75.6,42.9 87.5,46.6 L87.8,46.7 L87.8,47.5 C87.8,47.8 87.8,48.1 87.8,48.3 C87.8,78.4 74,106.6 51,123.6 L50.8,123.8 Z M14.5,47.2 L14.5,47.4 C14.5,47.7 14.5,48 14.5,48.2 C14.5,78 28,105.8 50.8,122.8 C73.5,105.9 87.1,78 87.1,48.2 C87.1,47.9 87.1,47.7 87.1,47.4 L87.1,47.2 C75.4,43.5 63.2,41.7 50.9,41.7 C38.4,41.7 26.3,43.5 14.5,47.2 Z" id="Shape" fill="#FFFFFF" fill-rule="nonzero"></path>
                <path d="M50.8,123.8 L50.6,123.6 C27.6,106.5 13.8,78.4 13.8,48.3 C13.8,48 13.8,47.7 13.8,47.4 L13.8,46.7 L14.1,46.6 C26,42.9 38.3,41 50.8,41 C63.3,41 75.6,42.9 87.5,46.6 L87.8,46.7 L87.8,47.5 C87.8,47.8 87.8,48.1 87.8,48.3 C87.8,78.4 74,106.6 51,123.6 L50.8,123.8 Z M14.5,47.2 L14.5,47.4 C14.5,47.7 14.5,48 14.5,48.2 C14.5,78 28,105.8 50.8,122.8 C73.5,105.9 87.1,78 87.1,48.2 C87.1,47.9 87.1,47.7 87.1,47.4 L87.1,47.2 C75.4,43.5 63.2,41.7 50.9,41.7 C38.4,41.7 26.3,43.5 14.5,47.2 Z" id="Shape" fill="#FFFFFF" fill-rule="nonzero"></path>
            </g>
            <g id="Group" opacity="0.14" transform="translate(172.000000, 136.000000)"></g>
            <g id="Group" opacity="0.14" transform="translate(172.000000, 106.000000)">
                <g transform="translate(47.000000, 0.000000)"></g>
                <g transform="translate(0.000000, 7.000000)"></g>
            </g>
            <g id="Group" opacity="0.6" transform="translate(30.000000, 56.000000)"></g>
            <g id="Group" opacity="0.2" transform="translate(133.000000, 146.000000)"></g>
            <g id="Group" opacity="0.6" transform="translate(27.000000, 46.000000)"></g>
            <g id="Group" opacity="0.6" transform="translate(27.000000, 46.000000)"></g>
        </g>
    </g>
</svg>