<svg xmlns="http://www.w3.org/2000/svg" viewBox="0 0 557.36 457.28">
  <title>Asset 1</title>
  <g id="Layer_2" data-name="Layer 2">
    <g id="Layer_2-2" data-name="Layer 2">
      <path d="M68.18,170.53c-113.74,23.11-83,191,76,262,120.74,53.92,270,13,326-58,49.91-63.28-87-49,42-125,64.48-38,75.5-134.5-72-200-190.75-84.7-333.5-48.5-340,17C95.24,116.27,196.18,144.53,68.18,170.53Z" style="fill: #edf3f4"/>
      <path d="M334.51,65.42s31.67,135.11-26.77,168.79C262.67,260.19,205.68,224,205,190.7S321,87.37,321,87.37Z"/>
      <path d="M205.61,62.29S187,133.5,138.68,156c-146.22,68.18-45.17,221.1,97,127,69.82-46.21,35-217.24,4.5-219.12S205.61,62.29,205.61,62.29Z"/>
      <path d="M422,348c0,83.68-71.66,106.5-155.33,106.5S112.34,431.71,112.34,348s34.86-129.5,154.34-129.5S422,264.36,422,348Z" style="fill: #78eacc"/>
      <path d="M238.88,223.53c6-33-3-59-3-59h61.06s-9,26-3,59l-16,16a17,17,0,0,1-24.51-.43Z" style="fill: #fff"/>
      <path d="M330.07,119.44s-3.38,22.15-24.89,38.37l14.88-39.28Z"/>
      <path d="M201.78,116.71s5.36,24.88,26.88,41.1l-14.88-39.28Z"/>
      <circle cx="97.34" cy="138.17" r="15" style="fill: #edf3f4"/>
      <path d="M236.91,168.05c.36,1.34.78,3,1.21,5.08,9.52,5.51,19.39,9.71,28.29,9.71s18.77-4.2,28.29-9.71c.43-2,.85-3.74,1.21-5.08-9.75,6.56-20.22,10.48-29.5,10.48S246.66,174.61,236.91,168.05Z" style="opacity: 0.2"/>
      <path d="M322.83,107.61a8,8,0,0,0-2,.27c-3.63-28.41-26.51-50.31-54.22-50.31S215.94,79.52,212.35,108a8.11,8.11,0,0,0-2.42-.38,9.12,9.12,0,0,0,0,18.2,8,8,0,0,0,2.64-.45c4.23,28.57,32.79,54.13,54,54.13s49.72-25.49,54-54a8,8,0,0,0,2.25.33,9.12,9.12,0,0,0,0-18.2Z" style="fill: #fff"/>
      <g id="Setting">
        <path d="M310.27,296.1v-3.21a6.38,6.38,0,0,0-5.43-6.3l-.85-.12a6.41,6.41,0,0,1-5-4.08c-.23-.6-.47-1.18-.73-1.76a6.36,6.36,0,0,1,.66-6.42l.5-.69a6.36,6.36,0,0,0-.61-8.29L296.54,263a6.38,6.38,0,0,0-8.3-.62l-.68.51a6.41,6.41,0,0,1-6.42.66c-.58-.26-1.17-.51-1.77-.73a6.39,6.39,0,0,1-4.07-5l-.13-.84a6.36,6.36,0,0,0-6.3-5.43h-3.21a6.36,6.36,0,0,0-6.3,5.43l-.13.84a6.37,6.37,0,0,1-4.05,5q-1,.39-2,.84a6.34,6.34,0,0,1-6.41-.63l-.67-.49a6.38,6.38,0,0,0-8.27.64l-2.09,2.1a6.35,6.35,0,0,0-.62,8.29l.5.68a6.35,6.35,0,0,1,.67,6.41c-.29.66-.57,1.33-.82,2a6.39,6.39,0,0,1-5,4.1l-.82.12a6.38,6.38,0,0,0-5.39,6.3v3a6.36,6.36,0,0,0,5.43,6.3l.84.13a6.37,6.37,0,0,1,5,4.05q.39,1,.84,2a6.36,6.36,0,0,1-.63,6.42l-.49.67a6.37,6.37,0,0,0,.64,8.26L238,326a6.38,6.38,0,0,0,8.3.61l.68-.5a6.37,6.37,0,0,1,6.41-.67c.66.3,1.33.57,2,.83a6.33,6.33,0,0,1,4.09,5l.13.81a6.38,6.38,0,0,0,6.3,5.4h3a6.36,6.36,0,0,0,6.3-5.44l.12-.83a6.37,6.37,0,0,1,4.08-5c.6-.23,1.19-.47,1.77-.73a6.36,6.36,0,0,1,6.42.66l.68.51a6.39,6.39,0,0,0,8.3-.62l2.27-2.27a6.37,6.37,0,0,0,.61-8.3l-.5-.68a6.36,6.36,0,0,1-.66-6.42c.26-.58.5-1.17.73-1.76a6.37,6.37,0,0,1,5-4.08l.85-.12A6.38,6.38,0,0,0,310.27,296.1Z"/>
        <circle cx="267.27" cy="294.5" r="14.33" style="fill: #78eacc"/>
      </g>
      <path d="M322.89,320.49a61.18,61.18,0,1,1,0-48.9l48.94-14.53a112,112,0,1,0,0,78Z" style="fill: #c1d4d9"/>
      <g id="Setting-2" data-name="Setting">
        <path d="M472.44,160v-2.55a5.06,5.06,0,0,0-4.31-5l-.67-.1a5.06,5.06,0,0,1-4-3.23c-.18-.48-.37-.94-.58-1.4a5.06,5.06,0,0,1,.53-5.1l.4-.54a5.07,5.07,0,0,0-.49-6.59l-1.8-1.8a5.06,5.06,0,0,0-6.59-.49l-.54.4a5.08,5.08,0,0,1-5.1.52c-.46-.2-.93-.4-1.4-.58a5.06,5.06,0,0,1-3.24-4l-.1-.67a5.06,5.06,0,0,0-5-4.31H437a5.06,5.06,0,0,0-5,4.31l-.1.67a5,5,0,0,1-3.22,4c-.53.2-1.07.43-1.59.66a5,5,0,0,1-5.09-.49l-.53-.39a5.07,5.07,0,0,0-6.57.5l-1.66,1.67a5.07,5.07,0,0,0-.49,6.59l.4.53a5.07,5.07,0,0,1,.53,5.09c-.23.53-.45,1.06-.65,1.6a5.06,5.06,0,0,1-4,3.25l-.65.1a5.07,5.07,0,0,0-4.28,5V160a5.06,5.06,0,0,0,4.31,5l.67.1a5.06,5.06,0,0,1,4,3.22c.2.54.43,1.07.67,1.59a5.08,5.08,0,0,1-.5,5.1l-.39.53a5.05,5.05,0,0,0,.51,6.56l1.66,1.67a5.05,5.05,0,0,0,6.59.48l.53-.39a5,5,0,0,1,5.09-.53c.53.23,1.06.45,1.6.65a5,5,0,0,1,3.25,3.95l.1.65a5.07,5.07,0,0,0,5,4.29h2.36a5.06,5.06,0,0,0,5-4.32l.1-.66a5.08,5.08,0,0,1,3.23-4c.48-.18,1-.37,1.41-.58a5.06,5.06,0,0,1,5.1.53l.54.4a5.07,5.07,0,0,0,6.59-.49l1.8-1.81a5.05,5.05,0,0,0,.49-6.58l-.4-.54a5.06,5.06,0,0,1-.53-5.1c.21-.46.4-.93.58-1.4a5.08,5.08,0,0,1,4-3.24l.67-.1A5.06,5.06,0,0,0,472.44,160Z" style="fill: #fff"/>
        <circle cx="438.29" cy="158.7" r="11.38" style="fill: #edf3f4"/>
      </g>
      <g>
        <path d="M422,397.51s10.46-50.09,50.46-56.12c0,0-30.29,17.06-40.74,58.48Z" style="fill: #fff"/>
        <path d="M438.29,381.31a47.67,47.67,0,0,0-13.88,16.16l7.29,2.4A104.43,104.43,0,0,1,438.29,381.31Z" style="opacity: 0.14"/>
        <path d="M427.46,381.2A92.74,92.74,0,0,0,422,397.51l7.34,1.78C429.88,397.31,431.35,390.28,427.46,381.2Z" style="opacity: 0.14"/>
        <path d="M426.23,398.07s12.72-26.5,38.28-21.6c0,0-20.95,7.45-29.7,24.42Z" style="fill: #fff"/>
        <path d="M425.49,398.66s7-18.86-17.69-38c0,0,14.87,21.73,8.73,39.39Z" style="fill: #fff"/>
      </g>
      <path d="M392.14,393.32c-48.83,16.1-55.05,67.22,12.23,60.63C512.11,443.41,444.06,376.2,392.14,393.32Z" style="fill: #edf3f4"/>
      <path d="M327.66,322.45a66.11,66.11,0,1,1,0-52.82l52.87-15.7a121,121,0,1,0,0,84.22Z" style="fill: none;stroke: #fff;stroke-miterlimit: 10"/>
      <path d="M201.52,101.86,200.29,104l-7.61,17.34V177c30.46-11.37,48.68-49.64,58.47-79A21.55,21.55,0,0,1,267.09,83.7a109.78,109.78,0,0,0,19.31-6.11c16.48-6.81,24.68,15.92,28.35,32.2a4.54,4.54,0,0,0,8.62.76l1.24-2.94,8.19,2.73s25.82-93-66.42-93.09C199.43,17.18,199.78,89.89,201.52,101.86Z"/>
      <path d="M266.68,454.53c8.73,0,17.34-.25,25.75-.79h0L294,411.5a169.54,169.54,0,0,1-18.44,2.34c-4.66.31-12,.16-15.59.06a1.68,1.68,0,0,0-1.67,2.12c.77,3,3.22,8.12,10.89,9.51l-53,14.9a5.55,5.55,0,0,0,.68,10.83A345.81,345.81,0,0,0,266.68,454.53Z" style="fill: #fff"/>
    </g>
  </g>
</svg>
