<?xml version="1.0" encoding="UTF-8" standalone="no"?>
<svg
   xmlns:dc="http://purl.org/dc/elements/1.1/"
   xmlns:cc="http://creativecommons.org/ns#"
   xmlns:rdf="http://www.w3.org/1999/02/22-rdf-syntax-ns#"
   xmlns:svg="http://www.w3.org/2000/svg"
   xmlns="http://www.w3.org/2000/svg"
   viewBox="0 0 32 32"
   height="32"
   width="32"
   xml:space="preserve"
   id="svg2"
   version="1.1"><metadata
     id="metadata8"><rdf:RDF><cc:Work
         rdf:about=""><dc:format>image/svg+xml</dc:format><dc:type
           rdf:resource="http://purl.org/dc/dcmitype/StillImage" /></cc:Work></rdf:RDF></metadata><defs
     id="defs6"><clipPath
       id="clipPath20"
       clipPathUnits="userSpaceOnUse"><path
         id="path18"
         d="M 24,24 H 0 V 0 h 24 z" /></clipPath><clipPath
       id="clipPath30"
       clipPathUnits="userSpaceOnUse"><path
         id="path28"
         d="m 20,11 c 0.55228,0 1,0.44772 1,1 0,0.55228 -0.44772,1 -1,1 H 5.414214 l 5.292896,5.29289 c 0.39052,0.39053 0.39052,1.02369 0,1.41422 -0.39053,0.39052 -1.023692,0.39052 -1.414217,0 l -7,-7 c -0.390524,-0.39053 -0.390524,-1.02369 0,-1.41422 l 7,-6.999997 c 0.390525,-0.390524 1.023687,-0.390524 1.414217,0 0.39052,0.390525 0.39052,1.023689 0,1.414214 L 5.414214,11 Z" /></clipPath></defs><g
     transform="matrix(1.3333333,0,0,-1.3333333,0,32)"
     id="g10"><g
       id="g12" /><g
       id="g14"><g
         clip-path="url(#clipPath20)"
         id="g16"><path
           id="path22"
           style="fill:#d8d8d8;fill-opacity:0;fill-rule:nonzero;stroke:none"
           d="M -5,-5 H 29 V 29 H -5 Z" /></g></g><g
       id="g24"><g
         clip-path="url(#clipPath30)"
         id="g26"><path
           id="path32"
           style="fill:#3edbb5;fill-opacity:1;fill-rule:nonzero;stroke:none"
           d="M -3,-1 H 26 V 25 H -3 Z" /></g></g></g></svg>