<?xml version="1.0" encoding="UTF-8"?>
<svg width="51px" height="50px" viewBox="0 0 51 50" version="1.1" xmlns="http://www.w3.org/2000/svg">
    <g id="ATM-error" stroke="none" stroke-width="1" fill="none" fill-rule="evenodd">
        <g id="Group-21" transform="translate(1.393799, 1.890869)">
            <g id="Group-3" transform="translate(0.000000, 0.260300)">
                <path d="M2.75,2.2397 C2.061,2.2397 1.5,2.8007 1.5,3.4897 L1.5,31.5227 C1.5,32.2127 2.061,32.7727 2.75,32.7727 L45.384,32.7727 C46.073,32.7727 46.634,32.2127 46.634,31.5227 L46.634,3.4897 C46.634,2.8007 46.073,2.2397 45.384,2.2397 L2.75,2.2397 Z M45.384,34.2727 L2.75,34.2727 C1.233,34.2727 0,33.0397 0,31.5227 L0,3.4897 C0,1.9727 1.233,0.7397 2.75,0.7397 L45.384,0.7397 C46.9,0.7397 48.134,1.9727 48.134,3.4897 L48.134,31.5227 C48.134,33.0397 46.9,34.2727 45.384,34.2727 Z" id="Fill-1" fill="#808080"></path>
            </g>
            <path d="M9.5576,20.6436 C8.8686,20.6436 8.3076,21.2046 8.3076,21.8936 L8.3076,25.5606 C8.3076,26.2496 8.8686,26.8106 9.5576,26.8106 L38.5766,26.8106 C39.2656,26.8106 39.8266,26.2496 39.8266,25.5606 L39.8266,21.8936 C39.8266,21.2046 39.2656,20.6436 38.5766,20.6436 L9.5576,20.6436 Z M38.5766,28.3106 L9.5576,28.3106 C8.0406,28.3106 6.8076,27.0766 6.8076,25.5606 L6.8076,21.8936 C6.8076,20.3776 8.0406,19.1436 9.5576,19.1436 L38.5766,19.1436 C40.0926,19.1436 41.3266,20.3776 41.3266,21.8936 L41.3266,25.5606 C41.3266,27.0766 40.0926,28.3106 38.5766,28.3106 Z" id="Fill-4" fill="#808080"></path>
            <path d="M35.3389,19.8741 L12.7949,19.8741 L12.7949,43.5101 C12.7949,44.6151 13.6909,45.5101 14.7949,45.5101 L33.3389,45.5101 C34.4429,45.5101 35.3389,44.6151 35.3389,43.5101 L35.3389,19.8741 Z" id="Fill-6" fill="#E6E6E6"></path>
            <path d="M13.5449,20.6241 L13.5449,43.5101 C13.5449,44.2001 14.1059,44.7601 14.7949,44.7601 L33.3389,44.7601 C34.0279,44.7601 34.5889,44.2001 34.5889,43.5101 L34.5889,20.6241 L13.5449,20.6241 Z M33.3389,46.2601 L14.7949,46.2601 C13.2779,46.2601 12.0449,45.0271 12.0449,43.5101 L12.0449,19.1241 L36.0889,19.1241 L36.0889,43.5101 C36.0889,45.0271 34.8559,46.2601 33.3389,46.2601 Z" id="Fill-8" fill="#808080"></path>
            <path d="M38.6045,12.4317 L9.5295,12.4317 C8.4245,12.4317 7.5295,11.5357 7.5295,10.4317 L7.5295,2.2367 C7.5295,1.9677 7.7475,1.7497 8.0155,1.7497 L40.1185,1.7497 C40.3865,1.7497 40.6045,1.9677 40.6045,2.2367 L40.6045,10.4317 C40.6045,11.5357 39.7085,12.4317 38.6045,12.4317" id="Fill-10" fill="#FFFFFF"></path>
            <g id="Group-14" transform="translate(6.000000, 0.260300)">
                <path d="M2.2793,2.2397 L2.2793,10.1717 C2.2793,10.8607 2.8403,11.4217 3.5293,11.4217 L32.6043,11.4217 C33.2943,11.4217 33.8543,10.8607 33.8543,10.1717 L33.8543,2.2397 L2.2793,2.2397 Z M32.6043,12.9217 L3.5293,12.9217 C2.0123,12.9217 0.7793,11.6877 0.7793,10.1717 L0.7793,1.9757 C0.7793,1.2947 1.3343,0.7397 2.0153,0.7397 L34.1183,0.7397 C34.8003,0.7397 35.3543,1.2947 35.3543,1.9757 L35.3543,10.1717 C35.3543,11.6877 34.1213,12.9217 32.6043,12.9217 Z" id="Fill-12" fill="#808080"></path>
            </g>
            <path d="M26.2129,32.4893 L19.2129,32.4893 C18.7989,32.4893 18.4629,32.1533 18.4629,31.7393 C18.4629,31.3253 18.7989,30.9893 19.2129,30.9893 L26.2129,30.9893 C26.6269,30.9893 26.9629,31.3253 26.9629,31.7393 C26.9629,32.1533 26.6269,32.4893 26.2129,32.4893" id="Fill-15" fill="#808080"></path>
            <path d="M26.2129,35.4893 L19.2129,35.4893 C18.7989,35.4893 18.4629,35.1533 18.4629,34.7393 C18.4629,34.3253 18.7989,33.9893 19.2129,33.9893 L26.2129,33.9893 C26.6269,33.9893 26.9629,34.3253 26.9629,34.7393 C26.9629,35.1533 26.6269,35.4893 26.2129,35.4893" id="Fill-17" fill="#808080"></path>
            <path d="M25.2334,39.5625 C22.0624,39.5625 19.4834,36.7585 19.4834,33.3125 C19.4834,29.8665 22.0624,27.0625 25.2334,27.0625 C25.8644,27.0625 26.5044,27.1895 27.1354,27.4405 C27.5204,27.5935 27.7084,28.0295 27.5554,28.4145 C27.4024,28.8005 26.9624,28.9855 26.5814,28.8345 C26.1274,28.6545 25.6724,28.5625 25.2334,28.5625 C22.8894,28.5625 20.9834,30.6935 20.9834,33.3125 C20.9834,35.9315 22.8894,38.0625 25.2334,38.0625 C25.6734,38.0625 26.1274,37.9705 26.5814,37.7905 C26.9624,37.6375 27.4034,37.8245 27.5544,38.2095 C27.7084,38.5945 27.5204,39.0305 27.1354,39.1835 C26.5044,39.4355 25.8644,39.5625 25.2334,39.5625" id="Fill-19" fill="#808080"></path>
        </g>
    </g>
</svg>
