<?xml version="1.0" encoding="UTF-8" standalone="no"?>
<svg
   xmlns:dc="http://purl.org/dc/elements/1.1/"
   xmlns:cc="http://creativecommons.org/ns#"
   xmlns:rdf="http://www.w3.org/1999/02/22-rdf-syntax-ns#"
   xmlns:svg="http://www.w3.org/2000/svg"
   xmlns="http://www.w3.org/2000/svg"
   viewBox="0 0 50.666668 50.666668"
   height="50.666668"
   width="50.666668"
   xml:space="preserve"
   id="svg2"
   version="1.1"><metadata
     id="metadata8"><rdf:RDF><cc:Work
         rdf:about=""><dc:format>image/svg+xml</dc:format><dc:type
           rdf:resource="http://purl.org/dc/dcmitype/StillImage" /></cc:Work></rdf:RDF></metadata><defs
     id="defs6"><clipPath
       id="clipPath30"
       clipPathUnits="userSpaceOnUse"><path
         style="clip-rule:evenodd"
         id="path28"
         d="m 25.875,18.875 c 0,-3.728 -3.022,-6.75 -6.75,-6.75 -3.728,0 -6.75,3.022 -6.75,6.75 0,3.728 3.022,6.75 6.75,6.75 3.728,0 6.75,-3.022 6.75,-6.75" /></clipPath></defs><g
     transform="matrix(1.3333333,0,0,-1.3333333,0,50.666667)"
     id="g10"><g
       id="g12" /><g
       id="g14"><g
         transform="matrix(1,0,0,-1,9.8259,18.875)"
         id="g16"><path
           id="path18"
           style="fill:none;stroke:#808080;stroke-width:0.75;stroke-linecap:round;stroke-linejoin:miter;stroke-miterlimit:10;stroke-dasharray:none;stroke-opacity:1"
           d="m 19.533,0 c 0,5.661 -4.582,10.25 -10.234,10.25 C 5.1745,10.25 1.62,7.806 0,4.2855" /></g><g
         transform="matrix(1,0,0,-1,8.8911,29.125)"
         id="g20"><path
           id="path22"
           style="fill:none;stroke:#808080;stroke-width:0.75;stroke-linecap:round;stroke-linejoin:miter;stroke-miterlimit:10;stroke-dasharray:none;stroke-opacity:1"
           d="M 0,10.25 C 0,4.589 4.582,0 10.234,0 c 4.1265,0 7.6825,2.4465 9.3015,5.9695" /></g></g><g
       id="g24"><g
         clip-path="url(#clipPath30)"
         id="g26"><path
           id="path32"
           style="fill:#e6e6e6;fill-opacity:1;fill-rule:nonzero;stroke:none"
           d="m 7.375,30.625 h 23.5 v -23.5 h -23.5 z" /></g></g><g
       id="g34"><g
         transform="matrix(1,0,0,-1,12.375,25.625)"
         id="g36"><path
           id="path38"
           style="fill:none;stroke:#808080;stroke-width:0.75;stroke-linecap:round;stroke-linejoin:miter;stroke-miterlimit:10;stroke-dasharray:none;stroke-opacity:1"
           d="m 13.5,6.75 c 0,3.728 -3.022,6.75 -6.75,6.75 C 3.022,13.5 0,10.478 0,6.75 0,3.022 3.022,0 6.75,0 10.478,0 13.5,3.022 13.5,6.75 Z" /></g><g
         transform="matrix(1,0,0,-1,16.90915,21.07755)"
         id="g40"><path
           id="path42"
           style="fill:none;stroke:#808080;stroke-width:0.75;stroke-linecap:round;stroke-linejoin:miter;stroke-miterlimit:10;stroke-dasharray:none;stroke-opacity:1"
           d="M 4.21,1.268 C 3.8535,0.5205 3.098,0 2.216,0 0.992,0 0,0.9935 0,2.219 0,3.445 0.992,4.438 2.216,4.438 3.098,4.438 3.8535,3.918 4.21,3.17" /></g><g
         transform="matrix(1,0,0,-1,15.2165,22.8627)"
         id="g44"><path
           id="path46"
           style="fill:none;stroke:#808080;stroke-width:0.75;stroke-linecap:round;stroke-linejoin:miter;stroke-miterlimit:10;stroke-dasharray:none;stroke-opacity:1"
           d="M 7.596,2.288 C 6.953,0.939 5.5895,0 3.9975,0 1.7895,0 0,1.793 0,4.0045 0,6.2155 1.7895,8.008 3.9975,8.008 5.5895,8.008 6.953,7.0695 7.596,5.72" /></g><g
         transform="matrix(1,0,0,-1,7.625,19.5088)"
         id="g48"><path
           id="path50"
           style="fill:none;stroke:#808080;stroke-width:0.75;stroke-linecap:round;stroke-linejoin:miter;stroke-miterlimit:10;stroke-dasharray:none;stroke-opacity:1"
           d="M 0,0 1.266,1.2675 2.532,0" /></g><g
         transform="matrix(1,0,0,-1,28.093,19.5971)"
         id="g52"><path
           id="path54"
           style="fill:none;stroke:#808080;stroke-width:0.75;stroke-linecap:round;stroke-linejoin:miter;stroke-miterlimit:10;stroke-dasharray:none;stroke-opacity:1"
           d="M 2.532,1.268 1.266,0 0,1.268" /></g><g
         transform="matrix(1,0,0,-1,18.9741,23.6675)"
         id="g56"><path
           id="path58"
           style="fill:none;stroke:#808080;stroke-width:0.75;stroke-linecap:round;stroke-linejoin:miter;stroke-miterlimit:10;stroke-dasharray:none;stroke-opacity:1"
           d="M 0.25,0 V 0.7605" /></g><g
         transform="matrix(1,0,0,-1,18.9741,14.8052)"
         id="g60"><path
           id="path62"
           style="fill:none;stroke:#808080;stroke-width:0.75;stroke-linecap:round;stroke-linejoin:miter;stroke-miterlimit:10;stroke-dasharray:none;stroke-opacity:1"
           d="M 0.25,0 V 0.7605" /></g></g></g></svg>