<svg xmlns="http://www.w3.org/2000/svg" viewBox="0 0 47.41 46.47">
    <title>Asset 1</title>
    <g id="Layer_2">
        <g id="Icons">
            <g id="Premium">
                <path d="M37.28,45.72H10.13a2,2,0,0,1-2-1.61L7.1,37.72H40.31l-1.07,6.39A2,2,0,0,1,37.28,45.72Z" style="fill: #fff;stroke: gray;stroke-linecap: round;stroke-miterlimit: 10;stroke-width: 1.5px"/>
                <path d="M7.1,37.72H40.31L46.62,19.8a1,1,0,0,0-1.54-1.08L39,23.06a2,2,0,0,1-2.58-.21L25.12,11.54a2,2,0,0,0-2.83,0L11,22.85a2,2,0,0,1-2.57.21L2.33,18.72A1,1,0,0,0,.79,19.8Z" style="fill: #e6e6e6;stroke: gray;stroke-linecap: round;stroke-miterlimit: 10;stroke-width: 1.5px"/>
                <path d="M28,7.39l-2.74,3.38a2,2,0,0,1-3.11,0L19.42,7.39a2,2,0,0,1,0-2.51l2.73-3.39a2,2,0,0,1,3.11,0L28,4.88A2,2,0,0,1,28,7.39Z" style="fill: #fff;stroke: gray;stroke-linecap: round;stroke-miterlimit: 10;stroke-width: 1.5px"/>
                <g>
                    <line x1="18.6" y1="27.31" x2="25.6" y2="27.31" style="fill: #e6e6e6;stroke: gray;stroke-linecap: round;stroke-miterlimit: 10;stroke-width: 1.5px"/>
                    <line x1="18.6" y1="30.31" x2="25.6" y2="30.31" style="fill: #e6e6e6;stroke: gray;stroke-linecap: round;stroke-miterlimit: 10;stroke-width: 1.5px"/>
                    <path d="M26.25,23.71a4.43,4.43,0,0,0-1.63-.33,5.27,5.27,0,0,0-5,5.5,5.27,5.27,0,0,0,5,5.5,4.42,4.42,0,0,0,1.63-.32" style="fill: none;stroke: gray;stroke-linecap: round;stroke-miterlimit: 10;stroke-width: 1.5px"/>
                </g>
            </g>
        </g>
    </g>
</svg>