<?xml version="1.0" encoding="utf-8"?>
<!-- Generator: Adobe Illustrator 23.0.4, SVG Export Plug-In . SVG Version: 6.00 Build 0)  -->
<svg version="1.1" xmlns="http://www.w3.org/2000/svg" xmlns:xlink="http://www.w3.org/1999/xlink" x="0px" y="0px"
     viewBox="0 0 51 50" style="enable-background:new 0 0 51 50;" xml:space="preserve">
<style type="text/css">
	.st0{display:none;}
	.st1{display:inline;}
	.st2{fill-rule:evenodd;clip-rule:evenodd;fill:#FFFFFF;}
	.st3{fill-rule:evenodd;clip-rule:evenodd;}
	.st4{fill-rule:evenodd;clip-rule:evenodd;fill:#3EDBB5;}
	.st5{fill:#3EDBB5;stroke:#000000;stroke-width:1.5;stroke-miterlimit:10;}
	.st6{fill:none;stroke:#000000;stroke-width:1.5;stroke-linecap:round;stroke-miterlimit:10;}
	.st7{fill:#FFFFFF;stroke:#808080;stroke-width:1.5;stroke-linecap:round;stroke-miterlimit:10;}
	.st8{fill:#E6E6E6;stroke:#808080;stroke-width:1.5;stroke-linecap:round;stroke-miterlimit:10;}
	.st9{fill:none;stroke:#808080;stroke-width:1.5;stroke-linecap:round;stroke-miterlimit:10;}
</style>
    <g id="Layer_1" class="st0">
	<g id="Recieved" class="st1">
		<g id="Group-21" transform="translate(1.370117, 1.869141)">
			<path id="Fill-1" class="st2" d="M2.8,32.7h17c0.3,0,0.5-0.1,0.7-0.3l3.2-3.2c0.4-0.4,1-0.4,1.4,0l3.2,3.2
				c0.2,0.2,0.4,0.3,0.7,0.3h16.7c1.1,0,2-0.9,2-2v-28c0-1.1-0.9-2-2-2h-43c-1.1,0-2,0.9-2,2v28C0.7,31.9,1.6,32.7,2.8,32.7"/>
            <path id="Fill-3" class="st3" d="M24.4,28.2c0.5,0,0.9,0.2,1.2,0.5l3.2,3.2c0,0,0.1,0.1,0.2,0.1h16.7c0.7,0,1.2-0.6,1.2-1.3v-28
				c0-0.7-0.6-1.2-1.2-1.2h-43c-0.7,0-1.2,0.6-1.2,1.2v28c0,0.7,0.6,1.3,1.2,1.3h17c0.1,0,0.1,0,0.2-0.1l3.2-3.2
				C23.5,28.4,23.9,28.2,24.4,28.2 M45.8,33.5H29c-0.5,0-0.9-0.2-1.2-0.5l-3.2-3.2c-0.1-0.1-0.2-0.1-0.4,0L21,33
				c-0.3,0.3-0.8,0.5-1.2,0.5h-17c-1.5,0-2.8-1.2-2.8-2.8v-28C0,1.2,1.2,0,2.8,0h43c1.5,0,2.8,1.2,2.8,2.7v28
				C48.5,32.3,47.3,33.5,45.8,33.5"/>
            <path id="Fill-5" class="st4" d="M2.8,32.7h17c0.3,0,0.5-0.1,0.7-0.3l3.2-3.2c0.4-0.4,1-0.4,1.4,0l3.2,3.2
				c0.2,0.2,0.4,0.3,0.7,0.3h16.7c1.1,0,2-0.9,2-2v-21c0-1.1-0.9-2-2-2h-43c-1.1,0-2,0.9-2,2v21C0.7,31.9,1.6,32.7,2.8,32.7"/>
            <path id="Fill-7" class="st3" d="M24.4,28.2c0.5,0,0.9,0.2,1.2,0.5l3.2,3.2c0,0,0.1,0.1,0.2,0.1h16.7c0.7,0,1.2-0.6,1.2-1.3v-21
				c0-0.7-0.6-1.2-1.2-1.2h-43c-0.7,0-1.2,0.6-1.2,1.2v21c0,0.7,0.6,1.3,1.2,1.3h17c0.1,0,0.1,0,0.2-0.1l3.2-3.2
				C23.5,28.4,23.9,28.2,24.4,28.2 M45.8,33.5H29c-0.5,0-0.9-0.2-1.2-0.5l-3.2-3.2c-0.1-0.1-0.2-0.1-0.4,0L21,33
				c-0.3,0.3-0.8,0.5-1.2,0.5h-17c-1.5,0-2.8-1.2-2.8-2.8v-21C0,8.2,1.2,7,2.8,7h43c1.5,0,2.8,1.2,2.8,2.8v21
				C48.5,32.3,47.3,33.5,45.8,33.5"/>
            <path id="Fill-9" class="st4" d="M2.8,31.7h17c0.3,0,0.5-0.1,0.7-0.3l3.2-3.2c0.4-0.4,1-0.4,1.4,0l3.2,3.2
				c0.2,0.2,0.4,0.3,0.7,0.3h16.7c1.1,0,2-0.9,2-2v-13c0-1.1-0.9-2-2-2h-43c-1.1,0-2,0.9-2,2v13C0.7,30.9,1.6,31.7,2.8,31.7"/>
            <path id="Fill-11" class="st3" d="M24.4,27.2c0.5,0,0.9,0.2,1.2,0.5l3.2,3.2c0,0,0.1,0.1,0.2,0.1h16.7c0.7,0,1.2-0.6,1.2-1.2v-13
				c0-0.7-0.6-1.2-1.2-1.2h-43c-0.7,0-1.2,0.6-1.2,1.2v13c0,0.7,0.6,1.2,1.2,1.2h17c0.1,0,0.1,0,0.2-0.1l3.2-3.2
				C23.5,27.4,23.9,27.2,24.4,27.2 M45.8,32.5H29c-0.5,0-0.9-0.2-1.2-0.5l-3.2-3.2c-0.1-0.1-0.2-0.1-0.4,0L21,32
				c-0.3,0.3-0.8,0.5-1.2,0.5h-17c-1.5,0-2.8-1.2-2.8-2.8v-13C0,15.2,1.2,14,2.8,14h43c1.5,0,2.8,1.2,2.8,2.7v13
				C48.5,31.3,47.3,32.5,45.8,32.5"/>
            <path id="Fill-13" class="st2" d="M45.8,21.7h-17c-0.3,0-0.5,0.1-0.7,0.3l-3.2,3.2c-0.4,0.4-1,0.4-1.4,0L20.2,22
				c-0.2-0.2-0.4-0.3-0.7-0.3H2.8c-1.1,0-2,0.9-2,2v20c0,1.1,0.9,2,2,2h43c1.1,0,2-0.9,2-2v-20C47.8,22.6,46.9,21.7,45.8,21.7"/>
            <path id="Fill-15" class="st3" d="M2.8,22.5c-0.7,0-1.2,0.6-1.2,1.2v20c0,0.7,0.6,1.2,1.2,1.2h43c0.7,0,1.2-0.6,1.2-1.2v-20
				c0-0.7-0.6-1.2-1.2-1.2h-17c-0.1,0-0.1,0-0.2,0.1l-3.2,3.2c-0.7,0.7-1.8,0.7-2.5,0l-3.2-3.2c0,0-0.1-0.1-0.2-0.1H2.8z M45.8,46.5
				h-43c-1.5,0-2.8-1.2-2.8-2.8v-20C0,22.2,1.2,21,2.8,21h16.7c0.5,0,0.9,0.2,1.2,0.5l3.2,3.2c0.1,0.1,0.3,0.1,0.4,0l3.2-3.2
				c0.3-0.3,0.8-0.5,1.2-0.5h17c1.5,0,2.8,1.2,2.8,2.8v20C48.5,45.3,47.3,46.5,45.8,46.5z"/>
            <path id="Fill-17" class="st3" d="M10,41.3c-0.4,0-0.8-0.3-0.8-0.8v-12c0-0.4,0.3-0.8,0.8-0.8c0.4,0,0.8,0.3,0.8,0.8v12
				C10.8,40.9,10.5,41.3,10,41.3"/>
            <path id="Fill-19" class="st3" d="M10,41.9l-5.5-5.5c-0.3-0.3-0.3-0.8,0-1.1c0.3-0.3,0.8-0.3,1.1,0l4.5,4.5l4.5-4.5
				c0.3-0.3,0.8-0.3,1.1,0c0.3,0.3,0.3,0.8,0,1.1L10,41.9z"/>
		</g>
	</g>
</g>
    <g id="Layer_2">
	<g>
		<g id="Icons">
			<g id="Premium">
				<path class="st5" d="M39.3,47.7H12.1c-1,0-1.8-0.7-2-1.6l-1-6.4h33.2l-1.1,6.4C41.1,47,40.2,47.7,39.3,47.7z"/>
                <path class="st6" d="M9.1,39.7h33.2l6.3-17.9c0.1-0.5-0.2-1.1-0.7-1.2c-0.3-0.1-0.6,0-0.8,0.1L41,25.1c-0.8,0.6-1.9,0.5-2.6-0.2
					L27.1,13.5c-0.8-0.8-2-0.8-2.8,0c0,0,0,0,0,0L13,24.8c-0.7,0.7-1.8,0.8-2.6,0.2l-6.1-4.3c-0.5-0.3-1.1-0.2-1.4,0.2
					c-0.2,0.2-0.2,0.5-0.1,0.8L9.1,39.7z"/>
                <path class="st5" d="M30,9.4l-2.7,3.4c-0.7,0.9-2,1-2.8,0.3c-0.1-0.1-0.2-0.2-0.3-0.3l-2.7-3.4c-0.6-0.7-0.6-1.8,0-2.5l2.7-3.4
					c0.7-0.9,2-1,2.8-0.3c0.1,0.1,0.2,0.2,0.3,0.3L30,6.9C30.6,7.6,30.6,8.7,30,9.4z"/>
                <g>
					<line class="st6" x1="20.6" y1="29.3" x2="27.6" y2="29.3"/>
                    <line class="st6" x1="20.6" y1="32.3" x2="27.6" y2="32.3"/>
                    <path class="st6" d="M28.2,25.7c-0.5-0.2-1.1-0.3-1.6-0.3c-2.9,0.1-5.1,2.6-5,5.5c-0.1,2.9,2.1,5.4,5,5.5
						c0.6,0,1.1-0.1,1.6-0.3"/>
				</g>
			</g>
		</g>
	</g>
</g>
    <g id="Layer_3" class="st0">
	<g class="st1">
		<g id="Icons_1_">
			<g id="Premium_1_">
				<path class="st7" d="M39.3,47.7H12.1c-1,0-1.8-0.7-2-1.6l-1-6.4h33.2l-1.1,6.4C41.1,47,40.2,47.7,39.3,47.7z"/>
                <path class="st8" d="M9.1,39.7h33.2l6.3-17.9c0.1-0.5-0.2-1.1-0.7-1.2c-0.3-0.1-0.6,0-0.8,0.1L41,25.1c-0.8,0.6-1.9,0.5-2.6-0.2
					L27.1,13.5c-0.8-0.8-2-0.8-2.8,0c0,0,0,0,0,0L13,24.8c-0.7,0.7-1.8,0.8-2.6,0.2l-6.1-4.3c-0.5-0.3-1.1-0.2-1.4,0.2
					c-0.2,0.2-0.2,0.5-0.1,0.8L9.1,39.7z"/>
                <path class="st7" d="M30,9.4l-2.7,3.4c-0.7,0.9-2,1-2.8,0.3c-0.1-0.1-0.2-0.2-0.3-0.3l-2.7-3.4c-0.6-0.7-0.6-1.8,0-2.5l2.7-3.4
					c0.7-0.9,2-1,2.8-0.3c0.1,0.1,0.2,0.2,0.3,0.3L30,6.9C30.6,7.6,30.6,8.7,30,9.4z"/>
                <g>
					<line class="st9" x1="20.6" y1="29.3" x2="27.6" y2="29.3"/>
                    <line class="st9" x1="20.6" y1="32.3" x2="27.6" y2="32.3"/>
                    <path class="st9" d="M28.2,25.7c-0.5-0.2-1.1-0.3-1.6-0.3c-2.9,0.1-5.1,2.6-5,5.5c-0.1,2.9,2.1,5.4,5,5.5
						c0.6,0,1.1-0.1,1.6-0.3"/>
				</g>
			</g>
		</g>
	</g>
</g>
</svg>
