<?xml version="1.0" encoding="UTF-8"?>
<svg width="51px" height="50px" viewBox="0 0 51 50" version="1.1" xmlns="http://www.w3.org/2000/svg">
    <g id="Buy" stroke="none" stroke-width="1" fill="none" fill-rule="evenodd">
        <g id="Group-17" transform="translate(2.159180, 1.978760)">
            <path d="M43.75,45.375 L2.75,45.375 C1.646,45.375 0.75,44.479 0.75,43.375 L0.75,15.375 C0.75,14.271 1.646,13.375 2.75,13.375 L43.75,13.375 C44.854,13.375 45.75,14.271 45.75,15.375 L45.75,43.375 C45.75,44.479 44.854,45.375 43.75,45.375" id="Fill-1" fill="#FFFFFF"></path>
            <path d="M2.75,14.125 C2.061,14.125 1.5,14.686 1.5,15.375 L1.5,43.375 C1.5,44.064 2.061,44.625 2.75,44.625 L43.75,44.625 C44.439,44.625 45,44.064 45,43.375 L45,15.375 C45,14.686 44.439,14.125 43.75,14.125 L2.75,14.125 Z M43.75,46.125 L2.75,46.125 C1.233,46.125 0,44.892 0,43.375 L0,15.375 C0,13.858 1.233,12.625 2.75,12.625 L43.75,12.625 C45.267,12.625 46.5,13.858 46.5,15.375 L46.5,43.375 C46.5,44.892 45.267,46.125 43.75,46.125 Z" id="Fill-3" fill="#000000"></path>
            <path d="M37.292,14.75 C37.292,22.482 31.024,28.75 23.292,28.75 C15.56,28.75 9.292,22.482 9.292,14.75 C9.292,7.018 15.56,0.75 23.292,0.75 C31.024,0.75 37.292,7.018 37.292,14.75" id="Fill-5" fill="#3EDBB5"></path>
            <path d="M23.292,1.5 C15.986,1.5 10.042,7.444 10.042,14.75 C10.042,22.056 15.986,28 23.292,28 C30.598,28 36.542,22.056 36.542,14.75 C36.542,7.444 30.598,1.5 23.292,1.5 M23.292,29.5 C15.159,29.5 8.542,22.883 8.542,14.75 C8.542,6.617 15.159,0 23.292,0 C31.425,0 38.042,6.617 38.042,14.75 C38.042,22.883 31.425,29.5 23.292,29.5" id="Fill-7" fill="#000000"></path>
            <path d="M38.75,39.375 L7.75,39.375 C6.646,39.375 5.75,38.479 5.75,37.375 L5.75,22.375 C5.75,21.271 6.646,20.375 7.75,20.375 L38.75,20.375 C39.854,20.375 40.75,21.271 40.75,22.375 L40.75,37.375 C40.75,38.479 39.854,39.375 38.75,39.375" id="Fill-9" fill="#FFFFFF"></path>
            <path d="M7.75,21.125 C7.061,21.125 6.5,21.686 6.5,22.375 L6.5,37.375 C6.5,38.064 7.061,38.625 7.75,38.625 L38.75,38.625 C39.439,38.625 40,38.064 40,37.375 L40,22.375 C40,21.686 39.439,21.125 38.75,21.125 L7.75,21.125 Z M38.75,40.125 L7.75,40.125 C6.233,40.125 5,38.892 5,37.375 L5,22.375 C5,20.858 6.233,19.625 7.75,19.625 L38.75,19.625 C40.267,19.625 41.5,20.858 41.5,22.375 L41.5,37.375 C41.5,38.892 40.267,40.125 38.75,40.125 Z" id="Fill-11" fill="#000000"></path>
            <path d="M23.3809,33.1929 C22.9669,33.1929 22.6309,32.8569 22.6309,32.4429 L22.6309,20.4429 C22.6309,20.0289 22.9669,19.6929 23.3809,19.6929 C23.7949,19.6929 24.1309,20.0289 24.1309,20.4429 L24.1309,32.4429 C24.1309,32.8569 23.7949,33.1929 23.3809,33.1929" id="Fill-13" fill="#000000"></path>
            <path d="M23.3369,33.771 L17.8069,28.241 C17.5139,27.948 17.5139,27.473 17.8069,27.18 C18.0999,26.887 18.5739,26.887 18.8669,27.18 L23.3369,31.65 L27.8069,27.18 C28.0999,26.887 28.5739,26.887 28.8669,27.18 C29.1599,27.473 29.1599,27.948 28.8669,28.241 L23.3369,33.771 Z" id="Fill-15" fill="#000000"></path>
        </g>
    </g>
</svg>
