<?xml version="1.0" encoding="UTF-8"?>
<svg width="51px" height="50px" viewBox="0 0 51 50" version="1.1" xmlns="http://www.w3.org/2000/svg">
    <g id="Card" stroke="none" stroke-width="1" fill="none" fill-rule="evenodd">
        <g id="Group-20" transform="translate(-1.147217, 1.998291)">
            <path d="M48.5674,45.5737 L4.7504,45.5737 C3.6454,45.5737 2.7504,44.6777 2.7504,43.5737 L2.7504,19.2257 C2.7504,18.1207 3.6454,17.2257 4.7504,17.2257 L48.5674,17.2257 C49.6714,17.2257 50.5674,18.1207 50.5674,19.2257 L50.5674,43.5737 C50.5674,44.6777 49.6714,45.5737 48.5674,45.5737" id="Fill-1" fill="#FFFFFF"></path>
            <path d="M4.75,17.9756 C4.061,17.9756 3.5,18.5366 3.5,19.2256 L3.5,43.5736 C3.5,44.2636 4.061,44.8236 4.75,44.8236 L48.567,44.8236 C49.257,44.8236 49.817,44.2636 49.817,43.5736 L49.817,19.2256 C49.817,18.5366 49.257,17.9756 48.567,17.9756 L4.75,17.9756 Z M48.567,46.3236 L4.75,46.3236 C3.233,46.3236 2,45.0896 2,43.5736 L2,19.2256 C2,17.7096 3.233,16.4756 4.75,16.4756 L48.567,16.4756 C50.084,16.4756 51.317,17.7096 51.317,19.2256 L51.317,43.5736 C51.317,45.0896 50.084,46.3236 48.567,46.3236 Z" id="Fill-3" fill="#000000"></path>
            <path d="M42.6523,29.2251 L36.7803,29.2251 C35.6743,29.2251 34.7803,28.3291 34.7803,27.2251 L34.7803,25.3721 C34.7803,24.2671 35.6743,23.3721 36.7803,23.3721 L42.6523,23.3721 C43.7573,23.3721 44.6523,24.2671 44.6523,25.3721 L44.6523,27.2251 C44.6523,28.3291 43.7573,29.2251 42.6523,29.2251" id="Fill-5" fill="#3EDBB5"></path>
            <path d="M36.7803,24.122 C36.0913,24.122 35.5303,24.683 35.5303,25.372 L35.5303,27.225 C35.5303,27.914 36.0913,28.475 36.7803,28.475 L42.6523,28.475 C43.3423,28.475 43.9023,27.914 43.9023,27.225 L43.9023,25.372 C43.9023,24.683 43.3423,24.122 42.6523,24.122 L36.7803,24.122 Z M42.6523,29.975 L36.7803,29.975 C35.2633,29.975 34.0303,28.741 34.0303,27.225 L34.0303,25.372 C34.0303,23.856 35.2633,22.622 36.7803,22.622 L42.6523,22.622 C44.1693,22.622 45.4023,23.856 45.4023,25.372 L45.4023,27.225 C45.4023,28.741 44.1693,29.975 42.6523,29.975 Z" id="Fill-7" fill="#000000"></path>
            <path d="M48.5674,45.5698 L4.7504,45.5698 C3.6454,45.5698 2.7504,44.6738 2.7504,43.5698 L2.7504,34.6778 C2.7504,34.4458 2.9384,34.2578 3.1704,34.2578 L50.1474,34.2578 C50.3794,34.2578 50.5674,34.4458 50.5674,34.6778 L50.5674,43.5698 C50.5674,44.6738 49.6714,45.5698 48.5674,45.5698" id="Fill-9" fill="#3EDBB5"></path>
            <path d="M3.5,35.0078 L3.5,43.5698 C3.5,44.2588 4.061,44.8198 4.75,44.8198 L48.567,44.8198 C49.257,44.8198 49.817,44.2588 49.817,43.5698 L49.817,35.0078 L3.5,35.0078 Z M48.567,46.3198 L4.75,46.3198 C3.233,46.3198 2,45.0868 2,43.5698 L2,34.6778 C2,34.0328 2.524,33.5078 3.17,33.5078 L50.147,33.5078 C50.793,33.5078 51.317,34.0328 51.317,34.6778 L51.317,43.5698 C51.317,45.0868 50.084,46.3198 48.567,46.3198 Z" id="Fill-11" fill="#000000"></path>
            <g id="Group-15" transform="translate(0.000000, 0.323700)">
                <path d="M47.5156,17.6519 L4.7496,17.6519 C4.3356,17.6519 3.9996,17.3159 3.9996,16.9019 C3.9996,16.4879 4.3356,16.1519 4.7496,16.1519 L43.6196,16.1519 L28.9486,2.8909 C28.4926,2.4239 27.9056,2.1759 27.3006,2.1759 L2.7496,2.1759 C2.3356,2.1759 1.9996,1.8399 1.9996,1.4259 C1.9996,1.0119 2.3356,0.6759 2.7496,0.6759 L27.3006,0.6759 C28.3076,0.6759 29.2866,1.0899 29.9896,1.8119 L47.5156,17.6519 Z" id="Fill-13" fill="#000000" ></path>
            </g>
            <path d="M12.4297,14.0317 L22.7797,23.5477 C23.1517,23.9027 23.6467,24.1007 24.1607,24.1007 L30.8637,24.1007 C31.7657,24.1007 32.2067,23.0007 31.5537,22.3777 L22.4297,14.0317" id="Fill-16" fill="#FFFFFF"></path>
            <path d="M30.8633,24.8506 L24.1613,24.8506 C23.4493,24.8506 22.7743,24.5806 22.2603,24.0896 L11.9223,14.5836 C11.6173,14.3036 11.5973,13.8296 11.8783,13.5236 C12.1583,13.2196 12.6333,13.2006 12.9373,13.4796 L23.2873,22.9956 C23.5303,23.2276 23.8373,23.3506 24.1613,23.3506 L30.8633,23.3506 C31.0103,23.3506 31.0723,23.2516 31.0953,23.1936 C31.1243,23.1216 31.1373,23.0166 31.0363,22.9206 L21.9243,14.5846 C21.6183,14.3056 21.5963,13.8306 21.8763,13.5256 C22.1563,13.2206 22.6303,13.1976 22.9353,13.4786 L32.0593,21.8246 C32.5923,22.3306 32.7563,23.0836 32.4883,23.7506 C32.2203,24.4186 31.5833,24.8506 30.8633,24.8506" id="Fill-18" fill="#000000"></path>
        </g>
    </g>
</svg>
