<?xml version="1.0" encoding="UTF-8" standalone="no"?>
<svg
   xmlns:dc="http://purl.org/dc/elements/1.1/"
   xmlns:cc="http://creativecommons.org/ns#"
   xmlns:rdf="http://www.w3.org/1999/02/22-rdf-syntax-ns#"
   xmlns:svg="http://www.w3.org/2000/svg"
   xmlns="http://www.w3.org/2000/svg"
   viewBox="0 0 42.666668 42.666668"
   height="42.666668"
   width="42.666668"
   xml:space="preserve"
   id="svg2"
   version="1.1"><metadata
     id="metadata8"><rdf:RDF><cc:Work
         rdf:about=""><dc:format>image/svg+xml</dc:format><dc:type
           rdf:resource="http://purl.org/dc/dcmitype/StillImage" /></cc:Work></rdf:RDF></metadata><defs
     id="defs6"><clipPath
       id="clipPath20"
       clipPathUnits="userSpaceOnUse"><path
         style="clip-rule:evenodd"
         id="path18"
         d="m 24.48503,22.96696 c 0.8008,0 1.4498,-0.65707 1.4498,-1.46667 v -9.38666 -1.54807 c 0,-0.810333 -0.649,-1.466667 -1.4498,-1.466667 H 6.850567 c -0.8008,0 -1.449067,0.656334 -1.449067,1.466667 v 1.54807 9.38666 c 0,0.8096 0.648267,1.46667 1.449067,1.46667 z m 1.4498,-8.51569 H 5.4015 v -1.46666 h 20.53333 z m -3.4801,4.30834 c 0.6072,0 1.1,0.4928 1.1,1.1 0,0.6072 -0.4928,1.1 -1.1,1.1 h -2.2 c -0.6072,0 -1.1,-0.4928 -1.1,-1.1 0,-0.6072 0.4928,-1.1 1.1,-1.1 z" /></clipPath></defs><g
     transform="matrix(1.3333333,0,0,-1.3333333,0,42.666667)"
     id="g10"><g
       id="g12" /><g
       id="g14"><g
         clip-path="url(#clipPath20)"
         id="g16"><path
           id="path22"
           style="fill:#000000;fill-opacity:1;fill-rule:nonzero;stroke:none"
           d="M 0.4015,27.96696 H 30.93483 V 4.098893 H 0.4015 Z" /></g></g></g></svg>