<?xml version="1.0" encoding="UTF-8" standalone="no"?>
<svg
   xmlns:dc="http://purl.org/dc/elements/1.1/"
   xmlns:cc="http://creativecommons.org/ns#"
   xmlns:rdf="http://www.w3.org/1999/02/22-rdf-syntax-ns#"
   xmlns:svg="http://www.w3.org/2000/svg"
   xmlns="http://www.w3.org/2000/svg"
   viewBox="0 0 42.666668 42.666668"
   height="42.666668"
   width="42.666668"
   xml:space="preserve"
   id="svg2"
   version="1.1"><metadata
     id="metadata8"><rdf:RDF><cc:Work
         rdf:about=""><dc:format>image/svg+xml</dc:format><dc:type
           rdf:resource="http://purl.org/dc/dcmitype/StillImage" /></cc:Work></rdf:RDF></metadata><defs
     id="defs6"><clipPath
       id="clipPath30"
       clipPathUnits="userSpaceOnUse"><path
         style="clip-rule:evenodd"
         id="path28"
         d="M 5,8.732007 H 26.26667 V 23.33341 H 5 Z" /></clipPath><clipPath
       id="clipPath36"
       clipPathUnits="userSpaceOnUse"><path
         id="path34"
         d="M 1,9 H 30 V 19 H 1 Z" /></clipPath><clipPath
       id="clipPath40"
       clipPathUnits="userSpaceOnUse"><path
         id="path38"
         d="M 5,8 H 27 V 24 H 5 Z" /></clipPath></defs><g
     transform="matrix(1.3333333,0,0,-1.3333333,0,42.666667)"
     id="g10"><g
       id="g12" /><g
       id="g14"><g
         transform="matrix(1,0,0,-1,5.367253,22.96696)"
         id="g16"><path
           id="path18"
           style="fill:none;stroke:#9da0a6;stroke-width:0.69999999;stroke-linecap:round;stroke-linejoin:miter;stroke-miterlimit:10;stroke-dasharray:none;stroke-opacity:1"
           d="M 19.08353,0 H 1.449067 C 0.6482667,0 0,0.6570667 0,1.466667 v 9.386663 1.54807 c 0,0.81033 0.6482667,1.46667 1.449067,1.46667 H 19.08353 c 0.8008,0 1.4498,-0.65634 1.4498,-1.46667 V 10.85333 1.466667 C 20.53333,0.6570667 19.88433,0 19.08353,0 Z" /></g><g
         transform="matrix(1,0,0,-1,19.12048,20.95961)"
         id="g20"><path
           id="path22"
           style="fill:none;stroke:#9da0a6;stroke-width:0.69999999;stroke-linecap:butt;stroke-linejoin:miter;stroke-miterlimit:10;stroke-dasharray:none;stroke-opacity:1"
           d="M 3.3,2.2 H 1.1 C 0.4928,2.2 0,1.7072 0,1.1 0,0.4928 0.4928,0 1.1,0 h 2.2 c 0.6072,0 1.1,0.4928 1.1,1.1 0,0.6072 -0.4928,1.1 -1.1,1.1 z" /></g></g><g
       id="g24"><g
         clip-path="url(#clipPath30)"
         id="g26"><g
           id="g32" /><g
           id="g54"><g
             id="g52"
             clip-path="url(#clipPath36)"><g
               id="g42" /><g
               id="g50"><g
                 id="g48"
                 clip-path="url(#clipPath40)"><g
                   id="g46"
                   transform="matrix(1,0,0,-1,5.366667,14.81794)"><path
                     id="path44"
                     style="fill:none;stroke:#9da0a6;stroke-width:0.69999999;stroke-linecap:butt;stroke-linejoin:miter;stroke-miterlimit:10;stroke-dasharray:none;stroke-opacity:1"
                     d="M 0,2.2 H 20.53333 V 0 H 0 Z" /></g></g></g></g></g></g></g></g></svg>