<?xml version="1.0" encoding="UTF-8"?>
<svg width="51px" height="50px" viewBox="0 0 51 50" version="1.1" xmlns="http://www.w3.org/2000/svg">
    <g id="Convert" stroke="none" stroke-width="1" fill="none" fill-rule="evenodd">
        <g id="Group-17" transform="translate(0.881836, -0.748291)">
            <path d="M33.1777,17.9639 C33.1777,26.9189 25.9187,34.1779 16.9637,34.1779 C8.0097,34.1779 0.7497,26.9189 0.7497,17.9639 C0.7497,9.0089 8.0097,1.7499 16.9637,1.7499 C25.9187,1.7499 33.1777,9.0089 33.1777,17.9639" id="Fill-1" fill="#3EDBB5"></path>
            <g id="Group-5" transform="translate(0.000000, 0.572300)">
                <path d="M16.9639,1.9277 C8.4379,1.9277 1.4999,8.8647 1.4999,17.3917 C1.4999,25.9187 8.4379,32.8557 16.9639,32.8557 C25.4899,32.8557 32.4279,25.9187 32.4279,17.3917 C32.4279,8.8647 25.4899,1.9277 16.9639,1.9277 M16.9639,34.3557 C7.6099,34.3557 -0.0001,26.7457 -0.0001,17.3917 C-0.0001,8.0377 7.6099,0.4277 16.9639,0.4277 C26.3179,0.4277 33.9279,8.0377 33.9279,17.3917 C33.9279,26.7457 26.3179,34.3557 16.9639,34.3557" id="Fill-3" fill="#000000"></path>
            </g>
            <path d="M48.4873,33.6084 C48.4873,42.5634 41.2283,49.8224 32.2733,49.8224 C23.3193,49.8224 16.0593,42.5634 16.0593,33.6084 C16.0593,24.6534 23.3193,17.3944 32.2733,17.3944 C41.2283,17.3944 48.4873,24.6534 48.4873,33.6084" id="Fill-6" fill="#FFFFFF"></path>
            <g id="Group-10" transform="translate(15.000000, 16.572300)">
                <path d="M17.2734,1.5723 C8.7474,1.5723 1.8094,8.5093 1.8094,17.0363 C1.8094,25.5633 8.7474,32.5003 17.2734,32.5003 C25.7994,32.5003 32.7374,25.5633 32.7374,17.0363 C32.7374,8.5093 25.7994,1.5723 17.2734,1.5723 M17.2734,34.0003 C7.9194,34.0003 0.3094,26.3903 0.3094,17.0363 C0.3094,7.6823 7.9194,0.0723 17.2734,0.0723 C26.6274,0.0723 34.2374,7.6823 34.2374,17.0363 C34.2374,26.3903 26.6274,34.0003 17.2734,34.0003" id="Fill-8" fill="#000000"></path>
            </g>
            <path d="M32.9258,35.231 C32.7328,35.231 32.5388,35.157 32.3928,35.008 L14.8508,17.247 C14.5598,16.953 14.5628,16.478 14.8568,16.187 C15.1518,15.897 15.6258,15.898 15.9168,16.193 L33.4588,33.954 C33.7498,34.249 33.7468,34.724 33.4528,35.015 C33.3068,35.159 33.1158,35.231 32.9258,35.231" id="Fill-11" fill="#000000"></path>
            <path d="M34.2363,35.8326 L27.7483,35.8326 C27.3343,35.8326 26.9983,35.4966 26.9983,35.0826 C26.9983,34.6686 27.3343,34.3326 27.7483,34.3326 L32.7363,34.3326 L32.7363,29.3096 C32.7363,28.8956 33.0723,28.5596 33.4863,28.5596 C33.9003,28.5596 34.2363,28.8956 34.2363,29.3096 L34.2363,35.8326 Z" id="Fill-13" fill="#000000"></path>
            <path d="M14.7783,22.7261 C14.3643,22.7261 14.0283,22.3901 14.0283,21.9761 L14.0283,15.3691 L20.5613,15.3691 C20.9753,15.3691 21.3113,15.7051 21.3113,16.1191 C21.3113,16.5331 20.9753,16.8691 20.5613,16.8691 L15.5283,16.8691 L15.5283,21.9761 C15.5283,22.3901 15.1923,22.7261 14.7783,22.7261" id="Fill-15" fill="#000000"></path>
        </g>
    </g>
</svg>
