<?xml version="1.0" encoding="UTF-8"?>
<svg width="51px" height="50px" viewBox="0 0 51 50" version="1.1" xmlns="http://www.w3.org/2000/svg">
    <g id="Fees-error" stroke="none" stroke-width="1" fill="none" fill-rule="evenodd">
        <g id="Group-28" transform="translate(3.000000, 0.000000)">
            <path d="M25.7441,1.75 C25.7161,3.106 24.6121,4.198 23.2501,4.198 C21.8871,4.198 20.7831,3.106 20.7551,1.75 L20.7441,1.75 C20.7161,3.106 19.6121,4.198 18.2501,4.198 C16.8871,4.198 15.7831,3.106 15.7551,1.75 L15.7441,1.75 C15.7161,3.106 14.6121,4.198 13.2501,4.198 C11.8871,4.198 10.7831,3.106 10.7551,1.75 L10.7441,1.75 C10.7161,3.106 9.6121,4.198 8.2501,4.198 C6.8871,4.198 5.7831,3.106 5.7551,1.75 L5.7441,1.75 C5.7161,3.106 4.6121,4.198 3.2501,4.198 C1.8871,4.198 0.7831,3.106 0.7551,1.75 L0.7501,1.75 L0.7501,14.75 L0.7501,34.75 L0.7501,47.75 L0.7551,47.75 C0.7831,46.394 1.8871,45.302 3.2501,45.302 C4.6121,45.302 5.7161,46.394 5.7441,47.75 L5.7551,47.75 C5.7831,46.394 6.8871,45.302 8.2501,45.302 C9.6121,45.302 10.7161,46.394 10.7441,47.75 L10.7551,47.75 C10.7831,46.394 11.8871,45.302 13.2501,45.302 C14.6121,45.302 15.7161,46.394 15.7441,47.75 L15.7551,47.75 C15.7831,46.394 16.8871,45.302 18.2501,45.302 C19.6121,45.302 20.7161,46.394 20.7441,47.75 L20.7551,47.75 C20.7831,46.394 21.8871,45.302 23.2501,45.302 C24.6121,45.302 25.7161,46.394 25.7441,47.75 L25.7501,47.75 L25.7501,34.75 L25.7501,14.75 L25.7501,1.75 L25.7441,1.75 Z" id="Fill-1" fill="#FFFFFF"></path>
            <g id="Group-5" transform="translate(0.000000, 0.083500)">
                <path d="M18.25,44.4688 C19.249,44.4688 20.151,44.9328 20.75,45.6568 C21.348,44.9328 22.251,44.4688 23.25,44.4688 C23.892,44.4688 24.493,44.6598 25,44.9888 L25,4.3438 C24.493,4.6728 23.892,4.8648 23.25,4.8648 C22.251,4.8648 21.348,4.3998 20.75,3.6758 C20.151,4.3998 19.249,4.8648 18.25,4.8648 C17.251,4.8648 16.348,4.3998 15.75,3.6758 C15.151,4.3998 14.249,4.8648 13.25,4.8648 C12.251,4.8648 11.348,4.3998 10.75,3.6758 C10.151,4.3998 9.249,4.8648 8.25,4.8648 C7.251,4.8648 6.348,4.3998 5.75,3.6758 C5.151,4.3998 4.249,4.8648 3.25,4.8648 C2.608,4.8648 2.007,4.6728 1.5,4.3448 L1.5,44.9888 C2.007,44.6598 2.608,44.4688 3.25,44.4688 C4.249,44.4688 5.151,44.9328 5.75,45.6568 C6.348,44.9328 7.251,44.4688 8.25,44.4688 C9.249,44.4688 10.151,44.9328 10.75,45.6568 C11.348,44.9328 12.251,44.4688 13.25,44.4688 C14.249,44.4688 15.151,44.9328 15.75,45.6568 C16.348,44.9328 17.251,44.4688 18.25,44.4688 Z M26.5,48.4168 L25.016,48.4168 L24.994,47.6818 C24.975,46.7378 24.192,45.9688 23.25,45.9688 C22.308,45.9688 21.524,46.7378 21.505,47.6818 L21.489,48.4168 L20.021,48.4168 L19.994,47.6818 C19.975,46.7378 19.192,45.9688 18.25,45.9688 C17.308,45.9688 16.524,46.7378 16.505,47.6818 L16.489,48.4168 L15.021,48.4168 L14.994,47.6818 C14.975,46.7378 14.192,45.9688 13.25,45.9688 C12.308,45.9688 11.524,46.7378 11.505,47.6818 L11.489,48.4168 L10.021,48.4168 L9.994,47.6818 C9.975,46.7378 9.192,45.9688 8.25,45.9688 C7.308,45.9688 6.524,46.7378 6.505,47.6818 L6.489,48.4168 L5.021,48.4168 L4.994,47.6818 C4.975,46.7378 4.192,45.9688 3.25,45.9688 C2.308,45.9688 1.524,46.7378 1.505,47.6818 L1.489,48.4168 L0.005,48.4168 L0,47.6668 L0,0.9168 L1.484,0.9168 L1.505,1.6508 C1.524,2.5958 2.308,3.3648 3.25,3.3648 C4.192,3.3648 4.975,2.5958 4.994,1.6508 L5.01,0.9168 L6.479,0.9168 L6.505,1.6508 C6.524,2.5958 7.308,3.3648 8.25,3.3648 C9.192,3.3648 9.975,2.5958 9.994,1.6508 L10.01,0.9168 L11.479,0.9168 L11.505,1.6508 C11.524,2.5958 12.308,3.3648 13.25,3.3648 C14.192,3.3648 14.975,2.5958 14.994,1.6508 L15.01,0.9168 L16.479,0.9168 L16.505,1.6508 C16.524,2.5958 17.308,3.3648 18.25,3.3648 C19.192,3.3648 19.975,2.5958 19.994,1.6508 L20.01,0.9168 L21.479,0.9168 L21.505,1.6508 C21.524,2.5958 22.308,3.3648 23.25,3.3648 C24.192,3.3648 24.975,2.5958 24.994,1.6508 L25.01,0.9168 L26.5,0.9168 L26.5,48.4168 Z" id="Fill-3" fill="#808080"></path>
            </g>
            <path d="M25.75,28.75 L25.75,14.75 L25.75,1.75 L25.744,1.75 C25.716,3.106 24.612,4.198 23.25,4.198 C21.887,4.198 20.783,3.106 20.755,1.75 L20.744,1.75 C20.716,3.106 19.612,4.198 18.25,4.198 C16.887,4.198 15.783,3.106 15.755,1.75 L15.744,1.75 C15.716,3.106 14.612,4.198 13.25,4.198 C11.887,4.198 10.783,3.106 10.755,1.75 L10.744,1.75 C10.716,3.106 9.612,4.198 8.25,4.198 C6.887,4.198 5.783,3.106 5.755,1.75 L5.744,1.75 C5.716,3.106 4.612,4.198 3.25,4.198 C1.887,4.198 0.783,3.106 0.755,1.75 L0.75,1.75 L0.75,14.75 L0.75,28.75 L25.75,28.75 Z" id="Fill-6" fill="#E6E6E6"></path>
            <g id="Group-10" transform="translate(0.000000, 0.083500)" fill="#808080">
                <path d="M1.5,27.9165 L25,27.9165 L25,4.3445 C24.493,4.6725 23.892,4.8645 23.25,4.8645 C22.251,4.8645 21.348,4.3995 20.75,3.6755 C20.151,4.3995 19.249,4.8645 18.25,4.8645 C17.251,4.8645 16.348,4.3995 15.75,3.6755 C15.151,4.3995 14.249,4.8645 13.25,4.8645 C12.251,4.8645 11.348,4.3995 10.75,3.6755 C10.151,4.3995 9.249,4.8645 8.25,4.8645 C7.251,4.8645 6.348,4.3995 5.75,3.6755 C5.151,4.3995 4.249,4.8645 3.25,4.8645 C2.608,4.8645 2.007,4.6725 1.5,4.3445 L1.5,27.9165 Z M26.5,29.4165 L0,29.4165 L0,0.9165 L1.484,0.9165 L1.505,1.6505 C1.524,2.5955 2.308,3.3645 3.25,3.3645 C4.192,3.3645 4.975,2.5955 4.994,1.6505 L5.01,0.9165 L6.479,0.9165 L6.505,1.6505 C6.524,2.5955 7.308,3.3645 8.25,3.3645 C9.192,3.3645 9.975,2.5955 9.994,1.6505 L10.01,0.9165 L11.479,0.9165 L11.505,1.6505 C11.524,2.5955 12.308,3.3645 13.25,3.3645 C14.192,3.3645 14.975,2.5955 14.994,1.6505 L15.01,0.9165 L16.479,0.9165 L16.505,1.6505 C16.524,2.5955 17.308,3.3645 18.25,3.3645 C19.192,3.3645 19.975,2.5955 19.994,1.6505 L20.01,0.9165 L21.479,0.9165 L21.505,1.6505 C21.524,2.5955 22.308,3.3645 23.25,3.3645 C24.192,3.3645 24.975,2.5955 24.994,1.6505 L25.01,0.9165 L26.494,0.9165 L26.5,1.6665 L26.5,29.4165 Z" id="Fill-8"></path>
            </g>
            <path d="M18.75,12.375 L7.75,12.375 C7.336,12.375 7,12.039 7,11.625 C7,11.211 7.336,10.875 7.75,10.875 L18.75,10.875 C19.164,10.875 19.5,11.211 19.5,11.625 C19.5,12.039 19.164,12.375 18.75,12.375" id="Fill-11" fill="#808080"></path>
            <path d="M18.75,16.375 L7.75,16.375 C7.336,16.375 7,16.039 7,15.625 C7,15.211 7.336,14.875 7.75,14.875 L18.75,14.875 C19.164,14.875 19.5,15.211 19.5,15.625 C19.5,16.039 19.164,16.375 18.75,16.375" id="Fill-13" fill="#808080"></path>
            <path d="M13.75,20.375 L7.75,20.375 C7.336,20.375 7,20.039 7,19.625 C7,19.211 7.336,18.875 7.75,18.875 L13.75,18.875 C14.164,18.875 14.5,19.211 14.5,19.625 C14.5,20.039 14.164,20.375 13.75,20.375" id="Fill-15" fill="#808080"></path>
            <path d="M44.6494,34.3335 C44.6494,42.0655 38.3814,48.3335 30.6494,48.3335 C22.9174,48.3335 16.6494,42.0655 16.6494,34.3335 C16.6494,26.6015 22.9174,20.3335 30.6494,20.3335 C38.3814,20.3335 44.6494,26.6015 44.6494,34.3335" id="Fill-17" fill="#FFFFFF"></path>
            <g id="Group-21" transform="translate(15.000000, 19.083500)">
                <path d="M15.6494,2 C8.3434,2 2.3994,7.944 2.3994,15.25 C2.3994,22.556 8.3434,28.5 15.6494,28.5 C22.9554,28.5 28.8994,22.556 28.8994,15.25 C28.8994,7.944 22.9554,2 15.6494,2 M15.6494,30 C7.5164,30 0.8994,23.383 0.8994,15.25 C0.8994,7.117 7.5164,0.5 15.6494,0.5 C23.7824,0.5 30.3994,7.117 30.3994,15.25 C30.3994,23.383 23.7824,30 15.6494,30" id="Fill-19" fill="#808080"></path>
            </g>
            <path d="M32.9736,33.6533 L25.6496,33.6533 C25.2356,33.6533 24.8996,33.3173 24.8996,32.9033 C24.8996,32.4893 25.2356,32.1533 25.6496,32.1533 L32.9736,32.1533 C33.3876,32.1533 33.7236,32.4893 33.7236,32.9033 C33.7236,33.3173 33.3876,33.6533 32.9736,33.6533" id="Fill-22" fill="#808080"></path>
            <path d="M32.9736,36.3809 L25.6496,36.3809 C25.2356,36.3809 24.8996,36.0449 24.8996,35.6309 C24.8996,35.2169 25.2356,34.8809 25.6496,34.8809 L32.9736,34.8809 C33.3876,34.8809 33.7236,35.2169 33.7236,35.6309 C33.7236,36.0449 33.3876,36.3809 32.9736,36.3809" id="Fill-24" fill="#808080"></path>
            <path d="M31.9492,40.0835 C28.6512,40.0835 25.9682,37.5035 25.9682,34.3335 C25.9682,31.1635 28.6512,28.5835 31.9492,28.5835 C32.5942,28.5835 33.2482,28.6965 33.8942,28.9205 C34.2862,29.0565 34.4932,29.4825 34.3582,29.8745 C34.2222,30.2665 33.7972,30.4725 33.4042,30.3385 C32.9162,30.1685 32.4262,30.0835 31.9492,30.0835 C29.4782,30.0835 27.4682,31.9905 27.4682,34.3335 C27.4682,36.6765 29.4782,38.5835 31.9492,38.5835 C32.4262,38.5835 32.9162,38.4985 33.4042,38.3285 C33.7972,38.1935 34.2222,38.4005 34.3582,38.7925 C34.4932,39.1845 34.2862,39.6105 33.8942,39.7465 C33.2482,39.9705 32.5942,40.0835 31.9492,40.0835" id="Fill-26" fill="#808080"></path>
        </g>
    </g>
</svg>
