<?xml version="1.0" encoding="UTF-8"?>
<svg width="32px" height="32px" viewBox="0 0 32 32" version="1.1" xmlns="http://www.w3.org/2000/svg" xmlns:xlink="http://www.w3.org/1999/xlink">
	<!-- Generator: Sketch 55 (78076) - https://sketchapp.com -->
	<title>Icons/Navbar/inactive/invite@0.5x</title>
	<desc>Created with Sketch.</desc>
	<g id="Icons/Navbar/inactive/invite" stroke="none" stroke-width="1" fill="none" fill-rule="evenodd">
		<g id="giftbox-copy" fill="#9DA0A6" fill-rule="nonzero" stroke="#FFFFFF" stroke-width="0.4">
			<path d="M28.8695061,6.21561944 L27.625946,6.21561944 C27.9737579,5.60855542 28.17382,4.90613677 28.17382,4.15732431 C28.17382,2.49240616 27.2299468,1.03910892 25.7106373,0.364363772 C24.1912028,-0.310443984 22.4823936,-0.0349611371 21.251021,1.08306095 L18.6258386,3.46630063 C18.0671522,2.60541673 17.0991541,2.03435331 15.9999063,2.03435331 C14.8989709,2.03435331 13.9296603,2.6071072 13.3714114,3.47030765 L10.7417915,1.08299834 C9.51035643,-0.0348985274 7.80142226,-0.310318765 6.28223773,0.364488991 C4.7628657,1.03910892 3.81905504,2.49253137 3.81905504,4.15738692 C3.81905504,4.90619938 4.01911715,5.60855542 4.36692897,6.21568205 L3.13043139,6.21568205 C1.40430976,6.21561944 0,7.62239765 0,9.35155339 L0,13.5328195 C0,14.1100813 0.467186588,14.5781517 1.04349796,14.5781517 L2.08699592,14.5781517 L2.08699592,28.8640661 C2.08699592,30.5932218 3.49130568,32 5.21742731,32 C6.23323783,32 25.9988242,32 26.7825727,32 C28.5086943,32 29.9130041,30.5932218 29.9130041,28.8640661 L29.9130041,14.5781517 L30.956502,14.5781517 C31.5327509,14.5781517 32,14.1101439 32,13.5328195 L32,9.35155339 C31.9999375,7.62239765 30.5956277,6.21561944 28.8695061,6.21561944 Z M12.8695374,29.9093356 L5.21736481,29.9093356 C4.64199093,29.9093356 4.17386685,29.4403887 4.17386685,28.8640034 L4.17386685,14.5781517 L12.8695374,14.5781517 L12.8695374,29.9093356 L12.8695374,29.9093356 Z M12.8695374,12.4874873 C12.4239132,12.4874873 2.53580755,12.4874873 2.08693342,12.4874873 L2.08693342,9.35155339 C2.08693342,8.77516814 2.55505751,8.3062212 3.13043139,8.3062212 C3.50174316,8.3062212 12.4215382,8.3062212 12.8695374,8.3062212 L12.8695374,12.4874873 Z M7.96067195,6.21555683 L7.96067195,6.21561944 C6.82773666,6.21561944 5.90598846,5.29225103 5.90598846,4.15732431 C5.90598846,3.3188547 6.36280007,2.61543429 7.12798608,2.27565124 C7.40748553,2.15155874 7.69517247,2.09057686 7.97804692,2.09057686 C8.46967096,2.09057686 8.94673253,2.27489993 9.34041926,2.6322137 L13.287599,6.21561944 L7.96067195,6.21561944 L7.96067195,6.21555683 Z M15.9999688,4.12501768 C16.4924053,4.12501768 16.9052795,4.46893297 17.0143418,4.92936499 L15.9964688,5.85342211 L14.9843457,4.93449898 C15.091408,4.47149997 15.5056572,4.12501768 15.9999688,4.12501768 Z M17.0434667,29.9093356 L14.9565333,29.9093356 L14.9565333,14.5781517 L17.0434667,14.5781517 L17.0434667,29.9093356 Z M17.0434667,12.4874873 L14.9565333,12.4874873 L14.9565333,8.3062212 C15.7024693,8.3062212 16.2902182,8.3062212 17.0434667,8.3062212 L17.0434667,12.4874873 Z M22.6524558,2.63227631 C23.2727045,2.06928955 24.0997029,1.93605602 24.8648889,2.27577646 C25.6300124,2.6154969 26.0868865,3.31897992 26.0868865,4.15738692 C26.0868865,5.29231364 25.1651383,6.21568205 24.0322031,6.21568205 L18.705276,6.21568205 L22.6524558,2.63227631 Z M27.8260082,28.8640661 C27.8260082,29.4404513 27.3578841,29.9093982 26.7825102,29.9093982 L19.1304001,29.9093982 L19.1304001,14.5781517 L27.8260082,14.5781517 L27.8260082,28.8640661 Z M29.9130041,12.4874873 C29.464005,12.4874873 19.5757743,12.4874873 19.1304001,12.4874873 L19.1304001,8.3062212 C19.5695243,8.3062212 28.4885694,8.3062212 28.8695061,8.3062212 C29.44488,8.3062212 29.9130041,8.77516814 29.9130041,9.35155339 L29.9130041,12.4874873 L29.9130041,12.4874873 Z" id="Shape"></path>
		</g>
	</g>
</svg>