<?xml version="1.0" encoding="utf-8"?>
<!-- Generator: Adobe Illustrator 23.0.3, SVG Export Plug-In . SVG Version: 6.00 Build 0)  -->
<svg version="1.1"
     id="svg2"
     xmlns="http://www.w3.org/2000/svg" xmlns:xlink="http://www.w3.org/1999/xlink" x="0px" y="0px" viewBox="0 0 42.7 42.7"
     style="enable-background:new 0 0 42.7 42.7;" xml:space="preserve">
    <g id="g10" transform="matrix(1.3333333,0,0,-1.3333333,0,42.666667)">
	<g id="g12">
	</g>
        <g id="g14">
		<g>
			<g>
				<g>
					<defs>
						<path id="SVGID_1_" d="M26.6,15.6c0-0.8-0.6-1.4-1.3-1.6h-0.2c-0.6-0.1-1-0.5-1.2-1c-0.1-0.1-0.1-0.3-0.2-0.4
							c-0.2-0.5-0.2-1.1,0.2-1.6l0.1-0.2c0.5-0.6,0.4-1.5-0.2-2l-0.6-0.6c-0.5-0.6-1.4-0.6-2-0.2L21,8.2c-0.5,0.3-1.1,0.4-1.6,0.2
							c-0.1-0.1-0.3-0.1-0.4-0.2C18.5,8,18.1,7.5,18,7V6.8c-0.1-0.8-0.8-1.3-1.6-1.3h-0.7c-0.8,0-1.4,0.6-1.6,1.3V7
							c-0.1,0.6-0.5,1-1,1.2c-0.2,0.1-0.3,0.1-0.5,0.2c-0.5,0.2-1.1,0.2-1.6-0.2l-0.2-0.1c-0.6-0.5-1.5-0.4-2,0.2L8.3,8.7
							c-0.5,0.5-0.6,1.4-0.2,2l0.1,0.2c0.3,0.5,0.4,1.1,0.2,1.6c-0.1,0.2-0.1,0.3-0.2,0.5C8,13.5,7.5,13.9,7,14H6.8
							c-0.8,0.1-1.3,0.8-1.3,1.6v0.7c0,0.8,0.6,1.4,1.3,1.6H7c0.6,0.1,1,0.5,1.2,1c0.1,0.2,0.1,0.3,0.2,0.5c0.2,0.5,0.2,1.1-0.2,1.6
							l-0.1,0.2c-0.5,0.6-0.4,1.5,0.2,2l0.5,0.5c0.5,0.5,1.4,0.6,2,0.2l0.2-0.1c0.5-0.3,1.1-0.4,1.6-0.2c0.2,0.1,0.3,0.1,0.5,0.2
							c0.5,0.2,0.9,0.7,1,1.2v0.2c0.1,0.8,0.8,1.3,1.6,1.3h0.8c0.8,0,1.4-0.6,1.6-1.3V25c0.1-0.6,0.5-1,1-1.2
							c0.1-0.1,0.3-0.1,0.4-0.2c0.5-0.2,1.1-0.2,1.6,0.2l0.2,0.1c0.6,0.5,1.5,0.4,2-0.2l0.6-0.6c0.6-0.5,0.6-1.4,0.2-2L23.8,21
							c-0.3-0.5-0.4-1.1-0.2-1.6c0.1-0.1,0.1-0.3,0.2-0.4c0.2-0.5,0.7-0.9,1.2-1h0.2c0.8-0.1,1.3-0.8,1.3-1.6v-0.8
							C26.5,15.6,26.6,15.6,26.6,15.6z M19.5,16c0,2-1.6,3.5-3.5,3.5S12.5,18,12.5,16s1.6-3.5,3.5-3.5S19.5,14,19.5,16z"/>
					</defs>
				</g>
			</g>
		</g>
	</g>
        <g id="g24">
	</g>
</g>
    <g id="Layer_3" style="display:none;">
	<g style="display:inline;">
		<g id="giftbox-copy_1_">
			<path id="Shape_1_" style="fill:stroke:#FFFFFF;stroke-width:0.4;" d="M32.5,11.6h-1.1c0.3-0.6,0.5-1.1,0.5-1.8c0-1.5-0.8-2.7-2.1-3.3C28.5,6,27,6.1,25.9,7.2
				l-2.3,2c-0.5-0.7-1.3-1.3-2.3-1.3c-0.9,0-1.8,0.5-2.3,1.3l-2.3-2.1c-1.1-1-2.6-1.2-3.9-0.6s-2.1,1.8-2.1,3.3
				c0,0.6,0.2,1.3,0.5,1.8h-1c-1.5,0-2.8,1.2-2.8,2.8V18c0,0.5,0.4,0.9,0.9,0.9h0.9v12.5c0,1.5,1.2,2.8,2.8,2.8c0.9,0,18.1,0,18.7,0
				c1.5,0,2.8-1.2,2.8-2.8V18.9h0.9c0.5,0,0.9-0.4,0.9-0.9v-3.6C35.3,12.9,34,11.6,32.5,11.6z M18.6,32.2H12c-0.5,0-0.9-0.4-0.9-0.9
				V18.9h7.6v13.3H18.6z M18.6,17.1c-0.4,0-8.9,0-9.4,0v-2.8c0-0.5,0.4-0.9,0.9-0.9c0.4,0,8.1,0,8.5,0V17.1z M14.4,11.6L14.4,11.6
				c-1,0-1.8-0.8-1.8-1.8c0-0.7,0.4-1.4,1.1-1.7C14,8.1,14.2,8,14.5,8c0.5,0,0.8,0.2,1.2,0.5l3.4,3.1H14.4L14.4,11.6z M21.4,9.8
				c0.5,0,0.8,0.3,0.9,0.7l-0.9,0.8l-0.9-0.8C20.5,10.1,20.9,9.8,21.4,9.8z M22.3,32.2h-1.8V18.9h1.8V32.2z M22.3,17.1h-1.8v-3.6
				c0.6,0,1.2,0,1.8,0V17.1z M27.2,8.5c0.6-0.5,1.3-0.6,1.9-0.3c0.6,0.3,1.1,0.9,1.1,1.7c0,1-0.8,1.8-1.8,1.8h-4.6L27.2,8.5z
				 M31.6,31.3c0,0.5-0.4,0.9-0.9,0.9h-6.6V18.9h7.6v12.4H31.6z M33.5,17.1c-0.4,0-8.9,0-9.4,0v-3.6c0.4,0,8.1,0,8.5,0
				c0.5,0,0.9,0.4,0.9,0.9V17.1L33.5,17.1z"/>
		</g>
        <path id="Path" d="M32.9,12.3L30,13.2c0.3-0.5-0.3-0.3-0.3-0.8c0.1-0.8-2.4,0.1-3.9,0c-1.4-0.1-2.6-0.6-3,0v-1.7
			c-0.5-0.6-0.7-2.5-3-1.7s1.2,2.8,0.7,3.3L19,13.2c-1-1-8.7-1.3-8.5-0.8l-1.4,0.8c-0.9,0-0.9,0.6-0.9,1.7v3.3c0,0.6,0.3,0,0.7,0
			h23.8c0.5,0,0.7,0.4,0.7-0.2l0.7-3.1C34.4,13.8,33.8,12.3,32.9,12.3z"/>
        <path id="Path-2" d="M7.5,6.2"/>
        <path style="fill:stroke:#000000;stroke-width:0.2;" d="M23.1,18.4v14.8H31c0.9,0,1.7-0.8,1.7-1.8v-13C32.7,18.4,23.1,18.4,23.1,18.4z"/>
        <path style="fill:stroke:#000000;stroke-width:0.2;" d="M19.6,18.4v14.8h-7.8c-0.9,0-1.7-0.8-1.7-1.8v-13C10.1,18.4,19.6,18.4,19.6,18.4z"/>
	</g>
</g>
    <g style="display:none">
	<g style="display:inline;">
		<g id="giftbox-copy">
			<path id="Shape" style="fill:#9DA0A6;stroke:#FFFFFF;stroke-width:0.4;" d="M32.5,12h-1.1c0.3-0.5,0.5-1.1,0.5-1.8c0-1.4-0.8-2.7-2.1-3.3C28.5,6.4,27,6.5,26,7.5l-2.3,2.1
				c-0.5-0.7-1.4-1.3-2.3-1.3s-1.8,0.5-2.3,1.3l-2.3-2.1c-1.1-1-2.5-1.2-3.8-0.6c-1.2,0.6-2,1.8-2,3.3c0,0.6,0.2,1.3,0.5,1.8h-1.1
				c-1.4,0-2.7,1.2-2.7,2.7v3.6c0,0.5,0.4,0.9,0.9,0.9h0.9v12.3c0,1.4,1.2,2.7,2.7,2.7c0.9,0,17.9,0,18.5,0c1.4,0,2.7-1.2,2.7-2.7
				V19.1h0.9c0.5,0,0.9-0.4,0.9-0.9v-3.6C35.2,13.1,34,12,32.5,12z M18.7,32.3h-6.6c-0.5,0-0.9-0.4-0.9-0.9V19.1h7.5V32.3L18.7,32.3
				z M18.7,17.3c-0.4,0-8.9,0-9.3,0v-2.7c0-0.5,0.4-0.9,0.9-0.9c0.4,0,8,0,8.4,0V17.3z M14.5,12L14.5,12c-1,0-1.8-0.8-1.8-1.8
				c0-0.7,0.4-1.4,1.1-1.6c0.3-0.1,0.5-0.2,0.7-0.2c0.5,0,0.8,0.2,1.2,0.5l3.4,3.1H14.5L14.5,12z M21.5,10.2c0.5,0,0.8,0.3,0.9,0.7
				l-0.9,0.8l-0.9-0.8C20.6,10.4,21,10.2,21.5,10.2z M22.4,32.3h-1.8V19.1h1.8V32.3z M22.4,17.3h-1.8v-3.6c0.6,0,1.2,0,1.8,0V17.3z
				 M27.2,8.9c0.5-0.5,1.3-0.6,1.9-0.3s1.1,0.9,1.1,1.6c0,1-0.8,1.8-1.8,1.8h-4.6L27.2,8.9z M31.6,31.4c0,0.5-0.4,0.9-0.9,0.9h-6.6
				V19.1h7.5V31.4z M33.4,17.3c-0.4,0-8.9,0-9.3,0v-3.6c0.4,0,8,0,8.4,0c0.5,0,0.9,0.4,0.9,0.9V17.3L33.4,17.3z"/>
		</g>
	</g>
</g>
    <g style="display:none">
	<g style="display:inline;">
		<path d="M29.5,11.6c0.5-0.6,0.9-1.4,0.9-2.2c0-1.8-1.5-3.3-3.2-3.3c-1.3,0-4.4,2-5.6,3.8c-1.3-1.8-4.3-3.7-5.6-3.7
			c-1.8,0-3.2,1.5-3.2,3.3c0,0.8,0.3,1.6,0.8,2.2H7.3v7.8H9v15.1h8.9h7.3H34V19.4h1.7v-7.8C35.7,11.6,29.5,11.6,29.5,11.6z
			 M27.1,7.3c1.1,0,2,0.9,2,2.1c0,1-0.7,1.9-1.6,2.1h-4.9c-0.3-0.1-0.4-0.2-0.4-0.3C22.2,10.2,25.8,7.3,27.1,7.3L27.1,7.3z
			 M15.9,7.3c1.3,0,5,2.9,5,3.9c0,0.1-0.2,0.2-0.4,0.3h-4.9c-0.9-0.2-1.6-1.1-1.6-2.1C13.9,8.3,14.8,7.3,15.9,7.3L15.9,7.3z
			 M17.9,33.3h-7.7V19.4h7.7V33.3z M17.9,18.3H8.5v-5.4h9.4L17.9,18.3L17.9,18.3z M23.9,33.3h-4.8V12.8h4.8V33.3z M32.8,33.3h-7.7
			V19.4h7.7V33.3z M34.5,18.3h-9.4v-5.4h9.4L34.5,18.3L34.5,18.3z"/>
        <rect x="8" y="12.4" width="27" height="6.4"/>
        <rect x="9.9" y="19.4" width="8.3" height="14.3"/>
        <rect x="24.8" y="19.4" width="8.3" height="14.7"/>
	</g>
</g>
    <g>
	<path d="M22.4,14.9c0.3,0,0.6-0.1,0.7-0.4c0.2-0.2,0.2-0.5,0.1-0.8c-0.6-2.2-1.8-4.2-3.3-5.9c-1.2-1.3-3-1.8-4.8-1.4
		c-0.2,0.1-0.4,0.3-0.5,0.5c0,0.1-0.1,0.3-0.1,0.4c0,0.2,0,0.3,0,0.5v0c0,1.4,0.6,2.8,1.6,3.8c1.7,1.5,3.8,2.6,6,3.2
		C22.2,14.9,22.3,14.9,22.4,14.9z M17.4,9.7C17.2,9.5,17.1,9.3,17,9v0c0-0.1,0-0.1-0.1-0.2c0,0,0-0.1,0-0.1c0,0,0,0,0-0.1
		c0,0,0,0,0-0.1c0-0.1,0-0.1,0-0.2c0.5,0,0.9,0.2,1.3,0.6c0.5,0.5,0.9,1.2,1.1,1.8C18.6,10.6,17.9,10.2,17.4,9.7L17.4,9.7z"/>
        <path d="M34.8,12.5h-7.4c0.3-0.2,0.6-0.5,0.9-0.7C30,10,30,7.4,28.9,6.3c-1.1-1.1-3.7-1-5.4,0.7c-0.7,0.8-1.3,1.6-1.7,2.6
		c-0.4-1-1-1.8-1.7-2.6c-1.7-1.7-4.3-1.8-5.4-0.7c-1.1,1.1-1,3.7,0.7,5.4c0.3,0.3,0.6,0.5,0.9,0.7H8.9c-0.3,0-0.5,0.2-0.5,0.5v4.8
		c0,0.3,0.2,0.5,0.5,0.5h1v13.9c0,1.3,1.1,2.4,2.4,2.4h19.2c1.3,0,2.4-1.1,2.4-2.4V18.2h1c0.3,0,0.5-0.2,0.5-0.5V13
		C35.2,12.7,35,12.5,34.8,12.5z M24.2,7.7c1.4-1.4,3.4-1.4,4.1-0.7s0.7,2.7-0.7,4.1c-0.6,0.6-1.3,1.1-2.1,1.4h-2.9c0,0,0,0,0,0
		c0-0.1,0-0.2,0-0.3c0,0,0-0.1,0-0.1c0-0.1,0-0.2,0-0.3c0,0,0-0.1,0-0.1c0-0.1,0-0.2-0.1-0.4c0,0,0,0,0,0c0-0.1-0.1-0.2-0.1-0.3
		c0,0,0,0,0,0C22.7,9.7,23.3,8.6,24.2,7.7z M23.7,17.3h-3.8v-3.8h3.8V17.3z M16,11.1c-1.4-1.4-1.4-3.4-0.7-4.1
		c0.7-0.7,2.7-0.7,4.1,0.7c0.9,1,1.5,2.1,1.9,3.4c0.1,0.2,0.1,0.3,0.1,0.5c0,0,0,0.1,0,0.1c0,0.1,0,0.2,0.1,0.3c0,0,0,0.1,0,0.1
		c0,0.1,0,0.2,0,0.4h-3.5C17.4,12.1,16.7,11.7,16,11.1z M9.3,13.5h9.6v3.8H9.3V13.5z M10.8,32.2V18.2h9.1v15.4h-7.7
		C11.4,33.6,10.8,33,10.8,32.2z M20.9,33.6V18.2h1.9v15.4H20.9z M32.8,32.2c0,0.8-0.6,1.4-1.4,1.4h-7.7V18.2h9.1V32.2z M34.3,17.3
		h-9.6v-3.8h9.6V17.3z"/>
        <path d="M21.7,15.2c0.1,0,0.2,0,0.2,0c2.1-0.7,4-1.9,5.6-3.5c1.2-1.3,1.7-3.2,1.4-5.1c-0.1-0.3-0.3-0.5-0.5-0.6
		c-1.6-0.4-3.3,0.2-4.5,1.6c-1.4,1.8-2.5,4-3.1,6.4c-0.1,0.3,0,0.6,0.1,0.8C21.2,15.1,21.4,15.2,21.7,15.2z M25.5,9
		c0.3-0.3,0.8-0.5,1.3-0.6c0,0.5-0.2,0.9-0.6,1.3c-0.5,0.5-1.2,0.9-1.8,1.1C24.7,10.2,25.1,9.6,25.5,9z"/>
        <rect x="9" y="12.9" width="25.2" height="4.8"/>
        <rect x="10.4" y="18.2" width="9.8" height="15.4"/>
        <rect x="23.7" y="17.8" width="9.6" height="15.8"/>
</g>
</svg>
