<?xml version="1.0" encoding="UTF-8"?>
<svg width="32px" height="32px" viewBox="0 0 32 32" version="1.1" xmlns="http://www.w3.org/2000/svg" xmlns:xlink="http://www.w3.org/1999/xlink">
    <!-- Generator: Sketch 55 (78076) - https://sketchapp.com -->
    <title>Icons/Navbar/active/wallet@0.5x</title>
    <desc>Created with Sketch.</desc>
    <g id="Icons/Navbar/active/wallet" stroke="none" stroke-width="1" fill="none" fill-rule="evenodd">
        <g id="giftbox-copy" transform="translate(7.000000, 7.000000)" fill="#000000" fill-rule="nonzero" stroke="#FFFFFF" stroke-width="0.4">
            <path d="M16.2390972,3.49628594 L15.5395946,3.49628594 C15.7352388,3.15481243 15.8477737,2.75970194 15.8477737,2.33849492 C15.8477737,1.40197846 15.3168451,0.584498766 14.4622335,0.204954622 C13.6075515,-0.174624741 12.6463464,-0.0196656396 11.9536993,0.609221786 L10.4770342,1.9497941 C10.1627731,1.46554691 9.61827418,1.14432374 8.99994727,1.14432374 C8.38067113,1.14432374 7.83543392,1.4664978 7.5214189,1.95204805 L6.04225773,0.609186568 C5.34957549,-0.0196304217 4.38830002,-0.174554305 3.53375872,0.205025057 C2.67911195,0.584498766 2.14821846,1.4020489 2.14821846,2.33853014 C2.14821846,2.75973715 2.2607534,3.15481243 2.45639755,3.49632115 L1.76086765,3.49632115 C0.789924238,3.49628594 0,4.28759868 0,5.26024878 L0,7.61221098 C0,7.93692073 0.262792455,8.20021033 0.586967604,8.20021033 L1.17393521,8.20021033 L1.17393521,16.2360372 C1.17393521,17.2086873 1.96385945,18 2.93480286,18 C3.50619628,18 14.6243386,18 15.0651971,18 C16.0361406,18 16.8260648,17.2086873 16.8260648,16.2360372 L16.8260648,8.20021033 L17.4130324,8.20021033 C17.7371724,8.20021033 18,7.93695595 18,7.61221098 L18,5.26024878 C17.9999648,4.28759868 17.2100406,3.49628594 16.2390972,3.49628594 Z M7.23911477,16.8240013 L2.93476771,16.8240013 C2.6111199,16.8240013 2.3478001,16.5602186 2.3478001,16.2360019 L2.3478001,8.20021033 L7.23911477,8.20021033 L7.23911477,16.8240013 L7.23911477,16.8240013 Z M7.23911477,7.02421163 C6.98845119,7.02421163 1.42639175,7.02421163 1.17390005,7.02421163 L1.17390005,5.26024878 C1.17390005,4.93603208 1.43721985,4.67224943 1.76086765,4.67224943 C1.96973053,4.67224943 6.98711526,4.67224943 7.23911477,4.67224943 L7.23911477,7.02421163 Z M4.47787797,3.49625072 L4.47787797,3.49628594 C3.84060187,3.49628594 3.32211851,2.9768912 3.32211851,2.33849492 C3.32211851,1.86685577 3.57907504,1.47118179 4.00949217,1.28005382 C4.16671061,1.21025179 4.32853451,1.17594948 4.48765139,1.17594948 C4.76418991,1.17594948 5.03253705,1.27963121 5.25398583,1.48062021 L7.47427446,3.49628594 L4.47787797,3.49628594 L4.47787797,3.49625072 Z M8.99998242,2.32032245 C9.27697797,2.32032245 9.50921971,2.5137748 9.57056724,2.7727678 L8.99801368,3.29254994 L8.42869448,2.77565568 C8.48891701,2.51521873 8.72193218,2.32032245 8.99998242,2.32032245 Z M9.58695003,16.8240013 L8.41304997,16.8240013 L8.41304997,8.20021033 L9.58695003,8.20021033 L9.58695003,16.8240013 Z M9.58695003,7.02421163 L8.41304997,7.02421163 L8.41304997,4.67224943 C8.832639,4.67224943 9.16324773,4.67224943 9.58695003,4.67224943 L9.58695003,7.02421163 Z M12.7420064,1.48065542 C13.0908963,1.16397537 13.5560829,1.08903151 13.9865,1.28012426 C14.416882,1.47121701 14.6738737,1.8669262 14.6738737,2.33853014 C14.6738737,2.97692642 14.1553903,3.49632115 13.5181142,3.49632115 L10.5217177,3.49632115 L12.7420064,1.48065542 Z M15.6521296,16.2360372 C15.6521296,16.5602539 15.3888098,16.8240365 15.065162,16.8240365 L10.7608501,16.8240365 L10.7608501,8.20021033 L15.6521296,8.20021033 L15.6521296,16.2360372 Z M16.8260648,7.02421163 C16.5735028,7.02421163 11.011373,7.02421163 10.7608501,7.02421163 L10.7608501,4.67224943 C11.0078574,4.67224943 16.0248203,4.67224943 16.2390972,4.67224943 C16.562745,4.67224943 16.8260648,4.93603208 16.8260648,5.26024878 L16.8260648,7.02421163 L16.8260648,7.02421163 Z" id="Shape"></path>
        </g>
        <path d="M23.5,11 L21.6538386,11.4842779 C21.8170648,11.2112299 21.4692872,11.3241481 21.5,11 C21.5490156,10.4824756 19.9296089,11.0741257 19,11 C18.0688027,10.9257476 17.3270801,10.6864292 17,11 L17,10 C16.695694,9.64819616 16.5,8.5 15,9 C13.5,9.5 15.8043725,10.6471082 15.5,11 L14.5,11.5 C13.8453353,10.8733933 8.83680696,10.7270923 9,11 L8.10868338,11.4842779 C7.49635255,11.4842779 7.5,11.8527918 7.5,12.5 L7.5,14.5 C7.5,14.8235865 7.69383458,14.5 8,14.5 L23.5,14.5 C23.8061322,14.5 24,14.7376563 24,14.4140346 L24.5,12.5 C24.4999668,11.8527918 24.1123308,11 23.5,11 Z" id="Path" fill="#000000" fill-rule="nonzero"></path>
        <path d="M17,15 L17,24 L21.9411839,24 C22.5259728,24 23,23.5164935 23,22.9200103 L23,15 L17,15 Z" id="Path" stroke="#000000" stroke-width="0.2" fill="#000000" fill-rule="nonzero"></path>
        <path d="M9,15 L9,24 L13.9411839,24 C14.5259728,24 15,23.5164935 15,22.9200103 L15,15 L9,15 Z" id="Path" stroke="#000000" stroke-width="0.2" fill="#000000" fill-rule="nonzero" transform="translate(12.000000, 19.500000) scale(-1, 1) translate(-12.000000, -19.500000) "></path>
    </g>
</svg>