<?xml version="1.0" encoding="utf-8"?>
<!-- Generator: Adobe Illustrator 23.0.3, SVG Export Plug-In . SVG Version: 6.00 Build 0)  -->
<svg version="1.1"
     id="svg2"
     xmlns="http://www.w3.org/2000/svg" xmlns:xlink="http://www.w3.org/1999/xlink" x="0px" y="0px" viewBox="0 0 42.7 42.7"
     style="enable-background:new 0 0 42.7 42.7;" xml:space="preserve">
<style type="text/css">
	.st0{clip-path:url(#SVGID_2_);}
	.st3{stroke:#FFFFFF;stroke-width:0.4;}
	.st4{stroke:#000000;stroke-width:0.2;}
</style>
    <g id="g10" transform="matrix(1.3333333,0,0,-1.3333333,0,42.666667)">
	<g id="g12">
	</g>
        <g id="g14">
		<g>
			<defs>
				<path id="SVGID_1_" d="M26.6,15.6c0-0.8-0.6-1.4-1.3-1.6l-0.2,0c-0.6-0.1-1-0.5-1.2-1c-0.1-0.1-0.1-0.3-0.2-0.4
					c-0.2-0.5-0.2-1.1,0.2-1.6l0.1-0.2c0.5-0.6,0.4-1.5-0.2-2l-0.6-0.6c-0.5-0.6-1.4-0.6-2-0.2L21,8.2c-0.5,0.3-1.1,0.4-1.6,0.2
					c-0.1-0.1-0.3-0.1-0.4-0.2c-0.5-0.2-0.9-0.7-1-1.2l0-0.2c-0.1-0.8-0.8-1.3-1.6-1.3h-0.7c-0.8,0-1.4,0.6-1.6,1.3l0,0.2
					c-0.1,0.6-0.5,1-1,1.2c-0.2,0.1-0.3,0.1-0.5,0.2c-0.5,0.2-1.1,0.2-1.6-0.2l-0.2-0.1c-0.6-0.5-1.5-0.4-2,0.2L8.3,8.7
					c-0.5,0.5-0.6,1.4-0.2,2l0.1,0.2c0.3,0.5,0.4,1.1,0.2,1.6c-0.1,0.2-0.1,0.3-0.2,0.5c-0.2,0.5-0.7,0.9-1.2,1l-0.2,0
					c-0.8,0.1-1.3,0.8-1.3,1.6v0.7c0,0.8,0.6,1.4,1.3,1.6l0.2,0c0.6,0.1,1,0.5,1.2,1c0.1,0.2,0.1,0.3,0.2,0.5
					c0.2,0.5,0.2,1.1-0.2,1.6l-0.1,0.2c-0.5,0.6-0.4,1.5,0.2,2l0.5,0.5c0.5,0.5,1.4,0.6,2,0.2l0.2-0.1c0.5-0.3,1.1-0.4,1.6-0.2
					c0.2,0.1,0.3,0.1,0.5,0.2c0.5,0.2,0.9,0.7,1,1.2l0,0.2c0.1,0.8,0.8,1.3,1.6,1.3h0.8c0.8,0,1.4-0.6,1.6-1.3l0-0.2
					c0.1-0.6,0.5-1,1-1.2c0.1-0.1,0.3-0.1,0.4-0.2c0.5-0.2,1.1-0.2,1.6,0.2l0.2,0.1c0.6,0.5,1.5,0.4,2-0.2l0.6-0.6
					c0.6-0.5,0.6-1.4,0.2-2L23.8,21c-0.3-0.5-0.4-1.1-0.2-1.6c0.1-0.1,0.1-0.3,0.2-0.4c0.2-0.5,0.7-0.9,1.2-1l0.2,0
					c0.8-0.1,1.3-0.8,1.3-1.6V15.6z M19.5,16c0,2-1.6,3.5-3.5,3.5S12.5,18,12.5,16s1.6-3.5,3.5-3.5S19.5,14,19.5,16z"/>
			</defs>
            <clipPath id="SVGID_2_">
				<use xlink:href="#SVGID_1_"  style="overflow:visible;"/>
			</clipPath>

		</g>
	</g>
        <g id="g24">
	</g>
</g>
    <g id="Layer_3">
	<g>
		<g id="giftbox-copy_1_">
			<path id="Shape_1_" class="st3" d="M32.5,11.6h-1.1c0.3-0.6,0.5-1.1,0.5-1.8c0-1.5-0.8-2.7-2.1-3.3C28.5,6,27,6.1,25.9,7.2
				l-2.3,2c-0.5-0.7-1.3-1.3-2.3-1.3c-0.9,0-1.8,0.5-2.3,1.3l-2.3-2.1c-1.1-1-2.6-1.2-3.9-0.6s-2.1,1.8-2.1,3.3
				c0,0.6,0.2,1.3,0.5,1.8h-1c-1.5,0-2.8,1.2-2.8,2.8v3.6c0,0.5,0.4,0.9,0.9,0.9h0.9v12.5c0,1.5,1.2,2.8,2.8,2.8
				c0.9,0,18.1,0,18.7,0c1.5,0,2.8-1.2,2.8-2.8V18.9h0.9c0.5,0,0.9-0.4,0.9-0.9v-3.6C35.3,12.9,34,11.6,32.5,11.6z M18.6,32.2H12
				c-0.5,0-0.9-0.4-0.9-0.9V18.9h7.6V32.2L18.6,32.2z M18.6,17.1c-0.4,0-8.9,0-9.4,0v-2.8c0-0.5,0.4-0.9,0.9-0.9c0.4,0,8.1,0,8.5,0
				V17.1z M14.4,11.6L14.4,11.6c-1,0-1.8-0.8-1.8-1.8c0-0.7,0.4-1.4,1.1-1.7C14,8.1,14.2,8,14.5,8c0.5,0,0.8,0.2,1.2,0.5l3.4,3.1
				H14.4L14.4,11.6z M21.4,9.8c0.5,0,0.8,0.3,0.9,0.7l-0.9,0.8l-0.9-0.8C20.5,10.1,20.9,9.8,21.4,9.8z M22.3,32.2h-1.8V18.9h1.8
				V32.2z M22.3,17.1h-1.8v-3.6c0.6,0,1.2,0,1.8,0V17.1z M27.2,8.5c0.6-0.5,1.3-0.6,1.9-0.3c0.6,0.3,1.1,0.9,1.1,1.7
				c0,1-0.8,1.8-1.8,1.8h-4.6L27.2,8.5z M31.6,31.3c0,0.5-0.4,0.9-0.9,0.9h-6.6V18.9h7.6V31.3z M33.5,17.1c-0.4,0-8.9,0-9.4,0v-3.6
				c0.4,0,8.1,0,8.5,0c0.5,0,0.9,0.4,0.9,0.9V17.1L33.5,17.1z"/>
		</g>
        <path id="Path" d="M32.9,12.3L30,13.2c0.3-0.5-0.3-0.3-0.3-0.8c0.1-0.8-2.4,0.1-3.9,0c-1.4-0.1-2.6-0.6-3,0v-1.7
			c-0.5-0.6-0.7-2.5-3-1.7c-2.3,0.8,1.2,2.8,0.7,3.3L19,13.2c-1-1-8.7-1.3-8.5-0.8l-1.4,0.8c-0.9,0-0.9,0.6-0.9,1.7v3.3
			c0,0.6,0.3,0,0.7,0h23.8c0.5,0,0.7,0.4,0.7-0.2l0.7-3.1C34.4,13.8,33.8,12.3,32.9,12.3z"/>
        <path id="Path-2" d="M7.5,6.2"/>
        <path class="st4" d="M23.1,18.4v14.8H31c0.9,0,1.7-0.8,1.7-1.8v-13H23.1z"/>
        <path class="st4" d="M19.6,18.4v14.8h-7.8c-0.9,0-1.7-0.8-1.7-1.8v-13H19.6z"/>
	</g>
</g>
</svg>
