<?xml version="1.0" encoding="utf-8"?>
<!-- Generator: Adobe Illustrator 23.0.3, SVG Export Plug-In . SVG Version: 6.00 Build 0)  -->
<svg version="1.1"
	 id="svg2"  xmlns:svg="http://www.w3.org/2000/svg"
	 xmlns="http://www.w3.org/2000/svg" xmlns:xlink="http://www.w3.org/1999/xlink" x="0px" y="0px" viewBox="0 0 42.7 42.7"
	 style="enable-background:new 0 0 42.7 42.7;" xml:space="preserve">
	<g id="g10" transform="matrix(1.3333333,0,0,-1.3333333,0,42.666667)">
	<g id="g12">
	</g>
		<g id="g14">
		<g>
			<g>
				<g>
					<defs>
						<path id="SVGID_1_" d="M26.6,15.6c0-0.8-0.6-1.4-1.3-1.6h-0.2c-0.6-0.1-1-0.5-1.2-1c-0.1-0.1-0.1-0.3-0.2-0.4
							c-0.2-0.5-0.2-1.1,0.2-1.6l0.1-0.2c0.5-0.6,0.4-1.5-0.2-2l-0.6-0.6c-0.5-0.6-1.4-0.6-2-0.2L21,8.2c-0.5,0.3-1.1,0.4-1.6,0.2
							c-0.1-0.1-0.3-0.1-0.4-0.2C18.5,8,18.1,7.5,18,7V6.8c-0.1-0.8-0.8-1.3-1.6-1.3h-0.7c-0.8,0-1.4,0.6-1.6,1.3V7
							c-0.1,0.6-0.5,1-1,1.2c-0.2,0.1-0.3,0.1-0.5,0.2c-0.5,0.2-1.1,0.2-1.6-0.2l-0.2-0.1c-0.6-0.5-1.5-0.4-2,0.2L8.3,8.7
							c-0.5,0.5-0.6,1.4-0.2,2l0.1,0.2c0.3,0.5,0.4,1.1,0.2,1.6c-0.1,0.2-0.1,0.3-0.2,0.5C8,13.5,7.5,13.9,7,14H6.8
							c-0.8,0.1-1.3,0.8-1.3,1.6v0.7c0,0.8,0.6,1.4,1.3,1.6H7c0.6,0.1,1,0.5,1.2,1c0.1,0.2,0.1,0.3,0.2,0.5c0.2,0.5,0.2,1.1-0.2,1.6
							l-0.1,0.2c-0.5,0.6-0.4,1.5,0.2,2l0.5,0.5c0.5,0.5,1.4,0.6,2,0.2l0.2-0.1c0.5-0.3,1.1-0.4,1.6-0.2c0.2,0.1,0.3,0.1,0.5,0.2
							c0.5,0.2,0.9,0.7,1,1.2v0.2c0.1,0.8,0.8,1.3,1.6,1.3h0.8c0.8,0,1.4-0.6,1.6-1.3V25c0.1-0.6,0.5-1,1-1.2
							c0.1-0.1,0.3-0.1,0.4-0.2c0.5-0.2,1.1-0.2,1.6,0.2l0.2,0.1c0.6,0.5,1.5,0.4,2-0.2l0.6-0.6c0.6-0.5,0.6-1.4,0.2-2L23.8,21
							c-0.3-0.5-0.4-1.1-0.2-1.6c0.1-0.1,0.1-0.3,0.2-0.4c0.2-0.5,0.7-0.9,1.2-1h0.2c0.8-0.1,1.3-0.8,1.3-1.6v-0.8
							C26.5,15.6,26.6,15.6,26.6,15.6z M19.5,16c0,2-1.6,3.5-3.5,3.5S12.5,18,12.5,16s1.6-3.5,3.5-3.5S19.5,14,19.5,16z"/>
					</defs>
					<clipPath id="SVGID_2_">
						<use xlink:href="#SVGID_1_"  style="overflow:visible;"/>
					</clipPath>
				</g>
			</g>
		</g>
	</g>
		<g id="g24">

	</g>
</g>
	<g>
	<path style="fill:#9DA0A6" d="M20,12.2c0.2,0,0.3-0.1,0.4-0.2c0.1-0.1,0.1-0.3,0.1-0.4c-0.3-1.2-0.9-2.3-1.7-3.2c-0.6-0.7-1.6-1-2.5-0.8
		c-0.1,0-0.2,0.1-0.3,0.3c0,0.1,0,0.1-0.1,0.2c0,0.1,0,0.2,0,0.3v0c0,0.8,0.3,1.5,0.9,2c0.9,0.8,2,1.4,3.2,1.7
		C19.9,12.2,20,12.2,20,12.2z M17.4,9.7C17.2,9.5,17.1,9.3,17,9v0c0-0.1,0-0.1-0.1-0.2c0,0,0-0.1,0-0.1c0,0,0,0,0-0.1c0,0,0,0,0-0.1
		c0-0.1,0-0.1,0-0.2c0.5,0,0.9,0.2,1.3,0.6c0.5,0.5,0.9,1.2,1.1,1.8C18.6,10.6,17.9,10.2,17.4,9.7L17.4,9.7z"/>
		<path style="fill:#9DA0A6" d="M34.8,12.5h-7.4c0.3-0.2,0.6-0.5,0.9-0.7C30,10,30,7.4,28.9,6.3c-1.1-1.1-3.7-1-5.4,0.7
		c-0.7,0.8-1.3,1.6-1.7,2.6c-0.4-1-1-1.8-1.7-2.6c-1.7-1.7-4.3-1.8-5.4-0.7c-1.1,1.1-1,3.7,0.7,5.4c0.3,0.3,0.6,0.5,0.9,0.7H8.9
		c-0.3,0-0.5,0.2-0.5,0.5v4.8c0,0.3,0.2,0.5,0.5,0.5h1v13.9c0,1.3,1.1,2.4,2.4,2.4h19.2c1.3,0,2.4-1.1,2.4-2.4V18.2h1
		c0.3,0,0.5-0.2,0.5-0.5V13C35.2,12.7,35,12.5,34.8,12.5z M24.2,7.7c1.4-1.4,3.4-1.4,4.1-0.7s0.7,2.7-0.7,4.1
		c-0.6,0.6-1.3,1.1-2.1,1.4h-2.9c0,0,0,0,0,0c0-0.1,0-0.2,0-0.3c0,0,0-0.1,0-0.1c0-0.1,0-0.2,0-0.3c0,0,0-0.1,0-0.1
		c0-0.1,0-0.2-0.1-0.4c0,0,0,0,0,0c0-0.1-0.1-0.2-0.1-0.3c0,0,0,0,0,0C22.7,9.7,23.3,8.6,24.2,7.7z M23.7,17.3h-3.8v-3.8h3.8V17.3z
		 M16,11.1c-1.4-1.4-1.4-3.4-0.7-4.1c0.7-0.7,2.7-0.7,4.1,0.7c0.9,1,1.5,2.1,1.9,3.4c0.1,0.2,0.1,0.3,0.1,0.5c0,0,0,0.1,0,0.1
		c0,0.1,0,0.2,0.1,0.3c0,0,0,0.1,0,0.1c0,0.1,0,0.2,0,0.4h-3.5C17.4,12.1,16.7,11.7,16,11.1z M9.3,13.5h9.6v3.8H9.3V13.5z
		 M10.8,32.2V18.2h9.1v15.4h-7.7C11.4,33.6,10.8,33,10.8,32.2z M20.9,33.6V18.2h1.9v15.4H20.9z M32.8,32.2c0,0.8-0.6,1.4-1.4,1.4
		h-7.7V18.2h9.1V32.2z M34.3,17.3h-9.6v-3.8h9.6V17.3z"/>
		<path style="fill:#9DA0A6" d="M23.6,12.2c0,0,0.1,0,0.1,0c1.2-0.3,2.3-0.9,3.2-1.7c0.7-0.7,1-1.6,0.8-2.5c0-0.1-0.1-0.2-0.3-0.3
		c-0.9-0.2-1.9,0.1-2.5,0.8c-0.8,0.9-1.4,2-1.7,3.2c0,0.1,0,0.3,0.1,0.4C23.3,12.1,23.4,12.2,23.6,12.2z M25.5,9
		c0.3-0.3,0.8-0.5,1.3-0.6c0,0.5-0.2,0.9-0.6,1.3c-0.5,0.5-1.2,0.9-1.8,1.1C24.7,10.2,25.1,9.6,25.5,9z"/>
</g>
</svg>