<svg id="Layer_1" xmlns="http://www.w3.org/2000/svg" xmlns:xlink="http://www.w3.org/1999/xlink" viewBox="0 0 30 30">
    <defs>
        <clipPath id="clip-path" transform="translate(-1 -1)">
            <path d="M25.14,14.56H18.55V10.73h6.6v3.83ZM24,25.15H18.55V15.36H24Zm-6.26,0H14.29V10.72H17.7ZM13.44,14.56H6.85V10.73h6.6v3.83Zm0,10.59H8V15.36h5.4ZM12,6.85c.89,0,3.49,2,3.49,2.77,0,.07-.15.14-.26.19H11.79a1.49,1.49,0,0,1-1.15-1.47A1.46,1.46,0,0,1,12,6.85Zm7.92,0a1.43,1.43,0,0,1,1.4,1.49,1.49,1.49,0,0,1-1.15,1.47H16.76c-.22-.07-.29-.14-.29-.19C16.47,8.89,19,6.85,20,6.85Zm1.64,3A2.3,2.3,0,0,0,20,6c-.94,0-3.1,1.4-4,2.67C15.1,7.4,12.94,6,12,6a2.3,2.3,0,0,0-1.68,3.83H6v5.49H7.19V26H24.81V15.36H26V9.87Z" style="fill: none"/>
        </clipPath>
    </defs>
    <title>invite</title>
    <g style="clip-path: url(#clip-path)">
        <rect width="30" height="30"/>
    </g>
</svg>
