<?xml version="1.0" encoding="utf-8"?>
<!-- Generator: Adobe Illustrator 23.0.3, SVG Export Plug-In . SVG Version: 6.00 Build 0)  -->
<svg version="1.1" xmlns="http://www.w3.org/2000/svg" xmlns:xlink="http://www.w3.org/1999/xlink" x="0px" y="0px"
	 viewBox="0 0 42.7 42.7" style="enable-background:new 0 0 42.7 42.7;" xml:space="preserve">
<style type="text/css">
	.st0{display:none;}
	.st1{display:inline;}
	.st2{fill:none;stroke:#9DA0A6;stroke-width:0.8;stroke-linecap:round;stroke-miterlimit:10;}
	.st3{fill:none;stroke:#9DA0A6;stroke-width:0.8;stroke-miterlimit:10;}
	.st4{fill:#9DA0A6;stroke:#FFFFFF;stroke-width:0.4;}
	.st5{stroke:#FFFFFF;stroke-width:0.4;}
	.st6{stroke:#000000;stroke-width:0.2;}
</style>
	<g id="svg2" xmlns:cc="http://creativecommons.org/ns#" xmlns:dc="http://purl.org/dc/elements/1.1/" xmlns:rdf="http://www.w3.org/1999/02/22-rdf-syntax-ns#" xmlns:svg="http://www.w3.org/2000/svg" class="st0">
	<g id="g10" transform="matrix(1.3333333,0,0,-1.3333333,0,42.666667)" class="st1">
		<g id="g12">
		</g>
		<g id="g14">
			<g id="g16" transform="matrix(1,0,0,-1,5.40032,26.59968)">
				<path id="path18" class="st2" d="M21.6,11.2v-0.8c0-0.8-0.6-1.5-1.4-1.6l-0.2,0c-0.6-0.1-1.1-0.5-1.3-1
					c-0.1-0.1-0.1-0.3-0.2-0.4c-0.2-0.5-0.2-1.1,0.2-1.6l0.1-0.2c0.5-0.6,0.4-1.5-0.2-2.1l-0.6-0.6c-0.6-0.6-1.4-0.6-2.1-0.2
					l-0.2,0.1c-0.5,0.3-1.1,0.4-1.6,0.2C14.1,3,14,2.9,13.8,2.8c-0.5-0.2-0.9-0.7-1-1.3l0-0.2C12.7,0.6,12,0,11.2,0h-0.8
					C9.6,0,8.9,0.6,8.8,1.4l0,0.2c-0.1,0.6-0.5,1-1,1.3C7.6,2.9,7.4,3,7.3,3C6.7,3.3,6.1,3.2,5.6,2.9L5.5,2.8C4.8,2.3,4,2.4,3.4,2.9
					L2.9,3.4C2.3,4,2.3,4.9,2.7,5.5l0.1,0.2C3.2,6.2,3.3,6.8,3,7.3C2.9,7.5,2.9,7.6,2.8,7.8c-0.2,0.5-0.7,0.9-1.3,1l-0.2,0
					C0.6,9,0,9.7,0,10.5v0.7c0,0.8,0.6,1.5,1.4,1.6l0.2,0c0.6,0.1,1.1,0.5,1.3,1C2.9,14,3,14.2,3,14.3c0.2,0.5,0.2,1.1-0.2,1.6
					l-0.1,0.2c-0.5,0.6-0.4,1.5,0.2,2.1l0.5,0.5c0.6,0.6,1.4,0.6,2.1,0.2l0.2-0.1c0.5-0.3,1.1-0.4,1.6-0.2c0.2,0.1,0.3,0.1,0.5,0.2
					c0.5,0.2,0.9,0.7,1,1.3l0,0.2c0.1,0.8,0.8,1.4,1.6,1.4h0.7c0.8,0,1.5-0.6,1.6-1.4l0-0.2c0.1-0.6,0.5-1.1,1-1.3
					c0.1-0.1,0.3-0.1,0.4-0.2c0.5-0.2,1.1-0.2,1.6,0.2l0.2,0.1c0.6,0.5,1.5,0.4,2.1-0.2l0.6-0.6c0.6-0.6,0.6-1.4,0.2-2.1l-0.1-0.2
					c-0.3-0.5-0.4-1.1-0.2-1.6c0.1-0.1,0.1-0.3,0.2-0.4c0.2-0.5,0.7-0.9,1.3-1l0.2,0C21,12.7,21.6,12,21.6,11.2z"/>
			</g>
			<g id="g20" transform="matrix(1,0,0,-1,12.60032,19.3996)">
				<path id="path22" class="st3" d="M7.2,3.6c0,2-1.6,3.6-3.6,3.6S0,5.6,0,3.6S1.6,0,3.6,0S7.2,1.6,7.2,3.6z"/>
			</g>
		</g>
	</g>
</g>
	<g id="Layer_2">
	<g>
		<g id="giftbox-copy">
			<path id="Shape" class="st4" d="M33.8,11.6h-1.2c0.3-0.6,0.5-1.2,0.5-2c0-1.6-0.9-3-2.3-3.6c-1.4-0.6-3.1-0.4-4.2,0.7L24.1,9
				c-0.5-0.8-1.5-1.4-2.5-1.4c-1,0-2,0.5-2.5,1.4l-2.5-2.3c-1.2-1.1-2.8-1.3-4.2-0.7C10.9,6.6,10,8,10,9.6c0,0.7,0.2,1.4,0.5,2H9.3
				c-1.6,0-3,1.3-3,3v4c0,0.5,0.4,1,1,1h1v13.6c0,1.6,1.3,3,3,3c1,0,19.8,0,20.5,0c1.6,0,3-1.3,3-3V19.5h1c0.5,0,1-0.4,1-1v-4
				C36.8,12.9,35.5,11.6,33.8,11.6z M18.6,34.1h-7.3c-0.5,0-1-0.4-1-1V19.5h8.3V34.1L18.6,34.1z M18.6,17.5c-0.4,0-9.8,0-10.3,0v-3
				c0-0.5,0.4-1,1-1c0.4,0,8.8,0,9.3,0V17.5z M13.9,11.6L13.9,11.6c-1.1,0-2-0.9-2-2c0-0.8,0.4-1.5,1.2-1.8c0.3-0.1,0.5-0.2,0.8-0.2
				c0.5,0,0.9,0.2,1.3,0.5l3.8,3.4L13.9,11.6L13.9,11.6z M21.6,9.6c0.5,0,0.9,0.3,1,0.8l-1,0.9l-1-0.9C20.7,9.9,21.1,9.6,21.6,9.6z
				 M22.6,34.1h-2V19.5h2V34.1z M22.6,17.5h-2v-4c0.7,0,1.3,0,2,0V17.5z M27.9,8.2c0.6-0.5,1.4-0.7,2.1-0.3c0.7,0.3,1.2,1,1.2,1.8
				c0,1.1-0.9,2-2,2h-5.1L27.9,8.2z M32.8,33.1c0,0.5-0.4,1-1,1h-7.3V19.5h8.3V33.1z M34.8,17.5c-0.4,0-9.8,0-10.3,0v-4
				c0.4,0,8.9,0,9.3,0c0.5,0,1,0.4,1,1V17.5L34.8,17.5z"/>
		</g>
	</g>
</g>
	<g id="Layer_3" class="st0">
	<g class="st1">
		<g id="giftbox-copy_1_">
			<path id="Shape_1_" class="st5" d="M33.7,11.6h-1.2c0.3-0.6,0.5-1.2,0.5-1.9c0-1.6-0.9-2.9-2.3-3.6c-1.4-0.6-3-0.4-4.2,0.7
				l-2.5,2.2c-0.5-0.8-1.4-1.4-2.5-1.4c-1,0-2,0.5-2.5,1.4l-2.5-2.3c-1.2-1.1-2.8-1.3-4.2-0.7c-1.4,0.6-2.3,2-2.3,3.6
				c0,0.7,0.2,1.4,0.5,1.9H9.4c-1.6,0-3,1.3-3,3v3.9c0,0.5,0.4,1,1,1h1V33c0,1.6,1.3,3,3,3c1,0,19.6,0,20.3,0c1.6,0,3-1.3,3-3V19.5
				h1c0.5,0,1-0.4,1-1v-3.9C36.7,13,35.3,11.6,33.7,11.6z M18.6,34h-7.2c-0.5,0-1-0.4-1-1V19.5h8.2V34L18.6,34z M18.6,17.6
				c-0.4,0-9.7,0-10.2,0v-3c0-0.5,0.4-1,1-1c0.4,0,8.8,0,9.2,0V17.6z M14,11.6L14,11.6c-1.1,0-1.9-0.9-1.9-1.9
				c0-0.8,0.4-1.5,1.2-1.8c0.3-0.1,0.5-0.2,0.8-0.2c0.5,0,0.9,0.2,1.3,0.5l3.7,3.4L14,11.6L14,11.6z M21.6,9.7c0.5,0,0.9,0.3,1,0.8
				l-1,0.9l-1-0.9C20.7,10,21.1,9.7,21.6,9.7z M22.6,34h-2V19.5h2V34z M22.6,17.6h-2v-3.9c0.7,0,1.3,0,2,0V17.6z M27.9,8.3
				c0.6-0.5,1.4-0.7,2.1-0.3c0.7,0.3,1.2,1,1.2,1.8c0,1.1-0.9,1.9-1.9,1.9h-5L27.9,8.3z M32.7,33c0,0.5-0.4,1-1,1h-7.2V19.5h8.2V33z
				 M34.7,17.6c-0.4,0-9.7,0-10.2,0v-3.9c0.4,0,8.8,0,9.2,0c0.5,0,1,0.4,1,1V17.6L34.7,17.6z"/>
		</g>
		<path id="Path" d="M34.1,12.4L31,13.3c0.3-0.5-0.3-0.3-0.3-0.9c0.1-0.9-2.6,0.1-4.2,0c-1.5-0.1-2.8-0.6-3.3,0v-1.8
			c-0.5-0.6-0.8-2.7-3.3-1.8c-2.5,0.9,1.3,3,0.8,3.6l-1.7,0.9c-1.1-1.1-9.4-1.4-9.2-0.9l-1.5,0.9c-1,0-1,0.7-1,1.8v3.6
			c0,0.6,0.3,0,0.8,0h25.8c0.5,0,0.8,0.4,0.8-0.2l0.8-3.4C35.7,14,35.1,12.4,34.1,12.4z"/>
		<path id="Path-2" d="M6.5,5.8"/>
		<path class="st6" d="M23.5,19v16H32c1,0,1.8-0.9,1.8-1.9V19H23.5z"/>
		<path class="st6" d="M19.7,19v16h-8.5c-1,0-1.8-0.9-1.8-1.9V19H19.7z"/>
	</g>
</g>
</svg>
