<?xml version="1.0" encoding="utf-8"?>
<!-- Generator: Adobe Illustrator 23.0.3, SVG Export Plug-In . SVG Version: 6.00 Build 0)  -->
<svg version="1.1" id="Layer_1" xmlns="http://www.w3.org/2000/svg" xmlns:xlink="http://www.w3.org/1999/xlink" x="0px" y="0px"
     viewBox="0 0 30 30" style="enable-background:new 0 0 30 30;" xml:space="preserve">
<style type="text/css">
	.st0{clip-path:url(#SVGID_2_);}
	.st1{fill:#9DA0A6;}
</style>
    <title>invite</title>
    <g>
	<defs>
		<path id="SVGID_1_" d="M24.1,13.6h-6.6V9.7h6.6L24.1,13.6L24.1,13.6z M23,24.1h-5.5v-9.8H23V24.1z M16.7,24.1h-3.4V9.7h3.4
			L16.7,24.1z M12.4,13.6H5.8V9.7h6.6L12.4,13.6L12.4,13.6z M12.4,24.2H7v-9.8h5.4L12.4,24.2z M11,5.8c0.9,0,3.5,2,3.5,2.8
			c0,0.1-0.1,0.1-0.3,0.2h-3.4C10.1,8.7,9.6,8,9.6,7.3C9.6,6.6,10.2,5.9,11,5.8z M18.9,5.8c0.8,0,1.4,0.7,1.4,1.5c0,0,0,0,0,0
			c0,0.7-0.5,1.3-1.1,1.5h-3.4c-0.2-0.1-0.3-0.1-0.3-0.2C15.5,7.9,18,5.8,18.9,5.8L18.9,5.8z M20.6,8.9c0.9-0.9,0.8-2.4-0.1-3.2
			C20,5.2,19.5,5,19,5c-0.9,0-3.1,1.4-4,2.7C14.1,6.4,11.9,5,11,5C9.7,5,8.7,6.1,8.7,7.3c0,0.6,0.2,1.1,0.6,1.5H5v5.5h1.2V25h17.6
			V14.4H25V8.9L20.6,8.9z"/>
	</defs>
        <clipPath id="SVGID_2_">
		<use xlink:href="#SVGID_1_"  style="overflow:visible;"/>
	</clipPath>
        <g class="st0">
		<rect class="st1" width="30" height="30"/>
	</g>
</g>
</svg>
