<?xml version="1.0" encoding="UTF-8" standalone="no"?>
<svg
   xmlns:dc="http://purl.org/dc/elements/1.1/"
   xmlns:cc="http://creativecommons.org/ns#"
   xmlns:rdf="http://www.w3.org/1999/02/22-rdf-syntax-ns#"
   xmlns:svg="http://www.w3.org/2000/svg"
   xmlns="http://www.w3.org/2000/svg"
   viewBox="0 0 42.666668 42.666668"
   height="42.666668"
   width="42.666668"
   xml:space="preserve"
   id="svg2"
   version="1.1"><metadata
     id="metadata8"><rdf:RDF><cc:Work
         rdf:about=""><dc:format>image/svg+xml</dc:format><dc:type
           rdf:resource="http://purl.org/dc/dcmitype/StillImage" /></cc:Work></rdf:RDF></metadata><defs
     id="defs6" /><g
     transform="matrix(1.3333333,0,0,-1.3333333,0,42.666667)"
     id="g10"><g
       id="g12" /><g
       id="g14"><g
         transform="matrix(1,0,0,-1,5.40032,26.59968)"
         id="g16"><path
           id="path18"
           style="fill:none;stroke:#9da0a6;stroke-width:0.80000001;stroke-linecap:round;stroke-linejoin:miter;stroke-miterlimit:10;stroke-dasharray:none;stroke-opacity:1"
           d="M 21.6,11.2032 V 10.396 C 21.6,9.604 21.0192,8.9304 20.236,8.8136 L 20.024,8.7824 C 19.4496,8.696 18.9736,8.3024 18.7664,7.7584 18.7096,7.6096 18.6488,7.4608 18.5832,7.316 18.3464,6.7848 18.404,6.1704 18.7496,5.7032 L 18.8768,5.532 C 19.348,4.8944 19.2824,4.0088 18.7216,3.4488 L 18.1504,2.8776 C 17.5904,2.3176 16.7048,2.252 16.068,2.7232 L 15.8968,2.8504 C 15.4288,3.196 14.8152,3.2528 14.2832,3.016 14.1384,2.9512 13.9904,2.8896 13.8408,2.8328 13.2968,2.6256 12.9032,2.1504 12.8168,1.5752 L 12.7856,1.3632 C 12.6688,0.58 11.9952,0 11.2032,0 H 10.396 C 9.604,0 8.9304,0.58 8.8144,1.3632 L 8.7824,1.576 C 8.6968,2.1488 8.3048,2.6248 7.7632,2.8312 7.5928,2.896 7.4248,2.9664 7.26,3.0416 6.732,3.2832 6.1168,3.2272 5.6488,2.8848 L 5.4808,2.7616 C 4.844,2.2952 3.9624,2.3632 3.4048,2.9208 L 2.8784,3.448 C 2.3168,4.0088 2.252,4.8952 2.724,5.532 L 2.8504,5.7016 C 3.1952,6.168 3.2552,6.7816 3.0176,7.3112 2.944,7.4776 2.8744,7.6456 2.8112,7.8176 2.6088,8.3608 2.1336,8.756 1.56,8.8456 L 1.3544,8.8776 C 0.5752,8.9976 0,9.6688 0,10.4576 v 0.7448 c 0,0.7928 0.5808,1.4664 1.3648,1.5832 l 0.2096,0.0312 c 0.5736,0.0848 1.0504,0.476 1.2568,1.0184 0.0648,0.1712 0.1352,0.3392 0.2104,0.504 0.2416,0.5288 0.1856,1.1432 -0.1576,1.612 l -0.1224,0.168 c -0.4664,0.636 -0.3984,1.5176 0.1592,2.076 l 0.5272,0.5256 c 0.5608,0.5616 1.4472,0.6272 2.084,0.1544 l 0.1696,-0.1256 c 0.4664,-0.3456 1.08,-0.4048 1.6096,-0.168 0.1664,0.0736 0.3344,0.1432 0.5056,0.2064 0.544,0.2032 0.9392,0.6776 1.0288,1.2512 l 0.032,0.2056 c 0.12,0.7792 0.792,1.3552 1.58,1.3552 h 0.7448 c 0.7928,0 1.4664,-0.5808 1.5824,-1.3648 l 0.032,-0.2096 c 0.0848,-0.5744 0.4792,-1.0512 1.0232,-1.2584 0.1496,-0.0568 0.2984,-0.1184 0.444,-0.1832 0.5312,-0.2376 1.1448,-0.18 1.612,0.1656 l 0.172,0.1272 c 0.6368,0.4712 1.5224,0.4056 2.0824,-0.1552 l 0.5712,-0.5704 c 0.5608,-0.5608 0.6264,-1.4464 0.1552,-2.0832 l -0.1272,-0.172 c -0.3456,-0.4672 -0.4032,-1.0808 -0.1664,-1.612 0.0656,-0.1456 0.1264,-0.2936 0.1832,-0.4432 0.2072,-0.544 0.6832,-0.9376 1.2576,-1.0232 l 0.212,-0.0312 C 21.0192,12.6688 21.6,11.9952 21.6,11.2032 Z" /></g><g
         transform="matrix(1,0,0,-1,12.60032,19.3996)"
         id="g20"><path
           id="path22"
           style="fill:none;stroke:#9da0a6;stroke-width:0.80000001;stroke-linecap:butt;stroke-linejoin:miter;stroke-miterlimit:10;stroke-dasharray:none;stroke-opacity:1"
           d="M 7.2,3.6 C 7.2,5.588 5.588,7.2 3.6,7.2 1.612,7.2 0,5.588 0,3.6 0,1.612 1.612,0 3.6,0 5.588,0 7.2,1.612 7.2,3.6 Z" /></g></g></g></svg>