<?xml version="1.0" encoding="UTF-8" standalone="no"?>
<svg
   xmlns:dc="http://purl.org/dc/elements/1.1/"
   xmlns:cc="http://creativecommons.org/ns#"
   xmlns:rdf="http://www.w3.org/1999/02/22-rdf-syntax-ns#"
   xmlns:svg="http://www.w3.org/2000/svg"
   xmlns="http://www.w3.org/2000/svg"
   viewBox="0 0 42.666668 42.666668"
   height="42.666668"
   width="42.666668"
   xml:space="preserve"
   id="svg2"
   version="1.1"><metadata
     id="metadata8"><rdf:RDF><cc:Work
         rdf:about=""><dc:format>image/svg+xml</dc:format><dc:type
           rdf:resource="http://purl.org/dc/dcmitype/StillImage" /></cc:Work></rdf:RDF></metadata><defs
     id="defs6"><clipPath
       id="clipPath20"
       clipPathUnits="userSpaceOnUse"><path
         style="clip-rule:evenodd"
         id="path18"
         d="m 26.60746,15.60369 c 0,-0.77786 -0.57043,-1.43943 -1.33965,-1.55493 L 25.0596,14.01811 c -0.56414,-0.08407 -1.03164,-0.47064 -1.23514,-1.00492 -0.05579,-0.14693 -0.1155,-0.29229 -0.17993,-0.43529 -0.23257,-0.52171 -0.176,-1.12436 0.16343,-1.58321 l 0.12493,-0.16893 c 0.46278,-0.62543 0.39835,-1.495217 -0.15243,-2.046003 l -0.561,-0.560214 c -0.55,-0.550786 -1.41979,-0.615214 -2.04522,-0.152429 l -0.16893,0.124929 c -0.45885,0.339428 -1.0615,0.396 -1.58321,0.162643 C 19.2791,8.291043 19.13296,8.230543 18.98603,8.174757 18.45174,7.971257 18.06439,7.502971 17.9811,6.938829 L 17.94967,6.732971 c -0.11393,-0.77 -0.7755,-1.340428 -1.55414,-1.340428 h -0.7315 c -0.77393,0 -1.43393,0.565714 -1.55179,1.331 l -0.03143,0.201928 c -0.088,0.563358 -0.47614,1.029286 -1.01042,1.228858 -0.16815,0.062071 -0.33315,0.130428 -0.49658,0.202714 -0.52014,0.232571 -1.12278,0.174428 -1.58085,-0.165 L 10.82639,8.068686 C 10.20096,7.604329 9.330386,7.668757 8.7796,8.220329 L 8.261814,8.736543 C 7.714171,9.284971 7.647386,10.15083 8.105457,10.77547 l 0.120214,0.165 c 0.337072,0.46043 0.392072,1.06386 0.154786,1.58322 -0.073857,0.16185 -0.143,0.32685 -0.206643,0.495 -0.202714,0.53271 -0.671,0.91692 -1.234357,1.00021 L 6.7336,14.04954 c -0.77,0.11472 -1.340429,0.77629 -1.340429,1.55493 v 0.7315 c 0,0.77472 0.564929,1.43393 1.330215,1.55179 l 0.201928,0.03143 c 0.563357,0.088 1.030072,0.47614 1.228857,1.00964 0.062072,0.16893 0.130429,0.33393 0.202715,0.49736 0.233357,0.52014 0.174428,1.12278 -0.164215,1.58085 l -0.124142,0.16657 c -0.463572,0.62543 -0.399929,1.496 0.151642,2.04679 l 0.517,0.51779 c 0.547643,0.54764 1.413499,0.61442 2.038929,0.15635 l 0.165,-0.121 c 0.45964,-0.33628 1.06386,-0.39128 1.58243,-0.154 0.16186,0.07386 0.32686,0.143 0.49421,0.20665 0.53193,0.20271 0.91693,0.67021 1.001,1.23278 l 0.03143,0.209 c 0.11393,0.76922 0.7755,1.33886 1.55336,1.33886 h 0.79278 c 0.77786,0 1.43943,-0.56964 1.55415,-1.33886 l 0.03064,-0.20821 c 0.08486,-0.56493 0.47143,-1.03165 1.00571,-1.23515 0.14693,-0.05578 0.29229,-0.11628 0.4345,-0.17992 0.5225,-0.23258 1.12515,-0.17679 1.58479,0.16264 l 0.16814,0.12493 c 0.62543,0.46278 1.49522,0.39835 2.04522,-0.15165 l 0.561,-0.561 c 0.55078,-0.55 0.61521,-1.41978 0.15243,-2.046 l -0.12493,-0.16814 c -0.33943,-0.45886 -0.396,-1.06228 -0.16343,-1.584 0.06443,-0.14221 0.12414,-0.28836 0.17993,-0.4345 0.2035,-0.53428 0.671,-0.92086 1.23514,-1.00571 l 0.20821,-0.03065 c 0.76922,-0.11471 1.33965,-0.77628 1.33965,-1.55414 z m -7.07143,0.39592 c 0,1.9525 -1.58322,3.53571 -3.53572,3.53571 -1.9525,0 -3.53571,-1.58321 -3.53571,-3.53571 0,-1.9525 1.58321,-3.53572 3.53571,-3.53572 1.9525,0 3.53572,1.58322 3.53572,3.53572 z" /></clipPath></defs><g
     transform="matrix(1.3333333,0,0,-1.3333333,0,42.666667)"
     id="g10"><g
       id="g12" /><g
       id="g14"><g
         clip-path="url(#clipPath20)"
         id="g16"><path
           id="path22"
           style="fill:#000000;fill-opacity:1;fill-rule:nonzero;stroke:none"
           d="M 0.3931714,31.60683 H 31.60746 V 0.3925429 H 0.3931714 Z" /></g></g><g
       id="g24"><g
         transform="matrix(1,0,0,-1,5.393171,26.60683)"
         id="g26"><path
           id="path28"
           style="fill:none;stroke:#000000;stroke-width:0.80000001;stroke-linecap:round;stroke-linejoin:miter;stroke-miterlimit:10;stroke-dasharray:none;stroke-opacity:1"
           d="m 21.21429,11.00314 v -0.79278 c 0,-0.77786 -0.57043,-1.439431 -1.33965,-1.554146 L 19.66643,8.625571 C 19.10229,8.540714 18.63479,8.154143 18.43129,7.619857 18.3755,7.473714 18.31579,7.327571 18.25136,7.185357 c -0.23257,-0.521714 -0.176,-1.125143 0.16343,-1.584 l 0.12492,-0.168143 c 0.46279,-0.626214 0.39836,-1.496 -0.15242,-2.046 l -0.561,-0.561 c -0.55,-0.55 -1.41979,-0.614428 -2.04522,-0.151643 L 15.61293,2.7995 C 15.15329,3.138929 14.55064,3.194714 14.02814,2.962143 13.88593,2.8985 13.74057,2.838 13.59364,2.782214 13.05936,2.578714 12.67279,2.112 12.58793,1.547071 L 12.55729,1.338857 C 12.44257,0.5696429 11.781,0 11.00314,0 H 10.21036 C 9.4325,0 8.770929,0.5696429 8.657,1.338857 l -0.031429,0.209 C 8.5415,2.110429 8.1565,2.577929 7.624571,2.780643 7.457214,2.844286 7.292214,2.913429 7.130357,2.987286 6.611786,3.224571 6.007571,3.169571 5.547929,2.833286 l -0.165,-0.121 C 4.7575,2.254214 3.891643,2.321 3.344,2.868643 L 2.827,3.386429 C 2.275429,3.937214 2.211786,4.807786 2.675357,5.433214 L 2.7995,5.599786 C 3.138143,6.057857 3.197071,6.6605 2.963714,7.180643 2.891429,7.344071 2.823071,7.509071 2.761,7.678 2.562214,8.2115 2.0955,8.599643 1.532143,8.687643 L 1.330214,8.719071 C 0.5649286,8.836929 0,9.496143 0,10.27086 v 0.7315 c 0,0.77864 0.5704286,1.44021 1.340429,1.55493 l 0.205857,0.03064 c 0.563357,0.08328 1.031643,0.4675 1.234357,1.00021 0.063643,0.16815 0.132786,0.33315 0.206643,0.495 0.237285,0.51936 0.182285,1.12279 -0.154786,1.58322 l -0.120214,0.165 C 2.254214,16.456 2.321,17.32186 2.868643,17.87029 l 0.517786,0.51621 c 0.550785,0.55157 1.421357,0.616 2.046785,0.15164 l 0.166572,-0.12335 c 0.458071,-0.33943 1.060714,-0.39758 1.580857,-0.165 0.163428,0.07228 0.328428,0.14064 0.496571,0.20271 0.534286,0.19957 0.922429,0.6655 1.010429,1.22886 l 0.031428,0.20193 c 0.117858,0.76528 0.777858,1.331 1.551789,1.331 h 0.7315 c 0.77864,0 1.44021,-0.57043 1.55414,-1.34043 L 12.58793,19.668 c 0.08328,-0.56414 0.47064,-1.03243 1.00493,-1.23593 0.14693,-0.05578 0.29307,-0.11628 0.43607,-0.17993 0.52171,-0.23335 1.12436,-0.17678 1.58321,0.16265 l 0.16893,0.12492 c 0.62543,0.46279 1.49522,0.39836 2.04522,-0.15242 l 0.561,-0.56022 c 0.55078,-0.55078 0.61521,-1.42057 0.15242,-2.046 l -0.12492,-0.16893 c -0.33943,-0.45885 -0.396,-1.0615 -0.16343,-1.58321 0.06443,-0.143 0.12414,-0.28836 0.17993,-0.43529 0.2035,-0.53428 0.671,-0.92085 1.23514,-1.00493 l 0.20821,-0.03064 c 0.76922,-0.1155 1.33965,-0.77707 1.33965,-1.55493 z" /></g></g></g></svg>