<?xml version="1.0" encoding="UTF-8" standalone="no"?>
<svg
   xmlns:dc="http://purl.org/dc/elements/1.1/"
   xmlns:cc="http://creativecommons.org/ns#"
   xmlns:rdf="http://www.w3.org/1999/02/22-rdf-syntax-ns#"
   xmlns:svg="http://www.w3.org/2000/svg"
   xmlns="http://www.w3.org/2000/svg"
   viewBox="0 0 42.666668 42.666668"
   height="42.666668"
   width="42.666668"
   xml:space="preserve"
   id="svg2"
   version="1.1"><metadata
     id="metadata8"><rdf:RDF><cc:Work
         rdf:about=""><dc:format>image/svg+xml</dc:format><dc:type
           rdf:resource="http://purl.org/dc/dcmitype/StillImage" /></cc:Work></rdf:RDF></metadata><defs
     id="defs6" /><g
     transform="matrix(1.3333333,0,0,-1.3333333,0,42.666667)"
     id="g10"><g
       id="g12" /><g
       id="g14"><g
         transform="matrix(1,0,0,-1,5.45045,25.05018)"
         id="g16"><path
           id="path18"
           style="fill:none;stroke:#9da0a6;stroke-width:0.89999998;stroke-linecap:round;stroke-linejoin:round;stroke-miterlimit:10;stroke-dasharray:none;stroke-opacity:1"
           d="M 21.3588,18.2313 H 1.8 c -0.9945,0 -1.8,-0.8055 -1.8,-1.8 L 0,0" /></g><g
         transform="matrix(1,0,0,-1,8.6198,14.79711)"
         id="g20"><path
           id="path22"
           style="fill:none;stroke:#9da0a6;stroke-width:0.89999998;stroke-linecap:butt;stroke-linejoin:miter;stroke-miterlimit:10;stroke-dasharray:none;stroke-opacity:1"
           d="M 3.0978,7.9668 H 0 V 1.5498 C 0,0.6939 0.693,0 1.5489,0 2.4039,0 3.0978,0.6939 3.0978,1.5498 Z" /></g><g
         transform="matrix(1,0,0,-1,14.53919,19.22241)"
         id="g24"><path
           id="path26"
           style="fill:none;stroke:#9da0a6;stroke-width:0.89999998;stroke-linecap:butt;stroke-linejoin:miter;stroke-miterlimit:10;stroke-dasharray:none;stroke-opacity:1"
           d="M 3.0978,12.3921 H 0 V 1.5489 C 0,0.6939 0.693,0 1.5489,0 2.4039,0 3.0978,0.6939 3.0978,1.5489 Z" /></g><g
         transform="matrix(1,0,0,-1,20.29253,23.64861)"
         id="g28"><path
           id="path30"
           style="fill:none;stroke:#9da0a6;stroke-width:0.89999998;stroke-linecap:butt;stroke-linejoin:miter;stroke-miterlimit:10;stroke-dasharray:none;stroke-opacity:1"
           d="M 3.0978,16.8183 H 0 V 1.5498 C 0,0.6939 0.6939,0 1.5489,0 2.4039,0 3.0978,0.6939 3.0978,1.5498 Z" /></g></g></g></svg>