<?xml version="1.0" encoding="UTF-8" standalone="no"?>
<svg
   xmlns:dc="http://purl.org/dc/elements/1.1/"
   xmlns:cc="http://creativecommons.org/ns#"
   xmlns:rdf="http://www.w3.org/1999/02/22-rdf-syntax-ns#"
   xmlns:svg="http://www.w3.org/2000/svg"
   xmlns="http://www.w3.org/2000/svg"
   viewBox="0 0 42.666668 42.666668"
   height="42.666668"
   width="42.666668"
   xml:space="preserve"
   id="svg2"
   version="1.1"><metadata
     id="metadata8"><rdf:RDF><cc:Work
         rdf:about=""><dc:format>image/svg+xml</dc:format><dc:type
           rdf:resource="http://purl.org/dc/dcmitype/StillImage" /></cc:Work></rdf:RDF></metadata><defs
     id="defs6"><clipPath
       id="clipPath26"
       clipPathUnits="userSpaceOnUse"><path
         style="clip-rule:evenodd"
         id="path24"
         d="M 11.56832,6.731529 H 8.53936 v 6.450951 c 0,0.86043 0.6776,1.558 1.51448,1.558 0.836,0 1.51448,-0.69757 1.51448,-1.558 z" /></clipPath><clipPath
       id="clipPath42"
       clipPathUnits="userSpaceOnUse"><path
         style="clip-rule:evenodd"
         id="path40"
         d="M 17.35617,6.731529 H 14.32721 V 17.6321 c 0,0.85952 0.6776,1.5571 1.51448,1.5571 0.836,0 1.51448,-0.69758 1.51448,-1.5571 z" /></clipPath><clipPath
       id="clipPath58"
       clipPathUnits="userSpaceOnUse"><path
         style="clip-rule:evenodd"
         id="path56"
         d="M 22.98166,6.731529 H 19.9527 V 22.08081 c 0,0.86043 0.67848,1.558 1.51448,1.558 0.836,0 1.51448,-0.69757 1.51448,-1.558 z" /></clipPath></defs><g
     transform="matrix(1.3333333,0,0,-1.3333333,0,42.666667)"
     id="g10"><g
       id="g12" /><g
       id="g14"><g
         transform="matrix(1,0,0,-1,5.44044,25.0478)"
         id="g16"><path
           id="path18"
           style="fill:none;stroke:#000000;stroke-width:1;stroke-linecap:round;stroke-linejoin:round;stroke-miterlimit:10;stroke-dasharray:none;stroke-opacity:1"
           d="M 20.88416,18.32776 H 1.76 C 0.7876,18.32776 0,17.518 0,16.51824 V 0" /></g></g><g
       id="g20"><g
         clip-path="url(#clipPath26)"
         id="g22"><path
           id="path28"
           style="fill:#000000;fill-opacity:1;fill-rule:nonzero;stroke:none"
           d="M 3.53936,19.74048 H 16.56832 V 1.731529 H 3.53936 Z" /></g></g><g
       id="g30"><g
         transform="matrix(1,0,0,-1,8.53936,14.74048)"
         id="g32"><path
           id="path34"
           style="fill:none;stroke:#000000;stroke-width:1;stroke-linecap:butt;stroke-linejoin:miter;stroke-miterlimit:10;stroke-dasharray:none;stroke-opacity:1"
           d="M 3.02896,8.008952 H 0 V 1.558 C 0,0.6975714 0.6776,0 1.51448,0 c 0.836,0 1.51448,0.6975714 1.51448,1.558 z" /></g></g><g
       id="g36"><g
         clip-path="url(#clipPath42)"
         id="g38"><path
           id="path44"
           style="fill:#000000;fill-opacity:1;fill-rule:nonzero;stroke:none"
           d="M 9.327208,24.1892 H 22.35617 V 1.731529 H 9.327208 Z" /></g></g><g
       id="g46"><g
         transform="matrix(1,0,0,-1,14.32721,19.1892)"
         id="g48"><path
           id="path50"
           style="fill:none;stroke:#000000;stroke-width:1;stroke-linecap:butt;stroke-linejoin:miter;stroke-miterlimit:10;stroke-dasharray:none;stroke-opacity:1"
           d="M 3.02896,12.45767 H 0 V 1.557095 C 0,0.6975714 0.6776,0 1.51448,0 c 0.836,0 1.51448,0.6975714 1.51448,1.557095 z" /></g></g><g
       id="g52"><g
         clip-path="url(#clipPath58)"
         id="g54"><path
           id="path60"
           style="fill:#000000;fill-opacity:1;fill-rule:nonzero;stroke:none"
           d="M 14.9527,28.63881 H 27.98166 V 1.731529 H 14.9527 Z" /></g></g><g
       id="g62"><g
         transform="matrix(1,0,0,-1,19.9527,23.63881)"
         id="g64"><path
           id="path66"
           style="fill:none;stroke:#000000;stroke-width:1;stroke-linecap:butt;stroke-linejoin:miter;stroke-miterlimit:10;stroke-dasharray:none;stroke-opacity:1"
           d="M 3.02896,16.90729 H 0 V 1.558 C 0,0.6975714 0.67848,0 1.51448,0 c 0.836,0 1.51448,0.6975714 1.51448,1.558 z" /></g></g></g></svg>