<?xml version="1.0" encoding="UTF-8" standalone="no"?>
<svg
   xmlns:dc="http://purl.org/dc/elements/1.1/"
   xmlns:cc="http://creativecommons.org/ns#"
   xmlns:rdf="http://www.w3.org/1999/02/22-rdf-syntax-ns#"
   xmlns:svg="http://www.w3.org/2000/svg"
   xmlns="http://www.w3.org/2000/svg"
   viewBox="0 0 50.666668 50.666668"
   height="50.666668"
   width="50.666668"
   xml:space="preserve"
   id="svg2"
   version="1.1"><metadata
     id="metadata8"><rdf:RDF><cc:Work
         rdf:about=""><dc:format>image/svg+xml</dc:format><dc:type
           rdf:resource="http://purl.org/dc/dcmitype/StillImage" /></cc:Work></rdf:RDF></metadata><defs
     id="defs6"><clipPath
       id="clipPath20"
       clipPathUnits="userSpaceOnUse"><path
         style="clip-rule:evenodd"
         id="path18"
         d="m 22.32136,22.39702 v 1.7298 h -6.9426 v -1.7298 c 0,-0.426 -0.3456,-0.7716 -0.7716,-0.7716 -2.1306,0 -3.8574,-1.7268 -3.8574,-3.8568 V 6.19702 c 0,-0.426 0.3456,-0.7716 0.7716,-0.7716 h 14.6574 c 0.426,0 0.771,0.3456 0.771,0.7716 v 11.5716 c 0,2.13 -1.7268,3.8568 -3.8568,3.8568 -0.426,0 -0.7716,0.3456 -0.7716,0.7716" /></clipPath><clipPath
       id="clipPath36"
       clipPathUnits="userSpaceOnUse"><path
         style="clip-rule:evenodd"
         id="path34"
         d="m 10.3,4.97548 h 17.1 v 28.4244 H 10.3 Z" /></clipPath><clipPath
       id="clipPath42"
       clipPathUnits="userSpaceOnUse"><path
         id="path40"
         d="M 8,0 H 29 V 38 H 8 Z" /></clipPath><clipPath
       id="clipPath46"
       clipPathUnits="userSpaceOnUse"><path
         style="clip-rule:evenodd"
         id="path44"
         d="m 14.6068,23.23468 h 8.4858 v 2.3142 h -8.4858 z" /></clipPath><clipPath
       id="clipPath50"
       clipPathUnits="userSpaceOnUse"><path
         id="path48"
         d="M 10,4 H 28 V 34 H 10 Z" /></clipPath><clipPath
       id="clipPath54"
       clipPathUnits="userSpaceOnUse"><path
         id="path52"
         d="M 10,4 H 28 V 34 H 10 Z" /></clipPath><clipPath
       id="clipPath58"
       clipPathUnits="userSpaceOnUse"><path
         style="clip-rule:evenodd"
         id="path56"
         d="m 21.55,30.25 c 0,-1.491 -1.209,-2.7 -2.7,-2.7 -1.491,0 -2.7,1.209 -2.7,2.7 0,1.491 1.209,2.7 2.7,2.7 1.491,0 2.7,-1.209 2.7,-2.7" /></clipPath><clipPath
       id="clipPath62"
       clipPathUnits="userSpaceOnUse"><path
         id="path60"
         d="M 10,4 H 28 V 34 H 10 Z" /></clipPath><clipPath
       id="clipPath66"
       clipPathUnits="userSpaceOnUse"><path
         id="path64"
         d="M 10,4 H 28 V 34 H 10 Z" /></clipPath><clipPath
       id="clipPath70"
       clipPathUnits="userSpaceOnUse"><path
         style="clip-rule:evenodd"
         id="path68"
         d="m 18.4642,5.42548 h 5.4 v 2.3142 h -5.4 z" /></clipPath><clipPath
       id="clipPath74"
       clipPathUnits="userSpaceOnUse"><path
         id="path72"
         d="M 10,4 H 28 V 34 H 10 Z" /></clipPath><clipPath
       id="clipPath78"
       clipPathUnits="userSpaceOnUse"><path
         id="path76"
         d="M 10,4 H 28 V 34 H 10 Z" /></clipPath><clipPath
       id="clipPath82"
       clipPathUnits="userSpaceOnUse"><path
         style="clip-rule:evenodd"
         id="path80"
         d="m 18.4642,7.73968 h 5.4 v 2.3142 h -5.4 z" /></clipPath><clipPath
       id="clipPath86"
       clipPathUnits="userSpaceOnUse"><path
         id="path84"
         d="M 10,4 H 28 V 34 H 10 Z" /></clipPath><clipPath
       id="clipPath90"
       clipPathUnits="userSpaceOnUse"><path
         id="path88"
         d="M 10,4 H 28 V 34 H 10 Z" /></clipPath><clipPath
       id="clipPath94"
       clipPathUnits="userSpaceOnUse"><path
         style="clip-rule:evenodd"
         id="path92"
         d="m 18.49168,9.988 -3.8184,-3.8184 -1.6362,1.6362 3.8178,3.8184 z" /></clipPath><clipPath
       id="clipPath98"
       clipPathUnits="userSpaceOnUse"><path
         id="path96"
         d="M 10,4 H 28 V 34 H 10 Z" /></clipPath><clipPath
       id="clipPath102"
       clipPathUnits="userSpaceOnUse"><path
         id="path100"
         d="M 10,4 H 28 V 34 H 10 Z" /></clipPath></defs><g
     transform="matrix(1.3333333,0,0,-1.3333333,0,50.666667)"
     id="g10"><g
       id="g12" /><g
       id="g14"><g
         clip-path="url(#clipPath20)"
         id="g16"><path
           id="path22"
           style="fill:#ffffff;fill-opacity:1;fill-rule:nonzero;stroke:none"
           d="m 5.74976,29.12682 h 26.2 V 0.42542 h -26.2 z" /></g></g><g
       id="g24"><g
         transform="matrix(1,0,0,-1,10.74976,24.12682)"
         id="g26"><path
           id="path28"
           style="fill:none;stroke:#000000;stroke-width:0.89999998;stroke-linecap:butt;stroke-linejoin:miter;stroke-miterlimit:10;stroke-dasharray:none;stroke-opacity:1"
           d="M 11.5716,1.7298 V 0 H 4.629 v 1.7298 c 0,0.426 -0.3456,0.7716 -0.7716,0.7716 C 1.7268,2.5014 0,4.2282 0,6.3582 v 11.5716 c 0,0.426 0.3456,0.7716 0.7716,0.7716 H 15.429 c 0.426,0 0.771,-0.3456 0.771,-0.7716 V 6.3582 c 0,-2.13 -1.7268,-3.8568 -3.8568,-3.8568 -0.426,0 -0.7716,-0.3456 -0.7716,-0.7716 z" /></g></g><g
       id="g30"><g
         clip-path="url(#clipPath36)"
         id="g32"><g
           id="g38" /><g
           id="g188"><g
             id="g186"
             clip-path="url(#clipPath42)"><g
               id="g104" /><g
               id="g112"><g
                 id="g110"
                 clip-path="url(#clipPath46)"><g
                   id="g108"
                   clip-path="url(#clipPath50)"><path
                     id="path106"
                     style="fill:#ffffff;fill-opacity:1;fill-rule:nonzero;stroke:none"
                     d="M 9.6068,30.54888 H 28.0926 V 18.23468 H 9.6068 Z" /></g></g></g><g
               id="g120"><g
                 id="g118"
                 clip-path="url(#clipPath54)"><g
                   id="g116"
                   transform="matrix(1,0,0,-1,14.6068,25.54888)"><path
                     id="path114"
                     style="fill:none;stroke:#000000;stroke-width:0.89999998;stroke-linecap:butt;stroke-linejoin:miter;stroke-miterlimit:10;stroke-dasharray:none;stroke-opacity:1"
                     d="M 0,2.3142 H 8.4858 V 0 H 0 Z" /></g></g></g><g
               id="g128"><g
                 id="g126"
                 clip-path="url(#clipPath58)"><g
                   id="g124"
                   clip-path="url(#clipPath62)"><path
                     id="path122"
                     style="fill:#3edbb5;fill-opacity:1;fill-rule:nonzero;stroke:none"
                     d="m 11.15,37.95 h 15.4 v -15.4 h -15.4 z" /></g></g></g><g
               id="g136"><g
                 id="g134"
                 clip-path="url(#clipPath66)"><g
                   id="g132"
                   transform="matrix(1,0,0,-1,16.15,32.95)"><path
                     id="path130"
                     style="fill:none;stroke:#000000;stroke-width:0.89999998;stroke-linecap:butt;stroke-linejoin:miter;stroke-miterlimit:10;stroke-dasharray:none;stroke-opacity:1"
                     d="M 5.4,2.7 C 5.4,4.191 4.191,5.4 2.7,5.4 1.209,5.4 0,4.191 0,2.7 0,1.209 1.209,0 2.7,0 4.191,0 5.4,1.209 5.4,2.7 Z" /></g></g></g><g
               id="g144"><g
                 id="g142"
                 clip-path="url(#clipPath70)"><g
                   id="g140"
                   clip-path="url(#clipPath74)"><path
                     id="path138"
                     style="fill:#3edbb5;fill-opacity:1;fill-rule:nonzero;stroke:none"
                     d="m 13.4642,12.73968 h 15.4 V 0.42548 h -15.4 z" /></g></g></g><g
               id="g152"><g
                 id="g150"
                 clip-path="url(#clipPath78)"><g
                   id="g148"
                   transform="matrix(1,0,0,-1,18.4642,7.73968)"><path
                     id="path146"
                     style="fill:none;stroke:#000000;stroke-width:0.89999998;stroke-linecap:butt;stroke-linejoin:miter;stroke-miterlimit:10;stroke-dasharray:none;stroke-opacity:1"
                     d="M 0,2.3142 H 5.4 V 0 H 0 Z" /></g></g></g><g
               id="g160"><g
                 id="g158"
                 clip-path="url(#clipPath82)"><g
                   id="g156"
                   clip-path="url(#clipPath86)"><path
                     id="path154"
                     style="fill:#3edbb5;fill-opacity:1;fill-rule:nonzero;stroke:none"
                     d="m 13.4642,15.05388 h 15.4 V 2.73968 h -15.4 z" /></g></g></g><g
               id="g168"><g
                 id="g166"
                 clip-path="url(#clipPath90)"><g
                   id="g164"
                   transform="matrix(1,0,0,-1,18.4642,10.05388)"><path
                     id="path162"
                     style="fill:none;stroke:#000000;stroke-width:0.89999998;stroke-linecap:butt;stroke-linejoin:miter;stroke-miterlimit:10;stroke-dasharray:none;stroke-opacity:1"
                     d="M 0,2.3142 H 5.4 V 0 H 0 Z" /></g></g></g><g
               id="g176"><g
                 id="g174"
                 clip-path="url(#clipPath94)"><g
                   id="g172"
                   clip-path="url(#clipPath98)"><path
                     id="path170"
                     style="fill:#3edbb5;fill-opacity:1;fill-rule:nonzero;stroke:none"
                     d="m 8.03708,16.6242 h 15.4546 V 1.1696 H 8.03708 Z" /></g></g></g><g
               id="g184"><g
                 id="g182"
                 clip-path="url(#clipPath102)"><g
                   id="g180"
                   transform="matrix(1,0,0,-1,13.03708,11.6242)"><path
                     id="path178"
                     style="fill:none;stroke:#000000;stroke-width:0.89999998;stroke-linecap:butt;stroke-linejoin:miter;stroke-miterlimit:10;stroke-dasharray:none;stroke-opacity:1"
                     d="M 5.4546,1.6362 1.6362,5.4546 0,3.8184 3.8178,0 Z" /></g></g></g></g></g></g></g></g></svg>