<?xml version="1.0" encoding="UTF-8"?>
<svg width="51px" height="50px" viewBox="0 0 51 50" version="1.1" xmlns="http://www.w3.org/2000/svg">
    <g id="Sell" stroke="none" stroke-width="1" fill="none" fill-rule="evenodd">
        <g id="Group-17" transform="translate(2.208496, 2.004395)">
            <path d="M43.75,45.375 L2.75,45.375 C1.646,45.375 0.75,44.479 0.75,43.375 L0.75,15.375 C0.75,14.271 1.646,13.375 2.75,13.375 L43.75,13.375 C44.854,13.375 45.75,14.271 45.75,15.375 L45.75,43.375 C45.75,44.479 44.854,45.375 43.75,45.375" id="Fill-1" fill="#FFFFFF"></path>
            <path d="M2.75,14.125 C2.061,14.125 1.5,14.686 1.5,15.375 L1.5,43.375 C1.5,44.064 2.061,44.625 2.75,44.625 L43.75,44.625 C44.439,44.625 45,44.064 45,43.375 L45,15.375 C45,14.686 44.439,14.125 43.75,14.125 L2.75,14.125 Z M43.75,46.125 L2.75,46.125 C1.233,46.125 0,44.892 0,43.375 L0,15.375 C0,13.858 1.233,12.625 2.75,12.625 L43.75,12.625 C45.267,12.625 46.5,13.858 46.5,15.375 L46.5,43.375 C46.5,44.892 45.267,46.125 43.75,46.125 Z" id="Fill-3" fill="#000000"></path>
            <path d="M37.2915,14.75 C37.2915,22.482 31.0235,28.75 23.2915,28.75 C15.5595,28.75 9.2915,22.482 9.2915,14.75 C9.2915,7.018 15.5595,0.75 23.2915,0.75 C31.0235,0.75 37.2915,7.018 37.2915,14.75" id="Fill-5" fill="#3EDBB5"></path>
            <path d="M23.2915,1.5 C15.9855,1.5 10.0415,7.444 10.0415,14.75 C10.0415,22.056 15.9855,28 23.2915,28 C30.5975,28 36.5415,22.056 36.5415,14.75 C36.5415,7.444 30.5975,1.5 23.2915,1.5 M23.2915,29.5 C15.1585,29.5 8.5415,22.883 8.5415,14.75 C8.5415,6.617 15.1585,0 23.2915,0 C31.4245,0 38.0415,6.617 38.0415,14.75 C38.0415,22.883 31.4245,29.5 23.2915,29.5" id="Fill-7" fill="#000000"></path>
            <path d="M38.75,39.375 L7.75,39.375 C6.646,39.375 5.75,38.479 5.75,37.375 L5.75,22.375 C5.75,21.271 6.646,20.375 7.75,20.375 L38.75,20.375 C39.854,20.375 40.75,21.271 40.75,22.375 L40.75,37.375 C40.75,38.479 39.854,39.375 38.75,39.375" id="Fill-9" fill="#FFFFFF"></path>
            <path d="M7.75,21.125 C7.061,21.125 6.5,21.686 6.5,22.375 L6.5,37.375 C6.5,38.064 7.061,38.625 7.75,38.625 L38.75,38.625 C39.439,38.625 40,38.064 40,37.375 L40,22.375 C40,21.686 39.439,21.125 38.75,21.125 L7.75,21.125 Z M38.75,40.125 L7.75,40.125 C6.233,40.125 5,38.892 5,37.375 L5,22.375 C5,20.858 6.233,19.625 7.75,19.625 L38.75,19.625 C40.267,19.625 41.5,20.858 41.5,22.375 L41.5,37.375 C41.5,38.892 40.267,40.125 38.75,40.125 Z" id="Fill-11" fill="#000000"></path>
            <path d="M23.293,39.4604 C22.879,39.4604 22.543,39.1244 22.543,38.7104 L22.543,26.7104 C22.543,26.2964 22.879,25.9604 23.293,25.9604 C23.707,25.9604 24.043,26.2964 24.043,26.7104 L24.043,38.7104 C24.043,39.1244 23.707,39.4604 23.293,39.4604" id="Fill-13" fill="#000000"></path>
            <path d="M28.3369,32.1929 C28.1449,32.1929 27.9529,32.1199 27.8069,31.9729 L23.3369,27.5039 L18.8669,31.9729 C18.5739,32.2659 18.0999,32.2659 17.8069,31.9729 C17.5139,31.6799 17.5139,31.2059 17.8069,30.9129 L23.3369,25.3819 L28.8669,30.9129 C29.1599,31.2059 29.1599,31.6799 28.8669,31.9729 C28.7209,32.1199 28.5289,32.1929 28.3369,32.1929" id="Fill-15" fill="#000000"></path>
        </g>
    </g>
</svg>
