<?xml version="1.0" encoding="UTF-8"?>
<svg width="17px" height="17px" viewBox="0 0 17 17" version="1.1" xmlns="http://www.w3.org/2000/svg" xmlns:xlink="http://www.w3.org/1999/xlink">
    <!-- Generator: Sketch 55.2 (78181) - https://sketchapp.com -->
    <title>Icons/Outline/Arrow Back Copy</title>
    <desc>Created with Sketch.</desc>
    <g id="Buy-and-sell-cryptos" stroke="none" stroke-width="1" fill="none" fill-rule="evenodd">
        <g id="2_-Buy-Bitcoin" transform="translate(-314.000000, -151.000000)" fill="#3EDBB5" stroke="#00E0B3">
            <g id="Icons/Outline/Switch" transform="translate(311.000000, 148.000000)">
                <g id="Group" transform="translate(4.000000, 4.000000)">
                    <path d="M11.5147008,14.92668 C11.5147008,15.147 11.6857728,15.3252 11.89728,15.3252 C12.1087872,15.3252 12.2798592,15.147 12.2798592,14.92668 L12.2798592,1.35756 L14.5691136,3.7422 C14.6437632,3.81996 14.7401856,3.85884 14.8397184,3.85884 C14.9392512,3.85884 15.0356736,3.81996 15.1103232,3.7422 C15.2596224,3.58668 15.2596224,3.3372 15.1103232,3.18168 L12.1709952,0.11988 C12.0279168,-0.02916 11.7759744,-0.02916 11.632896,0.11988 L8.693568,3.18168 C8.5442688,3.3372 8.5442688,3.58668 8.693568,3.7422 C8.8428672,3.89772 9.082368,3.89772 9.2316672,3.7422 L11.5209216,1.35756 L11.5209216,14.92668 L11.5147008,14.92668 Z" id="Path" stroke-width="0.81" fill-rule="nonzero"></path>
                    <path d="M6.5287296,11.583 C6.3794304,11.42748 6.1399296,11.42748 5.9906304,11.583 L3.701376,13.96764 L3.701376,0.39852 C3.701376,0.1782 3.530304,-7.99360578e-15 3.3187968,-7.99360578e-15 C3.1072896,-7.99360578e-15 2.9362176,0.1782 2.9362176,0.39852 L2.9362176,13.96764 L0.6500736,11.583 C0.5007744,11.42748 0.2612736,11.42748 0.1119744,11.583 C-0.0373248,11.73852 -0.0373248,11.988 0.1119744,12.14352 L3.0513024,15.20532 C3.125952,15.28308 3.2223744,15.32196 3.3219072,15.32196 C3.42144,15.32196 3.5178624,15.28308 3.592512,15.20532 L6.53184,12.14352 C6.6749184,11.99124 6.6749184,11.73852 6.5287296,11.583 Z" id="Path" stroke-width="0.81" fill-rule="nonzero"></path>
                </g>
            </g>
        </g>
    </g>
</svg>