<?xml version="1.0" encoding="UTF-8" standalone="no"?>
<svg
   xmlns:dc="http://purl.org/dc/elements/1.1/"
   xmlns:cc="http://creativecommons.org/ns#"
   xmlns:rdf="http://www.w3.org/1999/02/22-rdf-syntax-ns#"
   xmlns:svg="http://www.w3.org/2000/svg"
   xmlns="http://www.w3.org/2000/svg"
   viewBox="0 0 42.666668 42.666668"
   height="42.666668"
   width="42.666668"
   xml:space="preserve"
   id="svg2"
   version="1.1"><metadata
     id="metadata8"><rdf:RDF><cc:Work
         rdf:about=""><dc:format>image/svg+xml</dc:format><dc:type
           rdf:resource="http://purl.org/dc/dcmitype/StillImage" /></cc:Work></rdf:RDF></metadata><defs
     id="defs6"><clipPath
       id="clipPath20"
       clipPathUnits="userSpaceOnUse"><path
         style="clip-rule:evenodd"
         id="path18"
         d="m 25.31637,16.96754 h -6.68024 c -0.7504,0 -1.358,-0.6083 -1.358,-1.3587 v -1.9635 c 0,-0.7504 0.6076,-1.358 1.358,-1.358 h 6.68024 V 9.658 c 0,-0.943214 -0.76451,-1.708 -1.708,-1.708 H 7.90807 c -0.943,0 -1.708,0.765 -1.708,1.708 v 11.7061 h 17.4083 c 0.94349,0 1.708,-0.76479 1.708,-1.708 z" /></clipPath><clipPath
       id="clipPath36"
       clipPathUnits="userSpaceOnUse"><path
         style="clip-rule:evenodd"
         id="path34"
         d="m 20.4464,14.6273 c 0,-0.4837 -0.3962,-0.8764 -0.8848,-0.8764 -0.4893,0 -0.8855,0.3927 -0.8855,0.8764 0,0.4837 0.3962,0.8764 0.8855,0.8764 0.4886,0 0.8848,-0.3927 0.8848,-0.8764" /></clipPath></defs><g
     transform="matrix(1.3333333,0,0,-1.3333333,0,42.666667)"
     id="g10"><g
       id="g12" /><g
       id="g14"><g
         clip-path="url(#clipPath20)"
         id="g16"><path
           id="path22"
           style="fill:#000000;fill-opacity:1;fill-rule:nonzero;stroke:none"
           d="m 1.20007,26.3641 h 29.1163 V 2.95 H 1.20007 Z" /></g></g><g
       id="g24"><g
         transform="matrix(1,0,0,-1,6.55028,23.70007)"
         id="g26"><path
           id="path28"
           style="fill:none;stroke:#000000;stroke-width:0.69999999;stroke-linecap:butt;stroke-linejoin:miter;stroke-miterlimit:10;stroke-dasharray:none;stroke-opacity:1"
           d="M 16.4675,2.6866 H 0 V 1.3587 C 0,0.6083 0.6076,0 1.358,0 h 13.7515 c 0.7497,0 1.358,0.6083 1.358,1.3587 z" /></g></g><g
       id="g30"><g
         clip-path="url(#clipPath36)"
         id="g32"><path
           id="path38"
           style="fill:#000000;fill-opacity:1;fill-rule:nonzero;stroke:none"
           d="M 13.6761,20.5037 H 25.4464 V 8.7509 H 13.6761 Z" /></g></g></g></svg>