<?xml version="1.0" encoding="UTF-8" standalone="no"?>
<svg
   xmlns:dc="http://purl.org/dc/elements/1.1/"
   xmlns:cc="http://creativecommons.org/ns#"
   xmlns:rdf="http://www.w3.org/1999/02/22-rdf-syntax-ns#"
   xmlns:svg="http://www.w3.org/2000/svg"
   xmlns="http://www.w3.org/2000/svg"
   viewBox="0 0 42.666668 42.666668"
   height="42.666668"
   width="42.666668"
   xml:space="preserve"
   id="svg2"
   version="1.1"><metadata
     id="metadata8"><rdf:RDF><cc:Work
         rdf:about=""><dc:format>image/svg+xml</dc:format><dc:type
           rdf:resource="http://purl.org/dc/dcmitype/StillImage" /></cc:Work></rdf:RDF></metadata><defs
     id="defs6"><clipPath
       id="clipPath20"
       clipPathUnits="userSpaceOnUse"><path
         id="path18"
         d="m 24.61637,12.28734 h 0.15449 c 0.22358,0 0.42181,0.10788 0.54551,0.27446 V 9.658 c 0,-0.943214 -0.76451,-1.708 -1.708,-1.708 H 7.90807 c -0.943,0 -1.708,0.765 -1.708,1.708 v 11.7061 h 17.4083 c 0.94349,0 1.708,-0.76479 1.708,-1.708 v -2.96332 c -0.1237,0.16663 -0.32193,0.27476 -0.54551,0.27476 h -0.15449 v 2.68856 c 0,0.55667 -0.45117,1.008 -1.008,1.008 H 6.90007 V 9.658 c 0,-0.5564 0.4516,-1.008 1.008,-1.008 h 15.7003 c 0.55683,0 1.008,0.45133 1.008,1.008 z" /></clipPath></defs><g
     transform="matrix(1.3333333,0,0,-1.3333333,0,42.666667)"
     id="g10"><g
       id="g12" /><g
       id="g14"><g
         clip-path="url(#clipPath20)"
         id="g16"><path
           id="path22"
           style="fill:#9da0a6;fill-opacity:1;fill-rule:nonzero;stroke:none"
           d="m 1.20007,26.3641 h 29.1163 V 2.95 H 1.20007 Z" /></g></g><g
       id="g24"><g
         transform="matrix(1,0,0,-1,17.27806,16.96754)"
         id="g26"><path
           id="path28"
           style="fill:none;stroke:#9da0a6;stroke-width:0.69999999;stroke-linecap:butt;stroke-linejoin:miter;stroke-miterlimit:10;stroke-dasharray:none;stroke-opacity:1"
           d="M 7.4928,4.6802 H 1.358 C 0.6083,4.6802 0,4.0726 0,3.3222 V 1.3587 C 0,0.6083 0.6083,0 1.358,0 h 6.1348 c 0.3752,0 0.679,0.3045 0.679,0.679 v 3.3222 c 0,0.3752 -0.3038,0.679 -0.679,0.679 z" /></g><g
         transform="matrix(1,0,0,-1,6.55028,23.70007)"
         id="g30"><path
           id="path32"
           style="fill:none;stroke:#9da0a6;stroke-width:0.69999999;stroke-linecap:butt;stroke-linejoin:miter;stroke-miterlimit:10;stroke-dasharray:none;stroke-opacity:1"
           d="M 16.4675,2.6866 H 0 V 1.3587 C 0,0.6083 0.6076,0 1.358,0 h 13.7515 c 0.7497,0 1.358,0.6083 1.358,1.3587 z" /></g><g
         transform="matrix(1,0,0,-1,18.6761,15.5037)"
         id="g34"><path
           id="path36"
           style="fill:none;stroke:#9da0a6;stroke-width:0.69999999;stroke-linecap:butt;stroke-linejoin:miter;stroke-miterlimit:10;stroke-dasharray:none;stroke-opacity:1"
           d="m 1.7703,0.8764 c 0,0.4837 -0.3962,0.8764 -0.8848,0.8764 C 0.3962,1.7528 0,1.3601 0,0.8764 0,0.3927 0.3962,0 0.8855,0 1.3741,0 1.7703,0.3927 1.7703,0.8764 Z" /></g></g></g></svg>