<?xml version="1.0" encoding="UTF-8"?>
<svg width="51px" height="50px" viewBox="0 0 51 50" version="1.1" xmlns="http://www.w3.org/2000/svg">
    <g id="sendout" stroke="none" stroke-width="1" fill="none" fill-rule="evenodd">
        <g id="Group" transform="translate(1.201172, 1.934326)">
            <path d="M2.75,32.75 L19.722,32.75 C19.987,32.75 20.242,32.645 20.429,32.457 L23.668,29.218 C24.059,28.828 24.692,28.828 25.082,29.218 L28.321,32.457 C28.509,32.645 28.763,32.75 29.028,32.75 L45.75,32.75 C46.854,32.75 47.75,31.854 47.75,30.75 L47.75,2.75 C47.75,1.646 46.854,0.75 45.75,0.75 L2.75,0.75 C1.646,0.75 0.75,1.646 0.75,2.75 L0.75,30.75 C0.75,31.854 1.646,32.75 2.75,32.75" id="Fill-1" fill="#FFFFFF"></path>
            <path d="M24.375,28.1753 C24.843,28.1753 25.282,28.3573 25.613,28.6883 L28.852,31.9263 C28.899,31.9743 28.961,32.0003 29.028,32.0003 L45.75,32.0003 C46.439,32.0003 47,31.4393 47,30.7503 L47,2.7503 C47,2.0603 46.439,1.5003 45.75,1.5003 L2.75,1.5003 C2.061,1.5003 1.5,2.0603 1.5,2.7503 L1.5,30.7503 C1.5,31.4393 2.061,32.0003 2.75,32.0003 L19.722,32.0003 C19.789,32.0003 19.852,31.9743 19.898,31.9273 L23.138,28.6883 C23.468,28.3573 23.908,28.1753 24.375,28.1753 M45.75,33.5003 L29.028,33.5003 C28.56,33.5003 28.121,33.3183 27.79,32.9873 L24.552,29.7483 C24.424,29.6203 24.326,29.6213 24.198,29.7483 L20.959,32.9873 C20.63,33.3183 20.19,33.5003 19.722,33.5003 L2.75,33.5003 C1.233,33.5003 0,32.2663 0,30.7503 L0,2.7503 C0,1.2333 1.233,0.0003 2.75,0.0003 L45.75,0.0003 C47.267,0.0003 48.5,1.2333 48.5,2.7503 L48.5,30.7503 C48.5,32.2663 47.267,33.5003 45.75,33.5003" id="Fill-3" fill="#000000"></path>
            <path d="M2.75,32.75 L19.722,32.75 C19.987,32.75 20.242,32.645 20.429,32.457 L23.668,29.218 C24.059,28.828 24.692,28.828 25.082,29.218 L28.321,32.457 C28.509,32.645 28.763,32.75 29.028,32.75 L45.75,32.75 C46.854,32.75 47.75,31.854 47.75,30.75 L47.75,9.75 C47.75,8.646 46.854,7.75 45.75,7.75 L2.75,7.75 C1.646,7.75 0.75,8.646 0.75,9.75 L0.75,30.75 C0.75,31.854 1.646,32.75 2.75,32.75" id="Fill-5" fill="#3EDBB5"></path>
            <path d="M24.375,28.1753 C24.843,28.1753 25.282,28.3573 25.613,28.6883 L28.852,31.9263 C28.899,31.9743 28.961,32.0003 29.028,32.0003 L45.75,32.0003 C46.439,32.0003 47,31.4393 47,30.7503 L47,9.7503 C47,9.0603 46.439,8.5003 45.75,8.5003 L2.75,8.5003 C2.061,8.5003 1.5,9.0603 1.5,9.7503 L1.5,30.7503 C1.5,31.4393 2.061,32.0003 2.75,32.0003 L19.722,32.0003 C19.789,32.0003 19.852,31.9743 19.898,31.9273 L23.138,28.6883 C23.468,28.3573 23.908,28.1753 24.375,28.1753 M45.75,33.5003 L29.028,33.5003 C28.56,33.5003 28.121,33.3183 27.79,32.9873 L24.552,29.7483 C24.424,29.6203 24.326,29.6213 24.198,29.7483 L20.959,32.9873 C20.63,33.3183 20.19,33.5003 19.722,33.5003 L2.75,33.5003 C1.233,33.5003 0,32.2663 0,30.7503 L0,9.7503 C0,8.2333 1.233,7.0003 2.75,7.0003 L45.75,7.0003 C47.267,7.0003 48.5,8.2333 48.5,9.7503 L48.5,30.7503 C48.5,32.2663 47.267,33.5003 45.75,33.5003" id="Fill-7" fill="#000000"></path>
            <path d="M2.75,31.75 L19.722,31.75 C19.987,31.75 20.242,31.645 20.429,31.457 L23.668,28.218 C24.059,27.828 24.692,27.828 25.082,28.218 L28.321,31.457 C28.509,31.645 28.763,31.75 29.028,31.75 L45.75,31.75 C46.854,31.75 47.75,30.854 47.75,29.75 L47.75,16.75 C47.75,15.646 46.854,14.75 45.75,14.75 L2.75,14.75 C1.646,14.75 0.75,15.646 0.75,16.75 L0.75,29.75 C0.75,30.854 1.646,31.75 2.75,31.75" id="Fill-9" fill="#3EDBB5"></path>
            <path d="M24.375,27.1753 C24.843,27.1753 25.282,27.3573 25.613,27.6883 L28.852,30.9263 C28.899,30.9743 28.961,31.0003 29.028,31.0003 L45.75,31.0003 C46.439,31.0003 47,30.4393 47,29.7503 L47,16.7503 C47,16.0603 46.439,15.5003 45.75,15.5003 L2.75,15.5003 C2.061,15.5003 1.5,16.0603 1.5,16.7503 L1.5,29.7503 C1.5,30.4393 2.061,31.0003 2.75,31.0003 L19.722,31.0003 C19.789,31.0003 19.852,30.9743 19.898,30.9273 L23.138,27.6883 C23.468,27.3573 23.908,27.1753 24.375,27.1753 M45.75,32.5003 L29.028,32.5003 C28.56,32.5003 28.121,32.3183 27.79,31.9873 L24.552,28.7483 C24.424,28.6203 24.326,28.6213 24.198,28.7483 L20.959,31.9873 C20.63,32.3183 20.19,32.5003 19.722,32.5003 L2.75,32.5003 C1.233,32.5003 0,31.2663 0,29.7503 L0,16.7503 C0,15.2333 1.233,14.0003 2.75,14.0003 L45.75,14.0003 C47.267,14.0003 48.5,15.2333 48.5,16.7503 L48.5,29.7503 C48.5,31.2663 47.267,32.5003 45.75,32.5003" id="Fill-11" fill="#000000"></path>
            <path d="M45.75,21.75 L28.778,21.75 C28.513,21.75 28.259,21.855 28.071,22.043 L24.832,25.282 C24.442,25.672 23.809,25.672 23.418,25.282 L20.179,22.043 C19.992,21.855 19.737,21.75 19.472,21.75 L2.75,21.75 C1.646,21.75 0.75,22.646 0.75,23.75 L0.75,43.75 C0.75,44.854 1.646,45.75 2.75,45.75 L45.75,45.75 C46.854,45.75 47.75,44.854 47.75,43.75 L47.75,23.75 C47.75,22.646 46.854,21.75 45.75,21.75" id="Fill-13" fill="#FFFFFF"></path>
            <path d="M2.75,22.5 C2.061,22.5 1.5,23.061 1.5,23.75 L1.5,43.75 C1.5,44.439 2.061,45 2.75,45 L45.75,45 C46.439,45 47,44.439 47,43.75 L47,23.75 C47,23.061 46.439,22.5 45.75,22.5 L28.778,22.5 C28.712,22.5 28.648,22.527 28.602,22.573 L25.362,25.813 C24.681,26.494 23.57,26.496 22.888,25.813 L19.649,22.573 C19.602,22.527 19.538,22.5 19.472,22.5 L2.75,22.5 Z M45.75,46.5 L2.75,46.5 C1.233,46.5 0,45.267 0,43.75 L0,23.75 C0,22.233 1.233,21 2.75,21 L19.472,21 C19.939,21 20.379,21.182 20.709,21.513 L23.948,24.752 C24.046,24.85 24.204,24.85 24.302,24.752 L27.541,21.513 C27.872,21.182 28.311,21 28.778,21 L45.75,21 C47.267,21 48.5,22.233 48.5,23.75 L48.5,43.75 C48.5,45.267 47.267,46.5 45.75,46.5 Z" id="Fill-15" fill="#000000"></path>
            <path d="M9.96,41.7104 C9.546,41.7104 9.21,41.3744 9.21,40.9604 L9.21,28.9604 C9.21,28.5464 9.546,28.2104 9.96,28.2104 C10.374,28.2104 10.71,28.5464 10.71,28.9604 L10.71,40.9604 C10.71,41.3744 10.374,41.7104 9.96,41.7104" id="Fill-17" fill="#000000"></path>
            <path d="M15.0039,34.4429 C14.8119,34.4429 14.6199,34.3699 14.4739,34.2229 L10.0039,29.7539 L5.5339,34.2229 C5.2409,34.5159 4.7669,34.5159 4.4739,34.2229 C4.1809,33.9299 4.1809,33.4559 4.4739,33.1629 L10.0039,27.6319 L15.5339,33.1629 C15.8269,33.4559 15.8269,33.9299 15.5339,34.2229 C15.3879,34.3699 15.1959,34.4429 15.0039,34.4429" id="Fill-19" fill="#000000"></path>
        </g>
    </g>
</svg>
